<svg xmlns="http://www.w3.org/2000/svg" xmlns:xlink="http://www.w3.org/1999/xlink" viewBox="0 0 180 180"><path d="M0 90C0 40.3 40.3 0 90 0s90 40.3 90 90-40.3 90-90 90S0 139.7 0 90" fill="#ededed"/><path d="M35.4 161.5c1.2.9 2.4 1.8 3.7 2.7-1.3-.9-2.5-1.8-3.7-2.7zm140.8-45.8c.2-.6.4-1.3.5-1.9.2-.6.3-1.2.5-1.8.2-.6.3-1.3.5-1.9.1-.6.3-1.3.4-1.9.1-.6.3-1.2.4-1.9.1-.7.2-1.4.4-2.1l.3-1.8c.1-.8.2-1.5.3-2.3.1-.5.1-1.1.2-1.6.1-.9.1-1.7.2-2.6 0-.3.1-.7.1-1v-.1c.1-1.6.1-3.1.1-4.7 0-1.2 0-2.4-.1-3.6h-.6c-4.3-33.9-33.1-60.1-68.2-60.1C77.8 26.3 50 50 43.7 81.6h-4.3c-9.6 0-17.4-11.1-17.4-1.5v3.4c-1.8 0-3.3 1.5-3.3 3.3 0 0-1.1 9.8 5.4 9.8v8.7c0 4.8 3.9 8.7 8.7 8.7v8.7h15.3C52.6 133 59.6 142 68.3 149l-20.6 20.6c1.9 1 3.8 2 5.8 2.8l19.8-19.9c10.8 7.1 23.8 11.3 37.8 11.3 26.8 0 50.1-15.4 61.4-37.8.8-1.9 1.6-3.9 2.3-5.9.1-.2.2-.5.2-.7l.6-1.8c.3-.7.5-1.3.6-1.9z" opacity=".2" fill="#1d1d1b"/><path d="M30.6 157.6c5.2 4.6 11 8.6 17.2 11.9l28-28L61.2 127l-30.6 30.6z" fill="#f7d600"/><path d="M54.4 133.8c3.9 5.7 8.6 10.7 14 15l7.3-7.3L61.2 127l-6.8 6.8z" opacity=".2" fill="#1d1d1b"/><path d="M64.4 82.6c0-1.8-1.5-3.3-3.3-3.3v-6.5c0-9.6-7.8 4.6-17.4 4.6h-4.4c-9.6 0-17.4-11.1-17.4-1.5v-1 4.3c-1.8 0-3.3 1.5-3.3 3.3 0 0-1.1 9.8 5.4 9.8v8.7c0 4.8 3.9 8.7 8.7 8.7v8.7h17.5v-8.7h-.1c4.8 0 8.7-3.9 8.7-8.7v-8.7c1.3 0 2.2-.4 3-1 3.3-2.4 2.6-8.7 2.6-8.7" fill="#fff"/><path d="M61.1 79.3v-6.5c0-9.3-7.3 3.7-16.5 4.6-1.4 5.6-2.2 11.5-2.2 17.6 0 8.2 1.5 16.1 4.1 23.5h3.8v-8.7h-.1c4.8 0 8.7-3.9 8.7-8.7v-8.7c1.3 0 2.2-.4 3-1 3.1-2.5 2.4-8.8 2.4-8.8.1-1.8-1.4-3.3-3.2-3.3z" opacity=".2" fill="#1d1d1b"/><path d="M47.1 73.1s2.7 14.6 14.2 14.6l-.1-14.6s-.9-8.9-7.4-13.3l-8.2 10.5 1.5 2.8z" fill="#00ac98"/><path d="M22 87.6v-8.7c0-10.8 8.9-19.6 19.7-19.6 5 0 9.5 1.7 13.1 4.5 0 0-4.1 28.2-32.9 28.2v-4.4z" opacity=".2" fill="#1d1d1b"/><path d="M22 83.6v-8.7c0-10.8 8.9-19.6 19.7-19.6 5 0 9.5 1.7 13.1 4.5 0 0-4.1 28.2-32.9 28.2v-4.4z" fill="#00ac98"/><path d="M111.1 147.5c-33.8 0-61.2-27.4-61.2-61.2s27.4-61.2 61.2-61.2c33.8 0 61.2 27.4 61.2 61.2s-27.4 61.2-61.2 61.2" fill="#fff"/><path d="M111.1 17.6c-38 0-68.7 30.8-68.7 68.7 0 38 30.8 68.7 68.7 68.7 38 0 68.7-30.8 68.7-68.7.1-37.9-30.7-68.7-68.7-68.7m0 129.9c-33.8 0-61.2-27.4-61.2-61.2s27.4-61.2 61.2-61.2c33.8 0 61.2 27.4 61.2 61.2s-27.4 61.2-61.2 61.2" fill="#545454"/><path d="M104.4 122.6H85.7v8.1h18.7v9.5H123v-8.3h-18.7v-9.3zm37.3 0H123v8.1h18.7v-8.1z" opacity=".2" fill="#1d1d1b"/><path fill="#00ac98" d="M85.7 88.4v34.2h23.5L95.6 83.2zm56-5v39.2h-23.4l13.5-39.4h8.5z"/><path d="M114.4 41.7v1.7l-.6-1.7-21.9 17v42.1c0 13.8 12.4 21.8 12.4 21.8v9.3H123v-9.3s12.4-8 12.4-21.8V63.6c-2.7-17.5-10.5-21.9-21-21.9" fill="#ededed"/><path d="M102.8 50.3c-10 4.3-17.1 14.2-17.1 25.7v12.3l6.2-3.2V58.8l10.9-8.5zm26.9-2.2l.2.3.2-.3h-.4m2.8 0z" fill="#d1d1d1"/><path d="M141.7 95l-.1-20.9s-1.1-11.2-9-17.7h-.1l-.1-.1c-.4-.4-.9-.7-1.4-1-4.8-3.3-10.8-5.3-17.2-5.3-15.5 0-28.1 12.5-28.1 28v18.6c18.8 0 30.3-8.5 37.1-17.7 2.3 6.2 7.6 16.1 18.9 16.1z" opacity=".2" fill="#1d1d1b"/><defs><path id="a" d="M50 86.4c0 33.8 27.4 61.2 61.2 61.2 33.8 0 61.2-27.4 61.2-61.2 0-33.8-27.4-61.2-61.2-61.2C77.3 25.2 50 52.6 50 86.4"/></defs><clipPath id="b"><use xlink:href="#a" overflow="visible"/></clipPath><path d="M76 105.1c0 6.8-5.6 13.4-12.4 13.4l.1 3.1v5.5c.2.3.5.6.7.9 6.5-.4 11.6-5.8 11.6-12.4v-10.5zm7.8-23.3c-.3 2.6-1.4 8.9-3.5 10.5-1.1.8-2.5 1.4-4.3 1.4v9.5c1.8 0 3.2-.5 4.3-1.4 4.4-3.5 3.5-20 3.5-20 0-.3.1.3 0 0" opacity=".2" clip-path="url(#b)" fill="#1d1d1b"/><path d="M83.7 80.7c0-2.6-2.1-4.6-4.7-4.6v-9.3c0-13.7-11.3 3.6-25 3.6l-2.9 3H48c-13.7 0-24.8-15.8-24.8-2.1v-1.4 6.2c-2.6 0-4.6 2.1-4.6 4.6 0 0-1.5 13.9 7.8 13.9V107c0 6.8 5.6 12.4 12.4 12.4v12.4h24.9v-12.4h-.1c6.8 0 12.4-5.6 12.4-12.4V94.7c1.8 0 3.2-.5 4.3-1.4 4.4-3.5 3.4-12.6 3.4-12.6" clip-path="url(#b)" fill="#ededed"/><path d="M63.4 48.1c-.4.5-.8 1.1-1.2 1.6 1.1.4 2.2.8 3.2 1.3l2.3-2.9h-4.3" clip-path="url(#b)" fill="#ababab"/><path d="M62.2 49.7c-5.2 6.9-9 15-10.8 23.7h2.2c1.2-3.3 2.6-6.5 4.4-9.6l-1.1-1.9L65.4 51c-1.1-.5-2.1-1-3.2-1.3" clip-path="url(#b)" fill="#8f8f8c"/><path d="M79.3 94l-.1-20.9s-1.1-11.2-9-17.7h-.1l-.1-.1c-.4-.4-.9-.7-1.4-1-4.9-3.4-10.8-5.3-17.2-5.3-15.5 0-28.1 12.5-28.1 28v18.6c18.8 0 30.3-8.5 37.1-17.7C62.6 84.1 67.9 94 79.3 94z" opacity=".2" clip-path="url(#b)" fill="#1d1d1b"/><path d="M59 65.9s3.8 20.9 20.2 20.9l-.1-20.9S77.9 53.3 68.5 47L56.8 61.9l2.2 4z" clip-path="url(#b)" fill="#00ac98"/><path d="M23.3 82.1V69.7c0-15.5 12.6-28 28.1-28 7.1 0 13.6 2.4 18.7 6.4h.1s-5.8 40.2-46.8 40.2v-6.2z" clip-path="url(#b)" fill="#00ac98"/><path d="M121.5 65.9s3.8 20.9 20.2 20.9l-.1-20.9S140.4 53.3 131 47l-11.8 14.9 2.3 4z" fill="#00ac98"/><path d="M85.7 82.1V69.7c0-15.5 12.6-28 28.1-28 7.1 0 13.6 2.4 18.7 6.4h.1s-5.8 40.2-46.8 40.2v-6.2z" fill="#00ac98"/><path d="M111.1 25.2c25.6 0 47.5 15.7 56.6 38.1-12.4-18-33.1-29.8-56.6-29.8S66.9 45.3 54.5 63.3c9.1-22.4 31-38.1 56.6-38.1z" opacity=".2" fill="#1d1d1b"/></svg>