<svg xmlns="http://www.w3.org/2000/svg" viewBox="0 0 180 180"><defs><style>.cls-1{fill:#ededed}.cls-2,.cls-8{opacity:.3}.cls-3,.cls-6,.cls-8{fill:#1d1d1b}.cls-4{fill:#00ac98}.cls-5{fill:#f7d600}.cls-6{opacity:.2}.cls-7{fill:#545454}.cls-9{fill:#fff}</style></defs><title>Asset 28</title><g id="Layer_2" data-name="Layer 2"><g id="Layer_6" data-name="Layer 6"><path class="cls-1" d="M0 90a90 90 0 1 1 90 90A90 90 0 0 1 0 90"/><g class="cls-2"><path class="cls-3" d="M72.49 36.88L70 25.48a76.34 76.34 0 0 0-42 28.91l9.86 6.28a64.71 64.71 0 0 1 34.63-23.79zm48.27 5.38l6.24-9.87A76.24 76.24 0 0 0 76.79 24l2.53 11.41a64.6 64.6 0 0 1 41.44 6.85zM133 36.07l-6.27 9.84a64.67 64.67 0 0 1 25.11 34L163 76.37a76.29 76.29 0 0 0-30-40.3zm-74.65 120c-.44-.24-.85-.51-1.28-.76l-6.27 9.84c.62.37 1.23.75 1.87 1.1a76.59 76.59 0 0 0 93.23-14.58l-8.52-8a64.92 64.92 0 0 1-79.03 12.4zM27 115.21l-11.39 2.53a76.36 76.36 0 0 0 29.31 43.57l6.28-9.86A64.73 64.73 0 0 1 27 115.21zm6.27-47.44c.23-.41.48-.8.71-1.21l52.58 31.37 5.07-9-71.75-37-2.62 4.65 6.71 4c-.3.5-.6 1-.89 1.5a76.22 76.22 0 0 0-8.81 48.78l11.41-2.53a64.61 64.61 0 0 1 7.59-40.56z"/></g><path class="cls-4" d="M72.58 27.46L70 16.07A76.33 76.33 0 0 0 28.1 45l9.9 6.25a64.71 64.71 0 0 1 34.58-23.79zm48.27 5.39l6.28-9.85a76.24 76.24 0 0 0-50.25-8.44l2.53 11.41a64.6 64.6 0 0 1 41.44 6.88zm31.09 37.61L163.06 67a76.29 76.29 0 0 0-30-40.31l-6.27 9.84a64.67 64.67 0 0 1 25.15 33.93zm-99.19 86.38A76.59 76.59 0 0 0 146 142.26l-8.52-8a64.92 64.92 0 0 1-79 12.36c-.44-.24-.85-.51-1.28-.76l-6.27 9.84c.58.41 1.19.79 1.82 1.14zm-25.63-51.05l-11.39 2.53A76.36 76.36 0 0 0 45 151.89l6.32-9.89a64.73 64.73 0 0 1-24.2-36.21z"/><path class="cls-5" d="M33.36 58.35c.24-.43.5-.84.75-1.26l-9.84-6.27c-.37.61-.74 1.22-1.09 1.85a76.22 76.22 0 0 0-8.81 48.78l11.41-2.53a64.61 64.61 0 0 1 7.58-40.57z"/><path class="cls-6" d="M22.7 53.47c-.87 1.61-1.7 3.24-2.45 4.89l10.11 6q1.22-2.84 2.72-5.58z"/><path class="cls-7" d="M92.63 85.36l-5.07 9-69.3-41.34 2.62-4.65 71.75 36.99z"/><circle class="cls-8" cx="90" cy="99.38" r="11.07"/><circle class="cls-9" cx="90" cy="89.99" r="11.07"/></g></g></svg>