<svg xmlns="http://www.w3.org/2000/svg" viewBox="0 0 180 180"><defs><style>.cls-1{isolation:isolate}.cls-2{fill:#ededed}.cls-3{fill:#fff}.cls-4{fill:#4c4c4c}.cls-5{fill:#ccc}.cls-6,.cls-7{fill:#1d1d1b}.cls-6{opacity:.3}.cls-7{opacity:.2}.cls-8{fill:#00ac98;mix-blend-mode:multiply}</style></defs><title>crates-completed-icon</title><g class="cls-1"><g id="Layer_2" data-name="Layer 2"><g id="Layer_6" data-name="Layer 6"><path class="cls-2" d="M0 90a90 90 0 1 1 90 90A90 90 0 0 1 0 90"/><path class="cls-3" d="M95.77 96.12h50.39v50.39H95.77z"/><circle class="cls-4" cx="121.38" cy="60.32" r="2.79"/><circle class="cls-4" cx="54.3" cy="125.5" r="3.21"/><path class="cls-5" d="M33.84 34.65v111.86h50.39V85.04h61.93V34.65H33.84z"/><path class="cls-6" d="M84.23 85.04h61.93v8.12H84.23zm-50.39 61.48h50.39v8.12H33.84zm61.93 0h50.39v8.12H95.77z"/><path class="cls-7" d="M37.97 38.78h104.05v4.13H37.97zm61.93 61.48h42.13v4.13H99.9z"/><path class="cls-8" d="M0 90a90 90 0 1 1 90 90A90 90 0 0 1 0 90"/></g></g></g></svg>