<svg xmlns="http://www.w3.org/2000/svg" viewBox="0 0 180 180"><defs><style>.cls-1,.cls-6{fill:#d9e4f0}.cls-2,.cls-4{fill:#1d1d1b}.cls-2{opacity:.3}.cls-3{fill:#ccc}.cls-4{opacity:.2}.cls-5{fill:#fff}.cls-6{opacity:.5}.cls-7{fill:#004c9c}</style></defs><title>subsection-health-paused-icon</title><g id="Layer_2" data-name="Layer 2"><g id="Layer_6" data-name="Layer 6"><path class="cls-1" d="M0 90a90 90 0 1 1 90 90A90 90 0 0 1 0 90"/><path class="cls-2" d="M128.9 109.45V104l2.2-2.55h-.05a34.77 34.77 0 0 0 8.39-22.77c0-18.76-14.47-34-32.32-34a31.5 31.5 0 0 0-23.57 10.8A31.5 31.5 0 0 0 60 44.71c-17.85 0-32.32 15.21-32.32 34A34.77 34.77 0 0 0 36 101.44l47.55 55 21.72-25.14H107v23.44h21.9v-23.4h23.44v-21.89z"/><path class="cls-3" d="M139.44 68.7c0-18.76-14.47-34-32.32-34a31.5 31.5 0 0 0-23.57 10.81A31.5 31.5 0 0 0 60 34.74c-17.85 0-32.32 15.21-32.32 34A34.77 34.77 0 0 0 36 91.47l47.55 55 47.55-55h-.05a34.77 34.77 0 0 0 8.39-22.77z"/><path class="cls-4" d="M128.9 86.01h-21.89v23.44H83.57v21.89h13.09l32.24-37.32v-8.01z"/><path class="cls-5" d="M152.34 101.19H128.9V77.75h-21.89v23.44H83.57v21.89h23.44v23.44h21.89v-23.44h23.44v-21.89z"/><path class="cls-6" d="M0 90a90 90 0 1 1 90 90A90 90 0 0 1 0 90"/><path class="cls-7" d="M58.55 45.86H79.5v92.47H58.55zm41.94 0h20.95v92.47h-20.95z"/></g></g></svg>