<svg xmlns="http://www.w3.org/2000/svg" viewBox="0 0 180 180"><defs><style>.cls-1{fill:#ededed}.cls-2,.cls-4{opacity:.3}.cls-3,.cls-4,.cls-6{fill:#1d1d1b}.cls-5{fill:#fff}.cls-6{opacity:.2}.cls-7{fill:#f7d600}.cls-8{fill:#545454}.cls-9{fill:#00ac98}</style></defs><title>subsection-lifestyle-ready-icon</title><g id="Layer_2" data-name="Layer 2"><g id="Layer_6" data-name="Layer 6"><path class="cls-1" d="M0 90a90 90 0 1 1 90 90A90 90 0 0 1 0 90"/><g class="cls-2"><path class="cls-3" d="M138.15 47.12a68 68 0 0 0-115.48 39h7.05a61 61 0 0 1 120.67 0h7.05a67.82 67.82 0 0 0-19.29-39zM26.67 98.83l7.31-12.66H19.36l7.31 12.66z"/></g><path class="cls-4" d="M153.92 91.59l-7.31 12.66h3.79a61 61 0 0 1-120.67 0h-7.06a68 68 0 0 0 134.78 0h3.78z"/><path class="cls-4" d="M114.77 108.94c0 6.85-5.55 13.39-12.4 13.39l.1 3.14v5.47c.24.3-.48.89-.1.89 7.77 0 12.4-5.8 12.4-12.37zm7.82-23.32c-.35 2.6-1.42 8.86-3.54 10.53a6.7 6.7 0 0 1-4.28 1.37v9.54a6.71 6.71 0 0 0 4.28-1.37c4.48-3.52 3.54-20.07 3.54-20.07 0-.34.07.32 0 0m-57.36 33.83c0 6.57 4.63 12.37 12.4 12.37.39 0-.34-.59-.1-.89v-5.47l.1-3.14c-6.85 0-12.4-6.54-12.4-13.39zm-7.82-33.83c-.07.32 0-.34 0 0 0 0-.93 16.55 3.54 20.07a6.71 6.71 0 0 0 4.28 1.37v-9.55a6.7 6.7 0 0 1-4.28-1.37c-2.12-1.67-3.19-7.92-3.54-10.53"/><path class="cls-5" d="M122.52 84.57a4.65 4.65 0 0 0-4.65-4.65v-9.3c0-13.7-11.33 3.6-25 3.6l-2.87 3h-3.1c-13.7 0-24.8-15.81-24.8-2.11v4.8a4.65 4.65 0 0 0-4.65 4.65S55.9 98.51 65.2 98.51v12.4a12.4 12.4 0 0 0 12.4 12.4v12.4h24.9v-12.4h-.1a12.4 12.4 0 0 0 12.4-12.4v-12.4a6.7 6.7 0 0 0 4.2-1.37c4.48-3.52 3.47-12.58 3.47-12.58"/><path class="cls-4" d="M77.57 135.71h24.8v8.26h-24.8z"/><path class="cls-6" d="M118 97.77l-.1-17.85h-.08v-3.48a32.28 32.28 0 0 0-3.73-10.89c-4.43 1.31-12.36 8.67-21.3 8.67l-2.87 3h-3.1c-9.93 0-18.49-8.3-22.45-7.65a27.73 27.73 0 0 0-2.35 11.18v17.12a7.17 7.17 0 0 0 3.1.65v.81c17-.88 27.55-8.92 34-17.59 2.22 6.15 7.54 16 18.83 16.05z"/><path class="cls-7" d="M97.8 69.7s3.82 20.86 20.2 20.86l-.11-20.85s-1.22-12.63-10.61-18.91L95.57 65.72z"/><path class="cls-7" d="M62.07 86V73.53a28.07 28.07 0 0 1 28.08-28 30.27 30.27 0 0 1 18.71 6.39h.06s-5.85 40.2-46.85 40.2z"/><path class="cls-8" d="M138.15 42.47a68 68 0 0 0-115.48 39h7.05a61 61 0 0 1 120.67 0h7.05a67.82 67.82 0 0 0-19.29-39zM26.67 94.19l7.31-12.66H19.36l7.31 12.66z"/><path class="cls-9" d="M153.92 86.94l-7.31 12.66h3.79a61 61 0 0 1-120.67 0h-7.06a68 68 0 0 0 134.78 0h3.78z"/></g></g></svg>