<svg xmlns="http://www.w3.org/2000/svg" viewBox="0 0 180 180"><defs><style>.cls-1{fill:#f0f0f0}.cls-2,.cls-6{fill:#1d1d1b}.cls-2{opacity:.2}.cls-3{fill:#fff}.cls-4{fill:#f7d600}.cls-5{fill:#00ab99}.cls-6{opacity:.3}.cls-7{fill:#4c4c4c}.cls-8{fill:#545454}</style></defs><title>loop-icon</title><g id="Layer_2" data-name="Layer 2"><g id="Layer_6" data-name="Layer 6"><path class="cls-1" d="M0 90a90 90 0 1 1 90 90A90 90 0 0 1 0 90"/><path class="cls-2" d="M50.51 130.09h79.01v4.13H50.51z"/><path class="cls-3" d="M50.51 51.08h79.01v79.01H50.51z"/><path class="cls-4" d="M50.51 30.99h79.01v9H50.51z"/><path class="cls-4" transform="rotate(-90 34.94 90.58)" d="M-4.57 86.08h79.01v9H-4.57z"/><path class="cls-5" transform="rotate(-90 145.095 90.585)" d="M105.59 86.08h79.01v9h-79.01z"/><path class="cls-6" d="M50.51 39.99h79.01v8.12H50.51zm-20.07 90.1h9v8.12h-9zm110.16 0h9v8.12h-9z"/><path class="cls-5" d="M50.51 141.17h79.01v9H50.51z"/><path class="cls-6" d="M50.51 150.17h79.01v8.12H50.51z"/><circle class="cls-6" cx="145.1" cy="149.81" r="2.79"/><circle class="cls-7" cx="145.1" cy="145.67" r="2.79"/><circle class="cls-6" cx="34.94" cy="39.99" r="4.5"/><circle class="cls-7" cx="34.94" cy="35.67" r="4.5"/><circle class="cls-6" cx="145.1" cy="39.99" r="4.5"/><circle class="cls-7" cx="145.1" cy="35.67" r="4.5"/><circle class="cls-6" cx="34.94" cy="149.99" r="4.5"/><circle class="cls-7" cx="34.94" cy="145.67" r="4.5"/><path class="cls-8" d="M103.95 97.63l-7.05-7.05 7.05-7.04-6.91-6.9L90 83.68l-7.05-7.05-6.9 6.91 7.04 7.04-7.04 7.05 6.9 6.9L90 97.49l7.04 7.04 6.91-6.9z"/></g></g></svg>