<svg xmlns="http://www.w3.org/2000/svg" viewBox="0 0 180 180"><defs><style>.cls-1,.cls-8{fill:#d9e4f0}.cls-2,.cls-7{fill:#1d1d1b}.cls-2,.cls-8{opacity:.3}.cls-3{fill:#bcbcbc}.cls-4{fill:#fff}.cls-5{fill:#b2b2b2}.cls-6{fill:#ccc}.cls-7{opacity:.2}.cls-9{fill:#004c9c}</style></defs><title>Asset 4</title><g id="Layer_2" data-name="Layer 2"><g id="Layer_6" data-name="Layer 6"><path class="cls-1" d="M0 90a90 90 0 1 1 90 90A90 90 0 0 1 0 90"/><path class="cls-2" d="M110.54 46.65a45.35 45.35 0 0 0-5.87-8.36 10.65 10.65 0 1 0-10.57 9.36 10.6 10.6 0 0 0 7-2.66 38.34 38.34 0 1 1-61.05.41 10.63 10.63 0 1 0-3.92-6.31 45.23 45.23 0 1 0 74.39 7.56z"/><path class="cls-3" d="M92.13 31.87a38.45 38.45 0 0 1 12.25 13.49 38.25 38.25 0 1 1-67.45.33 38.45 38.45 0 0 1 11.82-13.4l-4-5.72a45.26 45.26 0 1 0 51.33-.5l-3.92 5.8z"/><path class="cls-2" d="M141.23 97.63v33.08A34.35 34.35 0 0 1 72.55 132h5.85v-8.3h-5.88V115h-7v8.75h-5.87V132h5.91a41.35 41.35 0 0 0 82.68-1.26V97.63z"/><circle class="cls-4" cx="144.25" cy="97.07" r="13.25"/><path class="cls-3" d="M141.23 93v33.08a34.35 34.35 0 1 1-68.71 0v-15.76h-7v15.75a41.35 41.35 0 1 0 82.71 0V93h-7z"/><circle class="cls-2" cx="144.25" cy="99.29" r="24.89"/><path class="cls-5" d="M59.65 97.83H78.4v25.87H59.65z"/><circle class="cls-6" cx="144.25" cy="92.99" r="24.89"/><circle class="cls-7" cx="144.25" cy="101.26" r="13.25"/><circle class="cls-4" cx="144.25" cy="92.99" r="13.25"/><path class="cls-7" d="M38.18 43.53a38.47 38.47 0 0 1 10.57-11.24l-4-5.72a45.47 45.47 0 0 0-8.43 7.71 10.54 10.54 0 0 0 1.89 9.25z"/><circle class="cls-6" cx="46.59" cy="28.97" r="10.66"/><path class="cls-7" d="M72.52 126.07v-2.37h-7v2.37a41.58 41.58 0 0 0 .43 5.9H73a34.61 34.61 0 0 1-.48-5.9zm30.42-83.13a10.66 10.66 0 0 0 .95-10.15 45.46 45.46 0 0 0-6.89-6 10.6 10.6 0 0 0-1.22-.27l-3.64 5.39a38.47 38.47 0 0 1 10.8 11.03z"/><circle class="cls-6" cx="94.09" cy="28.97" r="10.66"/><path class="cls-8" d="M0 90a90 90 0 1 1 90 90A90 90 0 0 1 0 90"/><path class="cls-9" transform="rotate(90 75.32 90)" d="M35.39 82.81h79.86v14.37H35.39z"/><path class="cls-9" transform="rotate(90 104.68 90)" d="M64.75 82.81h79.86v14.37H64.75z"/></g></g></svg>