<svg width="97" height="25" viewBox="0 0 97 25" xmlns="http://www.w3.org/2000/svg"><title>Group</title><g fill="none" fill-rule="evenodd"><path d="M0 3.73A3.01 3.01 0 0 1 3.001.727S30.858.643 30.936.735c.08.093.091 24.263 0 24.222C30.846 24.915 3 24.953 3 24.953a2.99 2.99 0 0 1-3-2.99V3.73z" fill="#1AAB98"/><path d="M97 3.73A3.01 3.01 0 0 0 93.999.727S66.142.643 66.064.735c-.08.093-.091 24.263 0 24.222.09-.042 27.936-.004 27.936-.004a2.99 2.99 0 0 0 3-2.99V3.73zM33 .735h31V25H33z" fill="#CCC2BA"/></g></svg>