<svg xmlns="http://www.w3.org/2000/svg" viewBox="0 0 180 180"><defs><style>.cls-1{fill:#ededed}.cls-2,.cls-5{opacity:.3}.cls-3,.cls-4,.cls-5{fill:#1d1d1b}.cls-4,.cls-9{opacity:.2}.cls-6{fill:#b1b1b1}.cls-7{fill:#00ab99}.cls-8{fill:#f7d600}</style></defs><title>object-matching-icon</title><g id="Layer_2" data-name="Layer 2"><g id="Layer_6" data-name="Layer 6"><path class="cls-1" d="M0 90a90 90 0 1 1 90 90A90 90 0 0 1 0 90"/><g class="cls-2"><path class="cls-3" d="M84.77 91.53h-22.3v-22.3H41.64v22.3h-22.3v20.83h22.3v22.29h20.83v-22.29h22.3V91.53z"/><path class="cls-3" d="M84.77 91.53h-22.3v-22.3H41.64v22.3h-22.3v20.83h22.3v22.29h20.83v-22.29h22.3V91.53z"/><path class="cls-4" d="M48.18 75.77h7.74v6.79h-7.74zm-22.3 22.3h15.75v6.79H25.88zm36.59 0h15.75v6.79H62.47z"/></g><path class="cls-5" d="M141.49 69.35h-27.1L95.23 88.51v27.1l19.16 19.17h27.1l19.17-19.17v-27.1l-19.17-19.16z"/><path class="cls-6" d="M84.77 82.26h-22.3V59.97H41.64v22.29h-22.3v20.83h22.3v22.3h20.83v-22.3h22.3V82.26z"/><path class="cls-7" d="M84.77 82.26h-22.3V59.97H41.64v22.29h-22.3v20.83h22.3v22.3h20.83v-22.3h22.3V82.26z"/><path class="cls-8" d="M141.49 60.09h-27.1L95.23 79.25v27.1l19.16 19.16h27.1l19.17-19.16v-27.1l-19.17-19.16z"/><g class="cls-9"><path class="cls-3" d="M45.63 63.97h12.84v4H45.63z"/></g><g class="cls-9"><path class="cls-3" d="M23.33 86.16h18.32v4H23.33z"/></g><g class="cls-9"><path class="cls-3" d="M62.5 86.16h18.32v4H62.5z"/></g><g class="cls-9"><path class="cls-3" d="M141.49 67.97h-27.1L99.23 83.13v-2.22l16.82-16.82h23.79l16.82 16.82v2.22l-15.17-15.16z"/></g></g></g></svg>