<svg xmlns="http://www.w3.org/2000/svg" viewBox="0 0 180 180"><defs><style>.cls-1{fill:#ededed}.cls-2{opacity:.3}.cls-3,.cls-4{fill:#1d1d1b}.cls-4{opacity:.2}.cls-5{fill:#00ac98}.cls-6{fill:#fff}.cls-7{fill:#f6d400}</style></defs><title>odd-one-out-icon</title><g id="Layer_2" data-name="Layer 2"><g id="Layer_6" data-name="Layer 6"><path class="cls-1" d="M0 90a90 90 0 1 1 90 90A90 90 0 0 1 0 90"/><g class="cls-2"><path class="cls-3" d="M91.95 170.17l19.06-19.34-19.06-52.4-19.06 52.4 19.06 19.34z"/><path class="cls-3" d="M142.67 149.16l-.19-27.16-50.53-23.57 23.57 50.53 27.15.2z"/><path class="cls-3" d="M41.22 149.16l27.15-.2 23.58-50.53L41.41 122l-.19 27.16zm0-101.46l.19 27.16 50.54 23.57L68.37 47.9l-27.15-.2zm101.45 0l-27.15.2-23.57 50.53 50.53-23.57.19-27.16zM20.21 98.43l19.34 19.06 52.4-19.06-52.4-19.06-19.34 19.06z"/><path class="cls-3" d="M163.69 98.43l-19.34-19.06-52.4 19.06 52.4 19.06 19.34-19.06z"/><path class="cls-3" d="M91.95 26.69L72.89 46.03l19.06 52.4 19.06-52.4-19.06-19.34z"/><path class="cls-4" d="M81.2 128a26.54 26.54 0 0 0 21.52.05L91.95 98.43zm10.75-29.57l13.23 28.35a26.59 26.59 0 0 0 12.52-16.34zm-13.2 28.3l13.2-28.3-25.64 12a26.59 26.59 0 0 0 12.44 16.3z"/><circle class="cls-3" cx="91.98" cy="98.46" r="26.54"/><path class="cls-3" d="M75.29 81.98h33.38v33.38H75.29z"/><path class="cls-4" transform="rotate(-90 91.98 86.99)" d="M90.31 73.64h3.34v26.7h-3.34z"/><path class="cls-4" transform="rotate(-90 91.98 117.03)" d="M90.31 100.34h3.34v33.38h-3.34z"/></g><path class="cls-5" d="M91.95 161.99l19.06-19.33-19.06-52.4-19.06 52.4 19.06 19.33z"/><path class="cls-5" d="M142.67 140.98l-.19-27.15-50.53-23.57 23.57 50.53 27.15.19z"/><path class="cls-5" d="M41.22 140.98l27.15-.19 23.58-50.53-50.54 23.57-.19 27.15z"/><path class="cls-5" d="M41.22 39.53l.19 27.15 50.54 23.58-23.58-50.54-27.15-.19zm101.45 0l-27.15.19-23.57 50.54 50.53-23.58.19-27.15zM20.21 90.26l19.34 19.06 52.4-19.06-52.4-19.07-19.34 19.07zm143.48 0l-19.34-19.07-52.4 19.07 52.4 19.06 19.34-19.06z"/><path class="cls-5" d="M91.95 18.52L72.89 37.85l19.06 52.41 19.06-52.41-19.06-19.33z"/><path class="cls-4" d="M81.2 119.8a26.54 26.54 0 0 0 21.52.05L91.95 90.26zm10.75-29.54l13.23 28.35a26.59 26.59 0 0 0 12.52-16.34zm-13.2 28.29l13.2-28.3-25.64 12a26.59 26.59 0 0 0 12.44 16.3z"/><circle class="cls-6" cx="91.98" cy="90.28" r="26.54"/><path class="cls-7" d="M75.29 73.81h33.38v33.38H75.29z"/><path class="cls-4" d="M75.29 110.92l.51.4h32.36l.51-.4v-3.73H75.29zm4.13-32.98h25.12v4.13H79.42z"/></g></g></svg>