<svg xmlns="http://www.w3.org/2000/svg" viewBox="0 0 180 180"><defs><style>.cls-1{fill:#f0f0f0}.cls-2{fill:#fff}.cls-3{fill:#4c4c4c}.cls-4{fill:#00ab99}.cls-5,.cls-6,.cls-9{fill:#1d1d1b}.cls-5{opacity:.3}.cls-6,.cls-8{opacity:.2}.cls-7{fill:#f7d600}</style></defs><title>paired-associates-icon</title><g id="Layer_2" data-name="Layer 2"><g id="Layer_6" data-name="Layer 6"><path class="cls-1" d="M0 90a90 90 0 1 1 90 90A90 90 0 0 1 0 90"/><path class="cls-2" d="M33.84 34.65h50.39v50.39H33.84zm61.93 61.47h50.39v50.39H95.77z"/><circle class="cls-3" cx="54.3" cy="125.5" r="3.21"/><path class="cls-4" d="M33.84 96.12h50.39v50.39H33.84z"/><path class="cls-5" d="M33.84 85.04h50.39v8.12H33.84zm0 61.48h50.39v8.12H33.84zm61.93 0h50.39v8.12H95.77z"/><path class="cls-6" d="M37.97 100.26H80.1v4.13H37.97z"/><path class="cls-7" d="M95.77 35.2h50.39v50.39H95.77z"/><path class="cls-5" d="M95.77 85.59h50.39v8.12H95.77z"/><path class="cls-6" d="M99.9 39.33h42.13v4.13H99.9zM67 122.08a8 8 0 1 0-15.88 0 8 8 0 1 0 5.59 14.15L53.78 144h10.51l-2.91-7.77A8 8 0 1 0 67 122.08z"/><path class="cls-2" d="M67 117.94a8 8 0 1 0-15.88 0 8 8 0 1 0 5.59 14.15l-2.91 7.77h10.49l-2.91-7.77A8 8 0 1 0 67 117.94z"/><g class="cls-8"><path class="cls-9" d="M59 115.07a4.92 4.92 0 0 1 4.72 3.56l.14-1.1a4.86 4.86 0 0 0-4.32-5.53h-1.05a4.86 4.86 0 0 0-4.36 5.54l.14 1.09a4.92 4.92 0 0 1 4.73-3.56zm4.7 7.14l-.23 1.73 3.33.19a4.91 4.91 0 0 1 4.38 3.35A4.9 4.9 0 0 0 66.8 121l-2.93-.17-.18 1.34zm-12.43 1.93l3.33-.19-.41-3.08-2.93.17a4.9 4.9 0 0 0-4.38 6.45 4.91 4.91 0 0 1 4.39-3.35z"/></g></g></g></svg>