<svg width="160" height="24" viewBox="0 0 160 24" xmlns="http://www.w3.org/2000/svg" xmlns:xlink="http://www.w3.org/1999/xlink"><title>Page 1</title><defs><path id="a" d="M159.16 0H0v24h159.16V0z"/></defs><g fill="none" fill-rule="evenodd"><mask id="b" fill="#fff"><use xlink:href="#a"/></mask><path d="M9.45.475H0v23.129h5.089v-6.94h3.865c5.188 0 9.35-2.774 9.35-8.127V8.47c0-4.725-3.336-7.996-8.854-7.996zm3.7 8.16c0 1.984-1.486 3.504-4.03 3.504H5.089V5.068h3.93c2.546 0 4.132 1.222 4.132 3.502v.066zm28.218-.461v-.066c0-2.181-.694-3.998-1.983-5.287-1.52-1.52-3.8-2.346-6.74-2.346H22.072v23.129h5.088v-7.401h3.998l4.956 7.4h5.948l-5.65-8.26c2.94-1.09 4.956-3.436 4.956-7.17zm-5.154.264c0 1.949-1.421 3.27-3.9 3.27H27.16v-6.64h5.055c2.479 0 3.999 1.123 3.999 3.304v.066zM71.402.475h19.164v4.692h-7.037v18.437h-5.09V5.167h-7.037V.475zm28.779 18.602h12.556v4.527H95.126V.474h17.446v4.528H100.18v4.692h10.904v4.526H100.18v4.857zm34.165-2.478l3.238 3.27c-2.38 2.545-5.022 4.13-9.483 4.13-6.806 0-11.861-5.252-11.861-11.893v-.067c0-6.575 4.956-11.96 12.06-11.96 4.36 0 6.97 1.453 9.119 3.568L134.18 7.38c-1.784-1.62-3.602-2.611-5.914-2.611-3.9 0-6.708 3.238-6.708 7.203v.066c0 3.965 2.743 7.269 6.708 7.269 2.643 0 4.262-1.057 6.079-2.71zM159.16.475v4.692h-7.038v18.437h-5.088V5.167h-7.038V.475h19.164zm-89.641 11.42v.066c0 5.979-4.29 10.973-10.433 11.83a1.685 1.685 0 0 1-.135-.577c0-.615.532-3.08 1.148-3.332.617-.253 3.073.153 3.67-.561.728-1.01.046-1.296.25-1.82.158-.4.534-.085.534-.743-.01-.181-.403-.377-.403-.377s.57.027.57-.394c0-.42-.475-.868 0-1.176.477-.308 1.033-.28 1.033-1.121 0-.271-1.592-1.331-1.592-2.493.003-.686.616-3.617-1.317-5.826-1.932-2.21-5.798-1.933-5.798-1.933s-6.773-.208-7.451 6.386c-.434 4.218 2.66 6.612 2.66 6.612.728 2.102.046 4.526-.686 6.239-4.05-1.948-6.633-5.981-6.633-10.648v-.066C44.936 5.386 50.124 0 57.26 0s12.258 5.32 12.258 11.895z" fill="#FEFEFE" mask="url(#b)"/></g></svg>