<svg xmlns="http://www.w3.org/2000/svg" viewBox="0 0 180 180"><path d="M0 90C0 40.3 40.3 0 90 0s90 40.3 90 90-40.3 90-90 90S0 139.7 0 90" fill="#ededed"/><path d="M110.2 26.6C80.3 26.6 56 50.9 56 80.8c0 13.5 4.9 25.8 13.1 35.3l-1.9 1.9-.7.7H51.2v7h8.4l-3.3 3.3H40.9v7h8.4l-3.3 3.3H30.7v7h10.8V157h7v-15.4l3.3-3.3v8.4h7v-15.4l3.3-3.3v8.4h7V121l.4-.4 2-2C81.3 128.7 95 135 110.2 135c29.9 0 54.2-24.3 54.2-54.2 0-29.9-24.2-54.2-54.2-54.2z" opacity=".2" fill="#1d1d1b"/><path d="M56 72c0-29.9 24.3-54.2 54.2-54.2 29.9 0 54.2 24.3 54.2 54.2 0 29.9-24.3 54.2-54.2 54.2C80.3 126.2 56 102 56 72" fill="#00ac98"/><path d="M74.4 72.2c0-19.8 16-35.8 35.8-35.8s35.8 16 35.8 35.8c0 19.8-16 35.8-35.8 35.8S74.4 92 74.4 72.2" fill="#fff"/><path d="M89.6 73.9c0-11.4 9.2-20.6 20.6-20.6s20.6 9.2 20.6 20.6c0 11.4-9.2 20.6-20.6 20.6s-20.6-9.2-20.6-20.6" fill="#00ac98"/><path d="M102 73.9c0-4.5 3.7-8.2 8.2-8.2 4.5 0 8.2 3.7 8.2 8.2 0 4.5-3.7 8.2-8.2 8.2-4.5 0-8.2-3.7-8.2-8.2" fill="#f7d600"/><path fill="#9e9e9e" d="M73 111.4l-5.8 5.8 5.8-5.8"/><path d="M108.9 76.3l-4.4 4.4-.9.9-7.9 7.9-2.1 2.1-7.7 7.7-3.8 3.9-8.6 8.6c.8.8 1.7 1.5 2.6 2.2l8.3-8.3 4.2-4.2 7.3-7.3 2.5-2.5c-.7-.5-1.4-1.1-2.1-1.7.7.6 1.3 1.2 2.1 1.7l7.9-7.9 1.3-1.3 3.8-3.8-2.5-2.4zm16.7-22.5l-.4-3.4L79 55.3c-.3.5-.6 1.1-.9 1.6.3-.6.6-1.1.9-1.6l-13.4 1.4-3.5-2.7-2-1.6-6.4-5.1-4.4 5.4 6.5 5.3-4.6.5-3.6-2.9-8.4-6.8-4.4 5.4 6.5 5.3-4.6.5-3.4-3-8.4-6.8-4.4 5.4 8.4 6.8-6.8 8.4 5.4 4.4 6.8-8.4 2.9-3.6 4.6-.5-5.3 6.5 5.4 4.4 6.8-8.4 2.9-3.6 4.6-.5-5.3 6.5 5.1 4.1v-1.1 1.1l.3.3 6.8-8.4L66 60l11.3-1 23.3-2.5c2.9-1.5 6.2-2.4 9.6-2.4-3.5 0-6.8.9-9.6 2.4l15.2-1.6 9.8-1.1z" opacity=".2" fill="#1d1d1b"/><path fill="#545454" d="M36.5 65.9l5.5 4.4 6.7-8.4 2.9-3.6 4.6-.4-5.3 6.5 5.5 4.4 6.7-8.4 2.9-3.6 59.6-6.4-.3-3.4-59.6 6.4-3.6-2.9-8.4-6.7-4.4 5.4 6.5 5.3-4.5.5-3.6-2.9-8.4-6.8-4.4 5.4 6.5 5.3-4.6.5-3.5-2.9-8.4-6.8-4.4 5.5 8.4 6.8-6.8 8.4 5.4 4.4 6.8-8.4 2.9-3.6 4.6-.5zm15.2 76.7h7v-15.4L62 124v8.4h7V117l42.4-42.4-2.5-2.4-42.3 42.4H51.2v7h8.4l-3.3 3.2H40.9v7h8.4l-3.2 3.3H30.7v7h10.8v10.8h7v-15.4l3.2-3.3z"/></svg>