<svg xmlns="http://www.w3.org/2000/svg" viewBox="0 0 180 180"><path d="M0 90C0 40.3 40.3 0 90 0s90 40.3 90 90-40.3 90-90 90S0 139.7 0 90" fill="#ededed"/><path d="M57.5 136.3c0-17.9 14.5-32.4 32.4-32.4s32.4 14.5 32.4 32.4-14.5 32.4-32.4 32.4-32.4-14.5-32.4-32.4" opacity=".2" fill="#1d1d1b"/><path opacity=".2" fill="#1d1d1b" d="M32.3 111.5h115.4v8.3H32.3zm57.6-93.8c-6.7 0-14.1 7.1-12.2 15.9h.3c1.1-5.6 6-9.8 11.9-9.8s10.8 4.2 11.9 9.8h.2c3-8-5.4-15.9-12.1-15.9"/><path d="M89.9 14.2c-9.7 0-17.6 7.9-17.6 17.6s7.9 17.6 17.6 17.6c9.7 0 17.6-7.9 17.6-17.6s-7.9-17.6-17.6-17.6m0 29.8c-6.7 0-12.2-5.4-12.2-12.2 0-6.7 5.4-12.2 12.2-12.2 6.7 0 12.2 5.4 12.2 12.2C102 38.6 96.6 44 89.9 44" fill="#545454"/><path fill="#fff" d="M32.3 31.8h115.4v79.6H32.3z"/><path opacity=".2" fill="#1d1d1b" d="M39.9 41.6H68V71H39.9z"/><path fill="#ededed" d="M39.9 39.5H68v27.4H39.9z"/><path opacity=".2" fill="#1d1d1b" d="M75.8 41.6V71h28.1v-4.1H75.8z"/><path fill="#f7d600" d="M75.8 39.5h28.1v27.4H75.8z"/><path opacity=".2" fill="#1d1d1b" d="M111.8 41.6V71h28.1v-4.1h-28.1zM39.9 75.9v29.4h27c.4-.4.8-.7 1.1-1.1v-3H39.9V75.9z"/><path fill="#ededed" d="M75.8 73.8h28.1v27.4H75.8z"/><path opacity=".2" fill="#1d1d1b" d="M111.8 77.3h28.1v28.1h-28.1z"/><path fill="#ededed" d="M111.8 73.8h28.1v27.4h-28.1z"/><path d="M57.5 128.1c0-17.9 14.5-32.4 32.4-32.4s32.4 14.5 32.4 32.4-14.5 32.4-32.4 32.4-32.4-14.5-32.4-32.4" fill="#00ac98"/><path fill="#fff" d="M92.5 125.4v-16h-5.2v21.3h16.5v-5.3z"/><path opacity=".2" fill="#1d1d1b" d="M87.3 130.7h16.5v4.1H87.3z"/><path fill="#545454" d="M96.7 56.7l-3.4-3.5 3.4-3.5-3.3-3.3-3.5 3.4-3.5-3.4-3.4 3.3 3.5 3.5-3.5 3.5 3.4 3.4 3.5-3.5 3.5 3.5z"/><path fill="#f7d600" d="M111.8 39.5h28.1v27.4h-28.1z"/><path fill="#545454" d="M132.7 56.7l-3.4-3.5 3.4-3.5-3.4-3.3-3.4 3.4-3.5-3.4-3.4 3.3 3.5 3.5-3.5 3.5 3.4 3.4 3.5-3.5 3.4 3.5z"/><path fill="#f7d600" d="M39.9 73.7H68v27.4H39.9z"/><path fill="#545454" d="M60.8 90.9l-3.5-3.4 3.5-3.5-3.4-3.4-3.5 3.5-3.4-3.5-3.4 3.4 3.4 3.5-3.4 3.4 3.4 3.4 3.4-3.5 3.5 3.5z"/><path d="M90 105.7c-9.7 0-18.4 4.3-24.4 11.1 1.3-2.9 3.1-5.4 5.4-7.7 4.9-4.9 11.5-7.8 18.9-7.8 7.4 0 14.1 3 18.9 7.8 2.1 2.1 3.8 4.5 5.2 7.2-6-6.5-14.5-10.6-24-10.6z" opacity=".2" fill="#1d1d1b"/></svg>