<svg xmlns="http://www.w3.org/2000/svg" viewBox="0 0 180 180"><defs><style>.cls-1{fill:#ededed}.cls-2,.cls-5{fill:#1d1d1b}.cls-2{opacity:.3}.cls-3{fill:#4c4c4c}.cls-4{fill:#f7d600}.cls-5{opacity:.2}</style></defs><title>tower-of-london-icon</title><g id="Layer_2" data-name="Layer 2"><g id="Layer_6" data-name="Layer 6"><path class="cls-1" d="M0 90a90 90 0 1 1 90 90A90 90 0 0 1 0 90"/><circle class="cls-2" cx="89.95" cy="41.44" r="2.79"/><circle class="cls-3" cx="89.95" cy="37.31" r="2.79"/><path class="cls-2" d="M119.23 111.21L119 111l-.11-.09-29.48-25.36L60 110.82l-.32.27-.12.1a18.9 18.9 0 0 0 24.26 29l-6.77 18.09h24.68L95 140.21a18.9 18.9 0 0 0 24.25-29z"/><path class="cls-4" d="M119.23 99.37l-.27-.24-.11-.09L89.41 73.7 60 99l-.32.27-.12.1a18.9 18.9 0 0 0 24.26 29l-6.77 18.09h24.68L95 128.37a18.9 18.9 0 0 0 24.25-29z"/><path class="cls-5" d="M62.2 102.39l.7-.61L89.41 79l25.42 21.86 1.78 1.54a14.91 14.91 0 0 1 5.1 10.17 19.12 19.12 0 0 0-2.48-2.61l-.27-.24-.11-.09-29.44-25.34L60 109.57l-.32.27-.12.1a19.14 19.14 0 0 0-2.49 2.61 14.91 14.91 0 0 1 5.13-10.16z"/></g></g></svg>