<svg xmlns="http://www.w3.org/2000/svg" viewBox="0 0 180 180"><defs><style>.cls-1{isolation:isolate}.cls-2{fill:#f0f0f0}.cls-3{fill:#ccc}.cls-4,.cls-6{fill:#1d1d1b}.cls-4{opacity:.3}.cls-5{fill:#fff}.cls-6{opacity:.2}.cls-7{fill:#00ac98;mix-blend-mode:multiply}</style></defs><title>verbal-reasoning-completed-icon</title><g class="cls-1"><g id="Layer_2" data-name="Layer 2"><g id="Layer_6" data-name="Layer 6"><path class="cls-2" d="M0 90a90 90 0 1 1 90 90A90 90 0 0 1 0 90"/><path class="cls-3" d="M33.98 34.65h112.05V146.7H33.98z"/><circle class="cls-4" cx="90.08" cy="94.81" r="46.27"/><path class="cls-4" d="M33.98 146.7h112.05v8.12H33.98z"/><circle class="cls-5" cx="90.08" cy="90.68" r="46.27"/><path class="cls-3" d="M60.09 60.68h59.98v59.98H60.09z"/><path class="cls-6" d="M64.22 64.82h51.72v4.13H64.22z"/><path class="cls-4" d="M60.09 120.67h59.98v4.13H60.09z"/><path class="cls-7" d="M0 90a90 90 0 1 1 90 90A90 90 0 0 1 0 90"/></g></g></g></svg>