<?xml version="1.0" encoding="utf-8"?>
<!-- Generator: Adobe Illustrator 21.1.0, SVG Export Plug-In . SVG Version: 6.00 Build 0)  -->
<svg version="1.1" id="Layer_6" xmlns="http://www.w3.org/2000/svg" xmlns:xlink="http://www.w3.org/1999/xlink" x="0px" y="0px"
	 viewBox="0 0 180 180" style="enable-background:new 0 0 180 180;" xml:space="preserve">
<g>
	<path style="fill:#EDEDED;" d="M0,90C0,40.3,40.3,0,90,0c49.7,0,90,40.3,90,90c0,49.7-40.3,90-90,90C40.3,180,0,139.7,0,90"/>
	<g>
		<path style="opacity:0.2;fill:#1D1D1B;" d="M35.4,161.5c1.2,0.9,2.4,1.8,3.7,2.7C37.8,163.3,36.6,162.4,35.4,161.5L35.4,161.5z"/>
		<path style="opacity:0.2;fill:#1D1D1B;" d="M176.2,115.7c0.2-0.6,0.4-1.3,0.5-1.9c0.2-0.6,0.3-1.2,0.5-1.8
			c0.2-0.6,0.3-1.3,0.5-1.9c0.1-0.6,0.3-1.3,0.4-1.9c0.1-0.6,0.3-1.2,0.4-1.9c0.1-0.7,0.2-1.4,0.4-2.1c0.1-0.6,0.2-1.2,0.3-1.8
			c0.1-0.8,0.2-1.5,0.3-2.3c0.1-0.5,0.1-1.1,0.2-1.6c0.1-0.9,0.1-1.7,0.2-2.6c0-0.3,0.1-0.7,0.1-1c0,0,0-0.1,0-0.1
			c0.1-1.6,0.1-3.1,0.1-4.7c0-1.2,0-2.4-0.1-3.6h-0.6c-4.3-33.9-33.1-60.1-68.2-60.1C77.8,26.3,50,50,43.7,81.6h-2.1h-2.2
			c-9.6,0-17.4-11.1-17.4-1.5v3.4c-1.8,0-3.3,1.5-3.3,3.3c0,0-1.1,9.8,5.4,9.8v8.7c0,4.8,3.9,8.7,8.7,8.7v8.7h15.3
			c4.5,10.3,11.5,19.3,20.2,26.3l-20.6,20.6c1.9,1,3.8,2,5.8,2.8l19.8-19.9c10.8,7.1,23.8,11.3,37.8,11.3
			c26.8,0,50.1-15.4,61.4-37.8c0.8-1.9,1.6-3.9,2.3-5.9h0c0.1-0.2,0.2-0.5,0.2-0.7c0.2-0.6,0.4-1.2,0.6-1.8
			C175.9,116.9,176.1,116.3,176.2,115.7z"/>
	</g>
	<path style="fill:#F7D600;" d="M30.6,157.6c5.2,4.6,11,8.6,17.2,11.9l28-28L61.2,127L30.6,157.6z"/>
	<path style="opacity:0.2;fill:#1D1D1B;" d="M54.4,133.8c3.9,5.7,8.6,10.7,14,15l7.3-7.3L61.2,127L54.4,133.8z"/>
	<path style="fill:#FFFFFF;" d="M64.4,82.6c0-1.8-1.5-3.3-3.3-3.3V75v-2.2c0-9.6-7.8,4.6-17.4,4.6h-2.2h-2.2
		c-9.6,0-17.4-11.1-17.4-1.5v-1v4.3c-1.8,0-3.3,1.5-3.3,3.3c0,0-1.1,9.8,5.4,9.8v8.7c0,4.8,3.9,8.7,8.7,8.7v8.7h17.5v-8.7h-0.1
		c4.8,0,8.7-3.9,8.7-8.7v-8.7c1.3,0,2.2-0.4,3-1C65.1,88.9,64.4,82.6,64.4,82.6"/>
	<path style="opacity:0.2;fill:#1D1D1B;" d="M61.1,79.3V75v-2.2c0-9.3-7.3,3.7-16.5,4.6C43.2,83,42.4,88.9,42.4,95
		c0,8.2,1.5,16.1,4.1,23.5h3.8v-8.7h-0.1c4.8,0,8.7-3.9,8.7-8.7v-8.7c1.3,0,2.2-0.4,3-1c3.1-2.5,2.4-8.8,2.4-8.8
		C64.4,80.8,62.9,79.3,61.1,79.3z"/>
	<path style="fill:#00AC98;" d="M47.1,73.1c0,0,2.7,14.6,14.2,14.6l-0.1-14.6c0,0-0.9-8.9-7.4-13.3l-8.2,10.5L47.1,73.1z"/>
	<path style="opacity:0.2;fill:#1D1D1B;" d="M22,87.6v-8.7c0-10.8,8.9-19.6,19.7-19.6c5,0,9.5,1.7,13.1,4.5l0,0
		c0,0-4.1,28.2-32.9,28.2V87.6z"/>
	<path style="fill:#00AC98;" d="M22,83.6v-8.7c0-10.8,8.9-19.6,19.7-19.6c5,0,9.5,1.7,13.1,4.5l0,0c0,0-4.1,28.2-32.9,28.2V83.6z"/>
	<path style="fill:#FFFFFF;" d="M111.1,147.5c-33.8,0-61.2-27.4-61.2-61.2s27.4-61.2,61.2-61.2c33.8,0,61.2,27.4,61.2,61.2
		S144.9,147.5,111.1,147.5"/>
	<path style="fill:#545454;" d="M111.1,17.6c-38,0-68.7,30.8-68.7,68.7c0,38,30.8,68.7,68.7,68.7c38,0,68.7-30.8,68.7-68.7
		C179.9,48.4,149.1,17.6,111.1,17.6 M111.1,147.5c-33.8,0-61.2-27.4-61.2-61.2s27.4-61.2,61.2-61.2c33.8,0,61.2,27.4,61.2,61.2
		S144.9,147.5,111.1,147.5"/>
	<path style="opacity:0.2;fill:#1D1D1B;" d="M104.4,122.6H85.7v8.1h18.7v9.5H123v-8.3h-18.7V122.6z M141.7,122.6H123l0,8.1h18.7
		V122.6z"/>
	<polygon style="fill:#00AC98;" points="85.7,88.4 85.7,122.6 109.2,122.6 95.6,83.2 	"/>
	<polygon style="fill:#00AC98;" points="141.7,83.4 141.7,122.6 118.3,122.6 131.8,83.2 140.3,83.2 	"/>
	<path style="fill:#EDEDED;" d="M114.4,41.7l0,1.7l-0.6-1.7l-21.9,17v42.1c0,13.8,12.4,21.8,12.4,21.8v9.3H123v-9.3
		c0,0,12.4-8,12.4-21.8V63.6C132.7,46.1,124.9,41.7,114.4,41.7"/>
	<path style="fill:#D1D1D1;" d="M102.8,50.3c-10,4.3-17.1,14.2-17.1,25.7v12.3l6.2-3.2V71.4v-6.2v-6.4L102.8,50.3z M129.7,48.1
		l0.2,0.3l0.2-0.3C130,48.1,129.8,48.1,129.7,48.1"/>
	<polygon style="fill:#D1D1D1;" points="132.5,48.1 132.5,48.1 132.5,48.1 	"/>
	<path style="opacity:0.2;fill:#1D1D1B;" d="M141.7,95l-0.1-20.9c0,0-1.1-11.2-9-17.7c0,0,0,0,0,0l-0.1,0c0,0-0.1-0.1-0.1-0.1
		c-0.4-0.4-0.9-0.7-1.4-1l0,0c-4.8-3.3-10.8-5.3-17.2-5.3c-15.5,0-28.1,12.5-28.1,28v12.4v6.2c18.8,0,30.3-8.5,37.1-17.7
		C125.1,85.1,130.4,95,141.7,95z"/>
	<g>
		<defs>
			<path id="SVGID_1_" d="M50,86.4c0,33.8,27.4,61.2,61.2,61.2c33.8,0,61.2-27.4,61.2-61.2c0-33.8-27.4-61.2-61.2-61.2
				C77.3,25.2,50,52.6,50,86.4"/>
		</defs>
		<clipPath id="SVGID_2_">
			<use xlink:href="#SVGID_1_"  style="overflow:visible;"/>
		</clipPath>
		<path style="opacity:0.2;clip-path:url(#SVGID_2_);fill:#1D1D1B;" d="M76,105.1c0,6.8-5.6,13.4-12.4,13.4l0.1,3.1v5.5
			c0.2,0.3,0.5,0.6,0.7,0.9c6.5-0.4,11.6-5.8,11.6-12.4V105.1z M83.8,81.8c-0.3,2.6-1.4,8.9-3.5,10.5c-1.1,0.8-2.5,1.4-4.3,1.4v9.5
			c1.8,0,3.2-0.5,4.3-1.4C84.7,98.3,83.8,81.8,83.8,81.8C83.8,81.5,83.9,82.1,83.8,81.8"/>
		<path style="clip-path:url(#SVGID_2_);fill:#EDEDED;" d="M83.7,80.7c0-2.6-2.1-4.6-4.7-4.6v-6.2v-3.1c0-13.7-11.3,3.6-25,3.6
			l-2.9,3h-3.1c-13.7,0-24.8-15.8-24.8-2.1v-1.4v6.2c-2.6,0-4.6,2.1-4.6,4.6c0,0-1.5,13.9,7.8,13.9v12.4c0,6.8,5.6,12.4,12.4,12.4
			v12.4h24.9v-12.4h-0.1c6.8,0,12.4-5.6,12.4-12.4V94.7c1.8,0,3.2-0.5,4.3-1.4C84.7,89.8,83.7,80.7,83.7,80.7"/>
		<path style="clip-path:url(#SVGID_2_);fill:#ABABAB;" d="M63.4,48.1c-0.4,0.5-0.8,1.1-1.2,1.6c1.1,0.4,2.2,0.8,3.2,1.3l2.3-2.9
			C66.5,48.1,65,48.1,63.4,48.1"/>
		<path style="clip-path:url(#SVGID_2_);fill:#8F8F8C;" d="M62.2,49.7c-5.2,6.9-9,15-10.8,23.7h2.2c1.2-3.3,2.6-6.5,4.4-9.6
			l-1.1-1.9L65.4,51C64.3,50.5,63.3,50,62.2,49.7"/>
		<polygon style="clip-path:url(#SVGID_2_);fill:#ABABAB;" points="70.1,48.1 70.1,48.1 70.1,48.1 		"/>
		<path style="opacity:0.2;clip-path:url(#SVGID_2_);fill:#1D1D1B;" d="M79.3,94l-0.1-20.9c0,0-1.1-11.2-9-17.7c0,0,0,0,0,0l-0.1,0
			c0,0-0.1-0.1-0.1-0.1c-0.4-0.4-0.9-0.7-1.4-1l0,0C63.7,50.9,57.8,49,51.4,49c-15.5,0-28.1,12.5-28.1,28v12.4v6.2
			c18.8,0,30.3-8.5,37.1-17.7C62.6,84.1,67.9,94,79.3,94z"/>
		<path style="clip-path:url(#SVGID_2_);fill:#00AC98;" d="M59,65.9c0,0,3.8,20.9,20.2,20.9l-0.1-20.9c0,0-1.2-12.6-10.6-18.9
			L56.8,61.9L59,65.9z"/>
		<path style="clip-path:url(#SVGID_2_);fill:#00AC98;" d="M23.3,82.1V69.7c0-15.5,12.6-28,28.1-28c7.1,0,13.6,2.4,18.7,6.4l0.1,0
			c0,0-5.8,40.2-46.8,40.2V82.1z"/>
	</g>
	<path style="fill:#00AC98;" d="M121.5,65.9c0,0,3.8,20.9,20.2,20.9l-0.1-20.9c0,0-1.2-12.6-10.6-18.9l-11.8,14.9L121.5,65.9z"/>
	<path style="fill:#00AC98;" d="M85.7,82.1V69.7c0-15.5,12.6-28,28.1-28c7.1,0,13.6,2.4,18.7,6.4l0.1,0c0,0-5.8,40.2-46.8,40.2V82.1
		z"/>
	<path style="opacity:0.2;fill:#1D1D1B;" d="M111.1,25.2c25.6,0,47.5,15.7,56.6,38.1c-12.4-18-33.1-29.8-56.6-29.8
		c-23.5,0-44.2,11.8-56.6,29.8C63.6,40.9,85.5,25.2,111.1,25.2z"/>
</g>
</svg>
