<svg xmlns="http://www.w3.org/2000/svg" viewBox="0 0 180 180"><defs><style>.cls-1{fill:#f0f0f0;}.cls-2,.cls-5{opacity:0.3;}.cls-3,.cls-5,.cls-7{fill:#1d1d1b;}.cls-4{fill:#4c4c4c;}.cls-6{fill:#00ab99;}.cls-7{opacity:0.2;}.cls-8{fill:#f7d600;}</style></defs><title>balloons-icon</title><g id="Layer_2" data-name="Layer 2"><g id="Layer_6" data-name="Layer 6"><path class="cls-1" d="M0,90a90,90,0,1,1,90,90A90,90,0,0,1,0,90"/><g class="cls-2"><path class="cls-3" d="M51.26,142.32a36,36,0,1,0-36-36A36,36,0,0,0,51.26,142.32Z"/></g><path class="cls-4" d="M152.7,148.75a37.23,37.23,0,0,1-12.91,2.63A20.13,20.13,0,0,1,125.61,146c-3.58-3.3-6.15-7.88-8-12.9-3.63-10-4.24-21.79-4.24-28.45,0-2.46.08-4.22.12-4.94,0-.24,0-.36,0-.36v-3h-1v3c0,.1-.15,2.13-.15,5.36a102,102,0,0,0,2.07,20.92c1.73,8,4.83,16,10.45,21.16a21.15,21.15,0,0,0,14.86,5.63,38.23,38.23,0,0,0,13.28-2.7h0l0,0,.07,0,.23-.11.87-.41c.76-.34,1.85-.79,3.18-1.24.6-.21,1.26-.41,2-.61.36-.43.71-.87,1.06-1.31A37,37,0,0,0,152.7,148.75Z"/><path class="cls-4" d="M51.76,146.68h-1v3h0s0,.09,0,.28a74.2,74.2,0,0,1-2.88,19.61l.9.48c.51-1.67.93-3.34,1.28-4.95a76.28,76.28,0,0,0,1.69-15.14c0-.19,0-.29,0-.29Z"/><polygon class="cls-5" points="59.81 154.59 42.72 154.59 48.14 130.05 54.39 130.05 59.81 154.59"/><polygon class="cls-6" points="59.81 146.68 42.72 146.68 48.14 122.14 54.39 122.14 59.81 146.68"/><path class="cls-7" d="M43.85,141.55a36.16,36.16,0,0,0,14.82,0l-4.29-19.41H48.14Z"/><path class="cls-6" d="M51.26,134.41a36,36,0,1,0-36-36A36,36,0,0,0,51.26,134.41Z"/><g class="cls-2"><path class="cls-3" d="M113.6,92a36,36,0,1,0-36-36A36,36,0,0,0,113.6,92Z"/></g><polygon class="cls-5" points="122.15 104.27 105.06 104.27 110.48 79.73 116.72 79.73 122.15 104.27"/><polygon class="cls-8" points="122.15 96.36 105.06 96.36 110.48 71.83 116.72 71.83 122.15 96.36"/><path class="cls-7" d="M106.19,91.23a36.16,36.16,0,0,0,14.82,0l-4.29-19.41h-6.25Z"/><path class="cls-8" d="M113.6,84.09a36,36,0,1,0-36-36A36,36,0,0,0,113.6,84.09Z"/></g></g></svg>