<svg xmlns="http://www.w3.org/2000/svg" viewBox="0 0 180 180"><defs><style>.cls-1{fill:#ededed;}.cls-2,.cls-8{opacity:0.3;}.cls-3,.cls-6,.cls-8{fill:#1d1d1b;}.cls-4{fill:#00ac98;}.cls-5{fill:#f7d600;}.cls-6{opacity:0.2;}.cls-7{fill:#545454;}.cls-9{fill:#fff;}</style></defs><title>Asset 28</title><g id="Layer_2" data-name="Layer 2"><g id="Layer_6" data-name="Layer 6"><path class="cls-1" d="M0,90a90,90,0,1,1,90,90A90,90,0,0,1,0,90"/><g class="cls-2"><path class="cls-3" d="M72.49,36.88,70,25.48A76.34,76.34,0,0,0,28,54.39l9.86,6.28A64.71,64.71,0,0,1,72.49,36.88Z"/><path class="cls-3" d="M120.76,42.26,127,32.39A76.24,76.24,0,0,0,76.79,24l2.53,11.41A64.6,64.6,0,0,1,120.76,42.26Z"/><path class="cls-3" d="M133,36.07l-6.27,9.84a64.67,64.67,0,0,1,25.11,34L163,76.37A76.29,76.29,0,0,0,133,36.07Z"/><path class="cls-3" d="M58.35,156.07c-.44-.24-.85-.51-1.28-.76l-6.27,9.84c.62.37,1.23.75,1.87,1.1a76.59,76.59,0,0,0,93.23-14.58l-8.52-8A64.92,64.92,0,0,1,58.35,156.07Z"/><path class="cls-3" d="M27,115.21l-11.39,2.53a76.36,76.36,0,0,0,29.31,43.57l6.28-9.86A64.73,64.73,0,0,1,27,115.21Z"/><path class="cls-3" d="M33.27,67.77c.23-.41.48-.8.71-1.21L86.56,97.93l5.07-9-71.75-37-2.62,4.65,6.71,4c-.3.5-.6,1-.89,1.5a76.22,76.22,0,0,0-8.81,48.78l11.41-2.53A64.61,64.61,0,0,1,33.27,67.77Z"/></g><path class="cls-4" d="M72.58,27.46,70,16.07A76.33,76.33,0,0,0,28.1,45L38,51.25A64.71,64.71,0,0,1,72.58,27.46Z"/><path class="cls-4" d="M120.85,32.85,127.13,23a76.24,76.24,0,0,0-50.25-8.44l2.53,11.41A64.6,64.6,0,0,1,120.85,32.85Z"/><path class="cls-4" d="M151.94,70.46,163.06,67a76.29,76.29,0,0,0-30-40.31l-6.27,9.84A64.67,64.67,0,0,1,151.94,70.46Z"/><path class="cls-4" d="M52.75,156.84A76.59,76.59,0,0,0,146,142.26l-8.52-8a64.92,64.92,0,0,1-79,12.36c-.44-.24-.85-.51-1.28-.76l-6.27,9.84C51.51,156.11,52.12,156.49,52.75,156.84Z"/><path class="cls-4" d="M27.12,105.79l-11.39,2.53A76.36,76.36,0,0,0,45,151.89L51.32,142A64.73,64.73,0,0,1,27.12,105.79Z"/><path class="cls-5" d="M33.36,58.35c.24-.43.5-.84.75-1.26l-9.84-6.27c-.37.61-.74,1.22-1.09,1.85a76.22,76.22,0,0,0-8.81,48.78l11.41-2.53A64.61,64.61,0,0,1,33.36,58.35Z"/><path class="cls-6" d="M22.7,53.47c-.87,1.61-1.7,3.24-2.45,4.89l10.11,6q1.22-2.84,2.72-5.58Z"/><polygon class="cls-7" points="92.63 85.36 87.56 94.36 18.26 53.02 20.88 48.37 92.63 85.36"/><circle class="cls-8" cx="90" cy="99.38" r="11.07"/><circle class="cls-9" cx="90" cy="89.99" r="11.07"/></g></g></svg>