<svg xmlns="http://www.w3.org/2000/svg" viewBox="0 0 180 180"><defs><style>.cls-1{fill:#ededed;}.cls-2{fill:#f6d400;}.cls-3{fill:#4c4c4c;}.cls-4{fill:#00ab99;}.cls-5,.cls-6{fill:#1d1d1b;}.cls-5{opacity:0.3;}.cls-6{opacity:0.2;}</style></defs><title>crates-icon</title><g id="Layer_2" data-name="Layer 2"><g id="Layer_6" data-name="Layer 6"><path class="cls-1" d="M0,90a90,90,0,1,1,90,90A90,90,0,0,1,0,90"/><rect class="cls-2" x="95.77" y="96.12" width="50.39" height="50.39"/><circle class="cls-3" cx="121.38" cy="60.32" r="2.79"/><circle class="cls-3" cx="54.3" cy="125.5" r="3.21"/><polygon class="cls-4" points="33.84 34.65 33.84 85.04 33.84 146.51 84.23 146.51 84.23 85.04 146.16 85.04 146.16 34.65 33.84 34.65"/><rect class="cls-5" x="84.23" y="85.04" width="61.93" height="8.12"/><rect class="cls-5" x="33.84" y="146.52" width="50.39" height="8.12"/><rect class="cls-5" x="95.77" y="146.52" width="50.39" height="8.12"/><rect class="cls-6" x="37.97" y="38.78" width="104.05" height="4.13"/><rect class="cls-6" x="99.9" y="100.26" width="42.13" height="4.13"/></g></g></svg>