<svg xmlns="http://www.w3.org/2000/svg" viewBox="0 0 180 180"><defs><style>.cls-1{fill:#f0f0f0;}.cls-2{opacity:0.3;}.cls-3{fill:#1d1d1b;}.cls-4{fill:#575756;}</style></defs><title>digital-span-icon</title><g id="Layer_2" data-name="Layer 2"><g id="Layer_6" data-name="Layer 6"><path class="cls-1" d="M0,90a90,90,0,1,1,90,90A90,90,0,0,1,0,90"/><g class="cls-2"><path class="cls-3" d="M115.91,97.22a58.7,58.7,0,0,1-2,16.45,34.46,34.46,0,0,1-5.57,11.5,22.57,22.57,0,0,1-8.25,6.77,24,24,0,0,1-20.16,0,22.63,22.63,0,0,1-8.23-6.77,34.11,34.11,0,0,1-5.54-11.5,59.34,59.34,0,0,1-2-16.45,59.35,59.35,0,0,1,2-16.45,34.12,34.12,0,0,1,5.54-11.5,22.63,22.63,0,0,1,8.23-6.77,24,24,0,0,1,20.16,0,22.57,22.57,0,0,1,8.25,6.77,34.48,34.48,0,0,1,5.57,11.5A58.7,58.7,0,0,1,115.91,97.22Zm-5.11,0a58.17,58.17,0,0,0-1.69-15A31.6,31.6,0,0,0,104.59,72a17.64,17.64,0,0,0-6.64-5.8,18.25,18.25,0,0,0-16,0A17.9,17.9,0,0,0,75.33,72,31.24,31.24,0,0,0,70.79,82.2a58.18,58.18,0,0,0-1.69,15,58.11,58.11,0,0,0,1.69,15,31.25,31.25,0,0,0,4.55,10.17A17.66,17.66,0,0,0,82,128.21a18.48,18.48,0,0,0,16,0,17.41,17.41,0,0,0,6.64-5.77,31.61,31.61,0,0,0,4.52-10.17A58.11,58.11,0,0,0,110.8,97.22Z"/></g><path class="cls-4" d="M115.91,89.1a58.7,58.7,0,0,1-2,16.45,34.46,34.46,0,0,1-5.57,11.5,22.57,22.57,0,0,1-8.25,6.77,24,24,0,0,1-20.16,0,22.63,22.63,0,0,1-8.23-6.77,34.11,34.11,0,0,1-5.54-11.5,59.34,59.34,0,0,1-2-16.45,59.35,59.35,0,0,1,2-16.45,34.12,34.12,0,0,1,5.54-11.5,22.63,22.63,0,0,1,8.23-6.77,24,24,0,0,1,20.16,0,22.57,22.57,0,0,1,8.25,6.77,34.48,34.48,0,0,1,5.57,11.5A58.7,58.7,0,0,1,115.91,89.1Zm-5.11,0a58.17,58.17,0,0,0-1.69-15,31.6,31.6,0,0,0-4.52-10.19,17.64,17.64,0,0,0-6.64-5.8,18.25,18.25,0,0,0-16,0,17.9,17.9,0,0,0-6.64,5.8,31.24,31.24,0,0,0-4.55,10.19,58.18,58.18,0,0,0-1.69,15,58.11,58.11,0,0,0,1.69,15,31.25,31.25,0,0,0,4.55,10.17A17.66,17.66,0,0,0,82,120.09a18.48,18.48,0,0,0,16,0,17.41,17.41,0,0,0,6.64-5.77,31.61,31.61,0,0,0,4.52-10.17A58.11,58.11,0,0,0,110.8,89.1Z"/></g></g></svg>