<svg xmlns="http://www.w3.org/2000/svg" viewBox="0 0 180 180"><defs><style>.cls-1,.cls-6{fill:#ededed;}.cls-2,.cls-4{fill:#1d1d1b;}.cls-2{opacity:0.3;}.cls-3{fill:#ccc;}.cls-4{opacity:0.2;}.cls-5{fill:#fff;}.cls-6{opacity:0.5;}</style></defs><title>subsection-health-icon</title><g id="Layer_2" data-name="Layer 2"><g id="Layer_6" data-name="Layer 6"><path class="cls-1" d="M0,90a90,90,0,1,1,90,90A90,90,0,0,1,0,90"/><path class="cls-2" d="M128.9,109.45V104l2.2-2.55h-.05a34.77,34.77,0,0,0,8.39-22.77c0-18.76-14.47-34-32.32-34A31.5,31.5,0,0,0,83.55,55.48,31.5,31.5,0,0,0,60,44.71c-17.85,0-32.32,15.21-32.32,34A34.77,34.77,0,0,0,36,101.44H36l47.55,55h0l21.72-25.14H107v23.44H128.9V131.34h23.44V109.45Z"/><path class="cls-3" d="M139.44,68.7c0-18.76-14.47-34-32.32-34A31.5,31.5,0,0,0,83.55,45.51,31.5,31.5,0,0,0,60,34.74c-17.85,0-32.32,15.21-32.32,34A34.77,34.77,0,0,0,36,91.47H36l47.55,55h0l47.55-55h-.05A34.77,34.77,0,0,0,139.44,68.7Z"/><polygon class="cls-4" points="128.9 86.01 107.01 86.01 107.01 109.45 83.57 109.45 83.57 131.34 96.66 131.34 128.9 94.02 128.9 86.01"/><polygon class="cls-5" points="152.34 101.19 128.9 101.19 128.9 77.75 107.01 77.75 107.01 101.19 83.57 101.19 83.57 123.08 107.01 123.08 107.01 146.52 128.9 146.52 128.9 123.08 152.34 123.08 152.34 101.19"/><path class="cls-6" d="M0,90a90,90,0,1,1,90,90A90,90,0,0,1,0,90"/></g></g></svg>