<svg xmlns="http://www.w3.org/2000/svg" viewBox="0 0 180 180"><defs><style>.cls-1{fill:#f0f0f0;}.cls-2,.cls-6{fill:#1d1d1b;}.cls-2{opacity:0.2;}.cls-3{fill:#fff;}.cls-4{fill:#f7d600;}.cls-5{fill:#00ab99;}.cls-6{opacity:0.3;}.cls-7{fill:#4c4c4c;}.cls-8{fill:#545454;}</style></defs><title>loop-icon</title><g id="Layer_2" data-name="Layer 2"><g id="Layer_6" data-name="Layer 6"><path class="cls-1" d="M0,90a90,90,0,1,1,90,90A90,90,0,0,1,0,90"/><rect class="cls-2" x="50.51" y="130.09" width="79.01" height="4.13"/><rect class="cls-3" x="50.51" y="51.08" width="79.01" height="79.01"/><rect class="cls-4" x="50.51" y="30.99" width="79.01" height="9"/><rect class="cls-4" x="-4.57" y="86.08" width="79.01" height="9" transform="translate(-55.64 125.52) rotate(-90)"/><rect class="cls-5" x="105.59" y="86.08" width="79.01" height="9" transform="translate(54.51 235.68) rotate(-90)"/><rect class="cls-6" x="50.51" y="39.99" width="79.01" height="8.12"/><rect class="cls-6" x="30.44" y="130.09" width="9" height="8.12"/><rect class="cls-6" x="140.6" y="130.09" width="9" height="8.12"/><rect class="cls-5" x="50.51" y="141.17" width="79.01" height="9"/><rect class="cls-6" x="50.51" y="150.17" width="79.01" height="8.12"/><circle class="cls-6" cx="145.1" cy="149.81" r="2.79"/><circle class="cls-7" cx="145.1" cy="145.67" r="2.79"/><circle class="cls-6" cx="34.94" cy="39.99" r="4.5"/><circle class="cls-7" cx="34.94" cy="35.67" r="4.5"/><circle class="cls-6" cx="145.1" cy="39.99" r="4.5"/><circle class="cls-7" cx="145.1" cy="35.67" r="4.5"/><circle class="cls-6" cx="34.94" cy="149.99" r="4.5"/><circle class="cls-7" cx="34.94" cy="145.67" r="4.5"/><polygon class="cls-8" points="103.95 97.63 96.9 90.58 103.95 83.54 97.04 76.64 90 83.68 82.95 76.63 76.05 83.54 83.09 90.58 76.05 97.63 82.95 104.53 90 97.49 97.04 104.53 103.95 97.63"/></g></g></svg>