<?xml version="1.0" encoding="UTF-8"?>
<svg width="97px" height="25px" viewBox="0 0 97 25" version="1.1" xmlns="http://www.w3.org/2000/svg" xmlns:xlink="http://www.w3.org/1999/xlink">
    <!-- Generator: Sketch 43.2 (39069) - http://www.bohemiancoding.com/sketch -->
    <title>Group</title>
    <desc>Created with Sketch.</desc>
    <defs></defs>
    <g id="Page-1" stroke="none" stroke-width="1" fill="none" fill-rule="evenodd">
        <g id="Group">
            <path d="M0,3.72953138 C0,2.07581713 1.34591509,0.731369168 3.0014262,0.726888215 C3.0014262,0.726888215 30.8576767,0.642752275 30.9364093,0.73521685 C31.0151419,0.827681425 31.0270433,24.998208 30.9364093,24.9566348 C30.8457753,24.9150616 3.0003542,24.9528901 3.0003542,24.9528901 C1.34330433,24.9549583 0,23.6198848 0,21.9623203 L0,3.72953138 Z" id="Rectangle" fill="#1AAB98"></path>
            <path d="M66,3.72953138 C66,2.07581713 67.3459151,0.731369168 69.0014262,0.726888215 C69.0014262,0.726888215 96.8576767,0.642752275 96.9364093,0.73521685 C97.0151419,0.827681425 97.0270433,24.998208 96.9364093,24.9566348 C96.8457753,24.9150616 69.0003542,24.9528901 69.0003542,24.9528901 C67.3433043,24.9549583 66,23.6198848 66,21.9623203 L66,3.72953138 Z" id="Rectangle" fill="#CCC2BA" transform="translate(81.500000, 12.824335) scale(-1, 1) translate(-81.500000, -12.824335) "></path>
            <rect id="Rectangle-2" fill="#CCC2BA" x="33" y="0.735294118" width="31" height="24.2647059"></rect>
        </g>
    </g>
</svg>