<svg xmlns="http://www.w3.org/2000/svg" viewBox="0 0 180 180"><defs><style>.cls-1{fill:#ededed;}.cls-2,.cls-5{opacity:0.3;}.cls-3,.cls-4,.cls-5{fill:#1d1d1b;}.cls-4,.cls-9{opacity:0.2;}.cls-6{fill:#b1b1b1;}.cls-7{fill:#00ab99;}.cls-8{fill:#f7d600;}</style></defs><title>object-matching-icon</title><g id="Layer_2" data-name="Layer 2"><g id="Layer_6" data-name="Layer 6"><path class="cls-1" d="M0,90a90,90,0,1,1,90,90A90,90,0,0,1,0,90"/><g class="cls-2"><polygon class="cls-3" points="84.77 91.53 62.47 91.53 62.47 69.23 41.64 69.23 41.64 91.53 19.34 91.53 19.34 112.36 41.64 112.36 41.64 134.65 62.47 134.65 62.47 112.36 84.77 112.36 84.77 91.53"/><polygon class="cls-3" points="84.77 91.53 62.47 91.53 62.47 69.23 41.64 69.23 41.64 91.53 19.34 91.53 19.34 112.36 41.64 112.36 41.64 134.65 62.47 134.65 62.47 112.36 84.77 112.36 84.77 91.53"/><rect class="cls-4" x="48.18" y="75.77" width="7.74" height="6.79"/><rect class="cls-4" x="25.88" y="98.07" width="15.75" height="6.79"/><rect class="cls-4" x="62.47" y="98.07" width="15.75" height="6.79"/></g><polygon class="cls-5" points="141.49 69.35 114.39 69.35 95.23 88.51 95.23 115.61 114.39 134.78 141.49 134.78 160.66 115.61 160.66 88.51 141.49 69.35"/><polygon class="cls-6" points="84.77 82.26 62.47 82.26 62.47 59.97 41.64 59.97 41.64 82.26 19.34 82.26 19.34 103.09 41.64 103.09 41.64 125.39 62.47 125.39 62.47 103.09 84.77 103.09 84.77 82.26"/><polygon class="cls-7" points="84.77 82.26 62.47 82.26 62.47 59.97 41.64 59.97 41.64 82.26 19.34 82.26 19.34 103.09 41.64 103.09 41.64 125.39 62.47 125.39 62.47 103.09 84.77 103.09 84.77 82.26"/><polygon class="cls-8" points="141.49 60.09 114.39 60.09 95.23 79.25 95.23 106.35 114.39 125.51 141.49 125.51 160.66 106.35 160.66 79.25 141.49 60.09"/><g class="cls-9"><rect class="cls-3" x="45.63" y="63.97" width="12.84" height="4"/></g><g class="cls-9"><rect class="cls-3" x="23.33" y="86.16" width="18.32" height="4"/></g><g class="cls-9"><rect class="cls-3" x="62.5" y="86.16" width="18.32" height="4"/></g><g class="cls-9"><polygon class="cls-3" points="141.49 67.97 114.39 67.97 99.23 83.13 99.23 80.91 116.05 64.09 139.84 64.09 156.66 80.91 156.66 83.13 141.49 67.97"/></g></g></g></svg>