<svg xmlns="http://www.w3.org/2000/svg" viewBox="0 0 180 180"><defs><style>.cls-1{fill:#ededed;}.cls-2{opacity:0.3;}.cls-3,.cls-4{fill:#1d1d1b;}.cls-4{opacity:0.2;}.cls-5{fill:#00ac98;}.cls-6{fill:#fff;}.cls-7{fill:#f6d400;}</style></defs><title>odd-one-out-icon</title><g id="Layer_2" data-name="Layer 2"><g id="Layer_6" data-name="Layer 6"><path class="cls-1" d="M0,90a90,90,0,1,1,90,90A90,90,0,0,1,0,90"/><g class="cls-2"><polygon class="cls-3" points="91.95 170.17 111.01 150.83 91.95 98.43 72.89 150.83 91.95 170.17"/><polygon class="cls-3" points="142.67 149.16 142.48 122 91.95 98.43 115.52 148.96 142.67 149.16"/><polygon class="cls-3" points="41.22 149.16 68.37 148.96 91.95 98.43 41.41 122 41.22 149.16"/><polygon class="cls-3" points="41.22 47.7 41.41 74.86 91.95 98.43 68.37 47.9 41.22 47.7"/><polygon class="cls-3" points="142.67 47.7 115.52 47.9 91.95 98.43 142.48 74.86 142.67 47.7"/><polygon class="cls-3" points="20.21 98.43 39.55 117.49 91.95 98.43 39.55 79.37 20.21 98.43"/><polygon class="cls-3" points="163.69 98.43 144.35 79.37 91.95 98.43 144.35 117.49 163.69 98.43"/><polygon class="cls-3" points="91.95 26.69 72.89 46.03 91.95 98.43 111.01 46.03 91.95 26.69"/><path class="cls-4" d="M81.2,128a26.54,26.54,0,0,0,21.52.05L91.95,98.43Z"/><path class="cls-4" d="M91.95,98.43l13.23,28.35a26.59,26.59,0,0,0,12.52-16.34Z"/><path class="cls-4" d="M78.75,126.73l13.2-28.3-25.64,12A26.59,26.59,0,0,0,78.75,126.73Z"/><circle class="cls-3" cx="91.98" cy="98.46" r="26.54"/><rect class="cls-3" x="75.29" y="81.98" width="33.38" height="33.38"/><rect class="cls-4" x="90.31" y="73.64" width="3.34" height="26.7" transform="translate(4.99 178.97) rotate(-90)"/><rect class="cls-4" x="90.31" y="100.34" width="3.34" height="33.38" transform="translate(-25.05 209.01) rotate(-90)"/></g><polygon class="cls-5" points="91.95 161.99 111.01 142.66 91.95 90.26 72.89 142.66 91.95 161.99"/><polygon class="cls-5" points="142.67 140.98 142.48 113.83 91.95 90.26 115.52 140.79 142.67 140.98"/><polygon class="cls-5" points="41.22 140.98 68.37 140.79 91.95 90.26 41.41 113.83 41.22 140.98"/><polygon class="cls-5" points="41.22 39.53 41.41 66.68 91.95 90.26 68.37 39.72 41.22 39.53"/><polygon class="cls-5" points="142.67 39.53 115.52 39.72 91.95 90.26 142.48 66.68 142.67 39.53"/><polygon class="cls-5" points="20.21 90.26 39.55 109.32 91.95 90.26 39.55 71.19 20.21 90.26"/><polygon class="cls-5" points="163.69 90.26 144.35 71.19 91.95 90.26 144.35 109.32 163.69 90.26"/><polygon class="cls-5" points="91.95 18.52 72.89 37.85 91.95 90.26 111.01 37.85 91.95 18.52"/><path class="cls-4" d="M81.2,119.8a26.54,26.54,0,0,0,21.52.05L91.95,90.26Z"/><path class="cls-4" d="M91.95,90.26l13.23,28.35a26.59,26.59,0,0,0,12.52-16.34Z"/><path class="cls-4" d="M78.75,118.55l13.2-28.3-25.64,12A26.59,26.59,0,0,0,78.75,118.55Z"/><circle class="cls-6" cx="91.98" cy="90.28" r="26.54"/><rect class="cls-7" x="75.29" y="73.81" width="33.38" height="33.38"/><path class="cls-4" d="M75.29,110.92l.51.4h32.36l.51-.4v-3.73H75.29Z"/><rect class="cls-4" x="79.42" y="77.94" width="25.12" height="4.13"/></g></g></svg>