<svg xmlns="http://www.w3.org/2000/svg" viewBox="0 0 180 180"><defs><style>.cls-1{fill:#f0f0f0;}.cls-2{fill:#fff;}.cls-3{fill:#4c4c4c;}.cls-4{fill:#00ab99;}.cls-5,.cls-6,.cls-9{fill:#1d1d1b;}.cls-5{opacity:0.3;}.cls-6,.cls-8{opacity:0.2;}.cls-7{fill:#f7d600;}</style></defs><title>paired-associates-icon</title><g id="Layer_2" data-name="Layer 2"><g id="Layer_6" data-name="Layer 6"><path class="cls-1" d="M0,90a90,90,0,1,1,90,90A90,90,0,0,1,0,90"/><rect class="cls-2" x="33.84" y="34.65" width="50.39" height="50.39"/><rect class="cls-2" x="95.77" y="96.12" width="50.39" height="50.39"/><circle class="cls-3" cx="54.3" cy="125.5" r="3.21"/><rect class="cls-4" x="33.84" y="96.12" width="50.39" height="50.39"/><rect class="cls-5" x="33.84" y="85.04" width="50.39" height="8.12"/><rect class="cls-5" x="33.84" y="146.52" width="50.39" height="8.12"/><rect class="cls-5" x="95.77" y="146.52" width="50.39" height="8.12"/><rect class="cls-6" x="37.97" y="100.26" width="42.13" height="4.13"/><rect class="cls-7" x="95.77" y="35.2" width="50.39" height="50.39"/><rect class="cls-5" x="95.77" y="85.59" width="50.39" height="8.12"/><rect class="cls-6" x="99.9" y="39.33" width="42.13" height="4.13"/><path class="cls-6" d="M67,122.08a8,8,0,1,0-15.88,0,8,8,0,1,0,5.59,14.15L53.78,144H64.29l-2.91-7.77A8,8,0,1,0,67,122.08Z"/><path class="cls-2" d="M67,117.94a8,8,0,1,0-15.88,0,8,8,0,1,0,5.59,14.15l-2.91,7.77H64.29l-2.91-7.77A8,8,0,1,0,67,117.94Z"/><g class="cls-8"><path class="cls-9" d="M59,115.07a4.92,4.92,0,0,1,4.72,3.56l.14-1.1A4.86,4.86,0,0,0,59.54,112L59,112l-.51,0a4.86,4.86,0,0,0-4.36,5.54l.14,1.09A4.92,4.92,0,0,1,59,115.07Z"/><path class="cls-9" d="M63.7,122.21h0l-.23,1.73,3.33.19a4.91,4.91,0,0,1,4.38,3.35A4.9,4.9,0,0,0,66.8,121l-2.93-.17-.18,1.34Z"/><path class="cls-9" d="M51.27,124.14l3.33-.19-.41-3.08-2.93.17a4.9,4.9,0,0,0-4.38,6.45A4.91,4.91,0,0,1,51.27,124.14Z"/></g></g></g></svg>