<svg xmlns="http://www.w3.org/2000/svg" viewBox="0 0 180 180"><defs><style>.cls-1{isolation:isolate;}.cls-2{fill:#f0f0f0;}.cls-3,.cls-5{fill:#1d1d1b;}.cls-3{opacity:0.3;}.cls-4{fill:#ccc;}.cls-5{opacity:0.2;}.cls-6{fill:#00ac98;mix-blend-mode:multiply;}</style></defs><title>self-ordered-search-completed-icon</title><g class="cls-1"><g id="Layer_2" data-name="Layer 2"><g id="Layer_6" data-name="Layer 6"><path class="cls-2" d="M0,90a90,90,0,1,1,90,90A90,90,0,0,1,0,90"/><polygon class="cls-3" points="90 42.66 146.08 78.95 90 154.82 33.92 78.95 90 42.66"/><polygon class="cls-4" points="90 34.65 146.08 70.94 90 146.81 33.92 70.94 90 34.65"/><polygon class="cls-5" points="137.71 75.53 90 44.65 42.28 75.53 39.67 71.99 90 39.42 140.33 71.99 137.71 75.53"/><path class="cls-6" d="M0,90a90,90,0,1,1,90,90A90,90,0,0,1,0,90"/></g></g></g></svg>