<svg xmlns="http://www.w3.org/2000/svg" viewBox="0 0 180 180"><defs><style>.cls-1{isolation:isolate;}.cls-2{fill:#ededed;}.cls-3{fill:#ccc;}.cls-4{fill:#4c4c4c;}.cls-5{fill:#fff;}.cls-6,.cls-7{fill:#1d1d1b;}.cls-6{opacity:0.3;}.cls-7{opacity:0.2;}.cls-8{fill:#bcbcbc;}.cls-9{fill:#00ac98;mix-blend-mode:multiply;}</style></defs><title>sliders-completed-icon</title><g class="cls-1"><g id="Layer_2" data-name="Layer 2"><g id="Layer_6" data-name="Layer 6"><path class="cls-2" d="M0,90a90,90,0,1,1,90,90A90,90,0,0,1,0,90"/><rect class="cls-3" x="33.84" y="34.65" width="50.39" height="50.39"/><rect class="cls-3" x="95.77" y="96.12" width="50.39" height="50.39"/><circle class="cls-4" cx="54.3" cy="125.5" r="3.21"/><rect class="cls-5" x="33.84" y="96.12" width="50.39" height="50.39"/><rect class="cls-6" x="33.84" y="85.04" width="50.39" height="8.12"/><rect class="cls-6" x="33.84" y="146.52" width="50.39" height="8.12"/><rect class="cls-6" x="95.77" y="146.52" width="50.39" height="8.12"/><rect class="cls-7" x="37.97" y="38.78" width="42.13" height="4.13"/><rect class="cls-7" x="37.97" y="100.26" width="42.13" height="4.13"/><rect class="cls-7" x="99.9" y="100.26" width="42.13" height="4.13"/><circle class="cls-6" cx="121.38" cy="64.45" r="2.79"/><circle class="cls-8" cx="121.38" cy="60.32" r="2.79"/><path class="cls-9" d="M0,90a90,90,0,1,1,90,90A90,90,0,0,1,0,90"/></g></g></g></svg>