<?xml version="1.0" encoding="utf-8"?>
<!-- Generator: Adobe Illustrator 21.1.0, SVG Export Plug-In . SVG Version: 6.00 Build 0)  -->
<svg version="1.1" id="Layer_6" xmlns="http://www.w3.org/2000/svg" xmlns:xlink="http://www.w3.org/1999/xlink" x="0px" y="0px"
	 viewBox="0 0 180 180" style="enable-background:new 0 0 180 180;" xml:space="preserve">
<g>
	<path style="fill:#EDEDED;" d="M0,90C0,40.3,40.3,0,90,0s90,40.3,90,90c0,49.7-40.3,90-90,90S0,139.7,0,90"/>
	<path style="opacity:0.2;fill:#1D1D1B;" d="M110.2,26.6C80.3,26.6,56,50.9,56,80.8c0,13.5,4.9,25.8,13.1,35.3l-1.9,1.9c0,0,0,0,0,0
		l-0.7,0.7H62H51.2v7h8.4l-3.3,3.3h-4.6H40.9v7h8.4l-3.3,3.3h-4.6H30.7v7h10.8V157h7v-10.8v-4.6l3.3-3.3v8.4h7v-10.8v-4.6l3.3-3.3
		v8.4h7v-10.8v-4.6l0.4-0.4c0,0,0,0,0,0l2-2C81.3,128.7,95,135,110.2,135c29.9,0,54.2-24.3,54.2-54.2
		C164.4,50.9,140.2,26.6,110.2,26.6z"/>
	<path style="fill:#00AC98;" d="M56,72c0-29.9,24.3-54.2,54.2-54.2c29.9,0,54.2,24.3,54.2,54.2c0,29.9-24.3,54.2-54.2,54.2
		C80.3,126.2,56,102,56,72"/>
	<path style="fill:#FFFFFF;" d="M74.4,72.2c0-19.8,16-35.8,35.8-35.8s35.8,16,35.8,35.8c0,19.8-16,35.8-35.8,35.8S74.4,92,74.4,72.2
		"/>
	<path style="fill:#00AC98;" d="M89.6,73.9c0-11.4,9.2-20.6,20.6-20.6s20.6,9.2,20.6,20.6c0,11.4-9.2,20.6-20.6,20.6
		S89.6,85.3,89.6,73.9"/>
	<path style="fill:#F7D600;" d="M102,73.9c0-4.5,3.7-8.2,8.2-8.2c4.5,0,8.2,3.7,8.2,8.2c0,4.5-3.7,8.2-8.2,8.2
		C105.7,82.1,102,78.4,102,73.9"/>
	<polyline style="fill:#9E9E9E;" points="73,111.4 73,111.4 67.2,117.2 73,111.4 	"/>
	<path style="opacity:0.2;fill:#1D1D1B;" d="M108.9,76.3l-4.4,4.4c0,0,0,0,0,0l-0.9,0.9l-7.9,7.9l-2.1,2.1l-7.7,7.7l0,0l-3.8,3.9
		l-8.6,8.6c0.8,0.8,1.7,1.5,2.6,2.2l8.3-8.3l4.2-4.2c0,0,0,0,0,0v0l7.3-7.3l2.5-2.5c-0.7-0.5-1.4-1.1-2.1-1.7
		c0.7,0.6,1.3,1.2,2.1,1.7v0l7.9-7.9l1.3-1.3l0,0c0,0,0,0,0,0l3.8-3.8L108.9,76.3z"/>
	<path style="opacity:0.2;fill:#1D1D1B;" d="M125.6,53.8l-0.4-3.4l-46.2,4.9c-0.3,0.5-0.6,1.1-0.9,1.6c0.3-0.6,0.6-1.1,0.9-1.6
		l-13.4,1.4L62.1,54l-2-1.6c0,0,0,0,0,0l-6.4-5.1l-4.4,5.4l6.5,5.3l-4.6,0.5l-3.6-2.9l-8.4-6.8l-4.4,5.4l6.5,5.3l-4.6,0.5L33.3,57
		l-8.4-6.8l-4.4,5.4l8.4,6.8l-6.8,8.4l5.4,4.4l6.8-8.4l2.9-3.6l4.6-0.5l-5.3,6.5l5.4,4.4l6.8-8.4l2.9-3.6l4.6-0.5l-5.3,6.5l5.1,4.1
		c0-0.4,0-0.8,0-1.1c0,0.4,0,0.8,0,1.1l0.3,0.3l6.8-8.4l2.9-3.6L77.3,59c0,0,0,0,0,0l23.3-2.5c2.9-1.5,6.2-2.4,9.6-2.4
		c1.2,0,2.4,0.1,3.5,0.3c-1.1-0.2-2.3-0.3-3.5-0.3c-3.5,0-6.8,0.9-9.6,2.4l15.2-1.6c0,0,0,0,0,0L125.6,53.8z"/>
	<polygon style="fill:#545454;" points="36.5,65.9 42,70.3 48.7,61.9 51.6,58.3 56.2,57.9 50.9,64.4 56.4,68.8 63.1,60.4 66,56.8 
		125.6,50.4 125.3,47 65.7,53.4 62.1,50.5 53.7,43.8 49.3,49.2 55.8,54.5 51.3,55 47.7,52.1 39.3,45.3 34.9,50.7 41.4,56 36.8,56.5 
		33.3,53.6 24.9,46.8 20.5,52.3 28.9,59.1 22.1,67.5 27.5,71.9 34.3,63.5 37.2,59.9 41.8,59.4 	"/>
	<polygon style="fill:#545454;" points="51.7,142.6 58.7,142.6 58.7,131.8 58.7,127.2 62,124 62,132.4 69,132.4 69,121.6 69,117 
		111.4,74.6 108.9,72.2 66.6,114.6 62,114.6 51.2,114.6 51.2,121.6 59.6,121.6 56.3,124.8 51.7,124.8 40.9,124.8 40.9,131.8 
		49.3,131.8 46.1,135.1 41.5,135.1 30.7,135.1 30.7,142.1 41.5,142.1 41.5,152.9 48.5,152.9 48.5,142.1 48.5,137.5 51.7,134.2 	"/>
</g>
</svg>
