<?xml version="1.0" encoding="utf-8"?>
<!-- Generator: Adobe Illustrator 21.1.0, SVG Export Plug-In . SVG Version: 6.00 Build 0)  -->
<svg version="1.1" id="Layer_6" xmlns="http://www.w3.org/2000/svg" xmlns:xlink="http://www.w3.org/1999/xlink" x="0px" y="0px"
	 viewBox="0 0 180 180" style="enable-background:new 0 0 180 180;" xml:space="preserve">
<g>
	<path style="fill:#EDEDED;" d="M0,90C0,40.3,40.3,0,90,0s90,40.3,90,90s-40.3,90-90,90S0,139.7,0,90"/>
	<path style="opacity:0.2;fill:#1D1D1B;" d="M57.5,136.3c0-17.9,14.5-32.4,32.4-32.4c17.9,0,32.4,14.5,32.4,32.4
		c0,17.9-14.5,32.4-32.4,32.4C72,168.7,57.5,154.2,57.5,136.3"/>
	<rect x="32.3" y="111.5" style="opacity:0.2;fill:#1D1D1B;" width="115.4" height="8.3"/>
	<path style="opacity:0.2;fill:#1D1D1B;" d="M89.9,17.7c-6.7,0-14.1,7.1-12.2,15.9H78c1.1-5.6,6-9.8,11.9-9.8
		c5.9,0,10.8,4.2,11.9,9.8h0.2C105,25.6,96.6,17.7,89.9,17.7"/>
	<path style="fill:#545454;" d="M89.9,14.2c-9.7,0-17.6,7.9-17.6,17.6s7.9,17.6,17.6,17.6c9.7,0,17.6-7.9,17.6-17.6
		S99.6,14.2,89.9,14.2 M89.9,44c-6.7,0-12.2-5.4-12.2-12.2c0-6.7,5.4-12.2,12.2-12.2c6.7,0,12.2,5.4,12.2,12.2
		C102,38.6,96.6,44,89.9,44"/>
	<rect x="32.3" y="31.8" style="fill:#FFFFFF;" width="115.4" height="79.6"/>
	<rect x="39.9" y="41.6" style="opacity:0.2;fill:#1D1D1B;" width="28.1" height="29.4"/>
	<rect x="39.9" y="39.5" style="fill:#EDEDED;" width="28.1" height="27.4"/>
	<polygon style="opacity:0.2;fill:#1D1D1B;" points="75.8,41.6 75.8,41.6 75.8,71 103.9,71 103.9,66.9 75.8,66.9 	"/>
	<rect x="75.8" y="39.5" style="fill:#F7D600;" width="28.1" height="27.4"/>
	<polygon style="opacity:0.2;fill:#1D1D1B;" points="111.8,41.6 111.8,41.6 111.8,71 139.9,71 139.9,66.9 111.8,66.9 	"/>
	<g>
		<path style="opacity:0.2;fill:#1D1D1B;" d="M39.9,75.9L39.9,75.9v29.4h27c0.4-0.4,0.8-0.7,1.1-1.1v-3H39.9V75.9z"/>
	</g>
	<rect x="75.8" y="73.8" style="fill:#EDEDED;" width="28.1" height="27.4"/>
	<rect x="111.8" y="77.3" style="opacity:0.2;fill:#1D1D1B;" width="28.1" height="28.1"/>
	<rect x="111.8" y="73.8" style="fill:#EDEDED;" width="28.1" height="27.4"/>
	<path style="fill:#00AC98;" d="M57.5,128.1c0-17.9,14.5-32.4,32.4-32.4c17.9,0,32.4,14.5,32.4,32.4c0,17.9-14.5,32.4-32.4,32.4
		C72,160.5,57.5,146,57.5,128.1"/>
	<polygon style="fill:#FFFFFF;" points="92.5,125.4 92.5,109.4 87.3,109.4 87.3,130.7 89.9,130.7 92.5,130.7 103.8,130.7 
		103.8,125.4 	"/>
	<rect x="87.3" y="130.7" style="opacity:0.2;fill:#1D1D1B;" width="16.5" height="4.1"/>
	<polygon style="fill:#545454;" points="96.7,56.7 93.3,53.2 96.7,49.7 93.4,46.4 89.9,49.8 86.4,46.4 83,49.7 86.5,53.2 83,56.7 
		86.4,60.1 89.9,56.6 93.4,60.1 	"/>
	<rect x="111.8" y="39.5" style="fill:#F7D600;" width="28.1" height="27.4"/>
	<polygon style="fill:#545454;" points="132.7,56.7 129.3,53.2 132.7,49.7 129.3,46.4 125.9,49.8 122.4,46.4 119,49.7 122.5,53.2 
		119,56.7 122.4,60.1 125.9,56.6 129.3,60.1 	"/>
	<rect x="39.9" y="73.7" style="fill:#F7D600;" width="28.1" height="27.4"/>
	<polygon style="fill:#545454;" points="60.8,90.9 57.3,87.5 60.8,84 57.4,80.6 53.9,84.1 50.5,80.6 47.1,84 50.5,87.5 47.1,90.9 
		50.5,94.3 53.9,90.8 57.4,94.3 	"/>
	<path style="opacity:0.2;fill:#1D1D1B;" d="M90,105.7c-9.7,0-18.4,4.3-24.4,11.1c1.3-2.9,3.1-5.4,5.4-7.7
		c4.9-4.9,11.5-7.8,18.9-7.8c7.4,0,14.1,3,18.9,7.8c2.1,2.1,3.8,4.5,5.2,7.2C108,109.8,99.5,105.7,90,105.7z"/>
</g>
</svg>
