<svg width="97" height="97" viewBox="0 0 97 97" xmlns="http://www.w3.org/2000/svg"><title>Page 1</title><path d="M22.111 88.001C9.381 79.48 1 64.969 1 48.5 1 22.266 22.267 1 48.5 1 74.734 1 96 22.266 96 48.5c0 16.469-8.381 30.98-21.111 39.501H22.111zm31.667 7.709a48.165 48.165 0 0 1-10.556 0h10.556zm19.181-52.891c0 13.509-10.95 24.459-24.459 24.459-13.508 0-24.459-10.95-24.459-24.459 0-13.508 10.951-24.459 24.459-24.459 13.509 0 24.459 10.951 24.459 24.459zM48.5 10.49l2.64 3.063 3.144-2.542 2.051 3.485 3.548-1.94 1.395 3.795 3.837-1.276.695 3.984 4.004-.57-.028 4.044 4.041.154-.749 3.974 3.948.873-1.446 3.776 3.729 1.564-2.098 3.457 3.39 2.205-2.681 3.027 2.942 2.775-3.179 2.499 2.399 3.256-3.574 1.892 1.779 3.631-3.854 1.223 1.102 3.891-4.011.516.391 4.025-4.039-.209-.335 4.03-3.936-.927-1.05 3.906-3.707-1.615-1.73 3.655-3.36-2.251-2.354 3.288-2.904-2.814-2.904 2.814-2.354-3.288-3.36 2.251-1.73-3.655-3.707 1.615-1.05-3.906-3.936.927-.335-4.03-4.038.209.39-4.025-4.011-.516 1.102-3.891-3.854-1.223 1.779-3.631-3.574-1.892 2.399-3.256-3.179-2.499 2.942-2.775-2.681-3.027 3.39-2.205-2.098-3.457 3.73-1.564-1.447-3.776 3.948-.873-.749-3.974 4.041-.154-.027-4.044 4.003.57.695-3.984 3.837 1.276 1.396-3.795 3.547 1.94 2.051-3.485 3.144 2.542 2.64-3.063zm4.616 67.42l5.803 16.903 3.28-6.705 6.704 3.28-5.359-15.611-10.428 2.133zm-19.731-2.102l-5.349 15.551 6.709-3.27 3.27 6.709 5.829-16.945-10.459-2.045z" stroke="#0064D2" stroke-width="2" fill="none" fill-rule="evenodd" stroke-linecap="round" stroke-linejoin="round"/></svg>