<svg width="105" height="40" viewBox="0 0 105 40" xmlns="http://www.w3.org/2000/svg" xmlns:xlink="http://www.w3.org/1999/xlink"><title>Page 1</title><defs><path id="a" d="M0 40h104.218V0H0v40z"/></defs><g fill="none" fill-rule="evenodd"><mask id="b" fill="#fff"><use xlink:href="#a"/></mask><path d="M43.978 18.83v-4.1c0-2.298 0-3.026-.153-3.983-.153-.996-.996-1.418-1.954-1.647-.421-.115-.383-.537.039-.537 1.264 0 2.145.115 3.332.115h3.945c2.03 0 3.332-.038 3.677-.153.19-.115.344-.153.383-.153.076 0 .19.077.153.268-.192.92-.268 2.336-.192 3.294.039.498-.46.574-.536.115-.153-.843-.728-1.685-1.455-1.877-.766-.23-1.456-.268-2.835-.268h-.995c-.805 0-.881.077-.958.69-.038.344-.076 1.378-.076 2.566v2.068c0 .46 0 .421.804.498h.804c2.145 0 3.026-.115 3.37-.23.46-.153.767-.498.88-.69.116-.19.385-.114.346.154-.076.612-.191 1.57-.191 3.83 0 .306-.422.344-.46.038-.038-.23-.153-.575-.383-.996-.383-.65-1.34-.88-3.332-.88h-1.15c-.573 0-.688.038-.688.497v1.8c0 2.681.076 3.64.344 4.022.268.421 1.11.498 2.643.498.919 0 1.838-.038 2.413-.154.574-.076 1.034-.344 1.417-.727.306-.383.536-.958.689-1.417.115-.307.498-.269.498.038 0 .383-.153 1.84-.383 2.988-.115.497-.344.536-1.378.536l-7.93-.115c-1.11 0-2.105.115-3.522.115-.422 0-.422-.46-.115-.498 1.302-.268 2.489-.498 2.758-1.57.076-.383.19-1.188.19-4.137zm-27.245 2.642c-.153.46-.383 1.034-.69 1.417-.382.383-.842.651-1.416.727-.575.116-1.494.154-2.413.154-1.532 0-2.375-.077-2.643-.498-.268-.383-.345-1.34-.345-4.022v-1.8c0-.459.115-.498.69-.498h1.149c1.99 0 2.949.23 3.332.881.23.421.345.766.383.996.038.306.46.268.46-.038 0-2.26.114-3.218.19-3.83.039-.268-.23-.345-.344-.154a1.716 1.716 0 0 1-.881.69c-.344.115-1.225.23-3.37.23h-.804c-.805-.077-.805-.039-.805-.498v-2.068c0-1.188.039-2.222.077-2.567.077-.612.153-.689.957-.689h.996c1.379 0 2.069.038 2.835.268.727.192 1.302 1.034 1.455 1.877.077.46.575.383.536-.115-.076-.958 0-2.375.192-3.294.038-.19-.077-.268-.153-.268-.04 0-.192.038-.384.153-.344.115-1.646.153-3.676.153H8.116c-1.188 0-2.068-.115-3.332-.115-.422 0-.46.422-.04.537.959.23 1.8.651 1.955 1.647.153.957.153 1.685.153 3.983v4.098c0 2.95-.115 3.754-.192 4.137-.268 1.072-1.455 1.302-2.757 1.57-.307.038-.307.498.115.498 1.417 0 2.413-.115 3.523-.115l7.928.115c1.034 0 1.264-.039 1.379-.536.23-1.149.383-2.605.383-2.988 0-.307-.383-.345-.498-.038zm87.418 3.523c-.153.077-.805.23-1.61.23-1.416 0-2.871-.46-3.752-1.226-1.417-1.34-2.413-3.14-3.562-5.36-.345-.729-.613-.806-1.034-.768-.536.04-1.15.115-1.762.115-.191 0-.23.077-.23.805V20.4c0 1.226.039 1.647.115 2.107.23 1.226.498 1.57 2.183 2.03.422.115.422.498-.038.498-1.034 0-2.145-.115-3.256-.115-1.15 0-2.336.115-3.408.115-.422 0-.498-.383-.077-.498 1.456-.383 1.8-.69 1.953-1.8.039-.537.154-1.494.154-2.988v-6.013c0-1.379-.115-2.298-.154-2.949-.076-.498-.191-.69-.306-.843-.268-.268-1.111-.383-1.838-.459-.5-.039-.46-.422 0-.498.536-.077 3.638-.498 6.089-.498 5.745-.153 6.014 3.217 6.014 4.328 0 1.608-.92 2.834-1.61 3.255l-.765.498c-.192.115-.268.23-.115.575 1.302 2.72 3.179 5.132 4.519 6.205 1.264 1.033 2.26 1.302 2.413 1.34.154.038.192.268.077.306zm-6.932-11.107c0-2.298-1.532-4.328-4.213-4.328-.537 0-.613.115-.69.383-.076.23-.115.728-.115 2.49v3.715c0 .421.039.536.345.574.498.04.957.04 1.762.04 1.264 0 2.91-.69 2.91-2.874zm-12.065 7.584c-.153.46-.383 1.034-.69 1.417-.382.383-.841.651-1.416.727-.574.116-1.494.154-2.413.154-1.532 0-2.374-.077-2.643-.498-.268-.383-.344-1.34-.344-4.022v-1.8c0-.459.115-.498.689-.498h1.149c1.992 0 2.949.23 3.332.881.23.421.345.766.384.996.038.306.459.268.459-.038 0-2.26.115-3.218.19-3.83.04-.268-.228-.345-.343-.154a1.72 1.72 0 0 1-.881.69c-.345.115-1.226.23-3.371.23h-.804c-.804-.077-.804-.039-.804-.498v-2.068c0-1.188.038-2.222.076-2.567.077-.612.154-.689.958-.689h.996c1.378 0 2.068.038 2.834.268.728.192 1.302 1.034 1.456 1.877.076.46.574.383.536-.115-.077-.958 0-2.375.19-3.294.039-.19-.076-.268-.152-.268-.038 0-.191.038-.383.153-.345.115-1.647.153-3.677.153h-3.945c-1.187 0-2.068-.115-3.332-.115-.421 0-.46.422-.038.537.957.23 1.8.651 1.953 1.647.153.957.153 1.685.153 3.983v4.098c0 2.95-.115 3.754-.191 4.137-.27 1.072-1.456 1.302-2.758 1.57-.306.038-.306.498.115.498 1.417 0 2.413-.115 3.523-.115l7.929.115c1.034 0 1.263-.039 1.379-.536.229-1.149.383-2.605.383-2.988 0-.307-.383-.345-.5-.038zM61.782 33.49c-.24.67-.48 1.436-1.101 2.25-1.005 1.34-2.633 2.49-6.415 2.49-5.506 0-10.437-3.83-15.704-10.198-2.872-3.447-5.122-6.847-7.756-10.533-.24-.335-.24-.43-.047-.718 1.197-1.484 2.298-2.873 3.973-4.74 1.772-2.01 2.059-2.25 4.549-3.112.478-.143.526-.622-.048-.622-1.293 0-2.394.144-3.543.144-1.101 0-2.107-.144-3.83-.144-.527 0-.575.48-.048.622 1.676.575 2.059.862 1.34 2.25-.861 1.437-1.915 2.921-2.92 4.261-.383.527-.48.527-.67.288-1.341-1.915-2.777-3.926-4.213-5.698C20.274 3.71 15.534.311 9.358.12c-3.208 0-5.123.814-6.99 2.346C1.17 3.423.405 4.525.118 5.29c-.287.718 0 1.244.335 1.484.287.24.67.144.766-.383.383-2.394 1.915-4.74 5.889-4.74 4.309 0 8.474 2.06 12.879 6.607 2.44 2.537 5.457 6.607 7.708 9.863.19.287.19.382-.192.861l-3.686 4.692c-2.73 3.351-2.97 3.686-5.506 4.596-.431.192-.48.622.096.622 1.149 0 2.106-.143 3.255-.143 1.197 0 2.442.143 3.639.143.622 0 .622-.43.096-.622-1.58-.622-2.155-.766-.958-2.777 1.245-2.058 3.112-4.644 3.974-5.745.19-.239.287-.19.479.096l3.303 4.787c1.245 1.724 2.442 3.543 4.405 5.89 3.638 4.26 9 9.48 16.277 9.48 4.022 0 8.043-1.629 9.575-5.746.096-.383.048-.67-.143-.862-.192-.192-.383-.24-.527.096zm8.89-25.46c-.497.344-1.225.574-1.914.612L66 8.68h-5.286c-2.183 0-2.95-.038-3.332-.153-.421-.115-.727-.23-.957-.459-.23-.23-.498-.192-.498.268 0 1.608-.23 3.14-.23 3.485 0 .421.422.498.536.115.154-.498.537-1.264 1.11-1.609.882-.459 3.37-.42 4.137-.42.499 0 .575.114.575.765 0 .306.077 1.187.077 3.907v3.791c0 2.873-.153 4.06-.23 4.597-.115 1.033-1.188 1.187-2.528 1.57-.383.115-.383.498.077.498 1.57 0 2.412-.115 3.56-.115 1.495 0 2.49.115 3.793.115.498 0 .537-.383.154-.498-1.494-.498-2.145-.65-2.337-1.915-.115-.92-.115-1.877-.115-4.443V14.54c0-2.527.077-3.868.154-4.213.038-.306.076-.42.574-.42 1.8 0 2.68.114 3.332.267.958.268 1.226.92 1.494 1.61.153.343.498.267.536-.078.077-1.417.077-2.413.498-3.447.077-.268-.191-.383-.421-.23zM79.147.322c.339.11.383.207.754.774.327.503.61 1.005.884 1.55a.885.885 0 0 1 .109.47v.556c0 .46-.044.677-.11.764-.108.153-.392.23-.6.295-.098.033-.087.142.033.142.36 0 .644-.033 1.004-.033.306 0 .655.033.95.033.13 0 .13-.109.032-.142-.36-.109-.502-.186-.567-.382-.066-.12-.077-.382-.077-.786v-.556c0-.142.033-.295.12-.459.186-.36.6-1.015.994-1.528.327-.426.403-.524.884-.698.109-.033.087-.142-.022-.142-.24 0-.47.032-.677.032-.283 0-.491-.032-.785-.032-.143 0-.153.12-.066.142.338.12.437.196.284.545-.175.448-.535 1.037-.764 1.397-.055.088-.087.11-.142.033a13.32 13.32 0 0 1-.83-1.43c-.196-.382-.12-.404.284-.545.098-.033.098-.142-.033-.142-.327 0-.545.032-.84.032-.207 0-.513-.032-.82-.032-.12 0-.108.11 0 .142zm-6.461.818c.044-.142.153-.36.317-.458.25-.13.96-.12 1.178-.12.142 0 .164.032.164.218 0 .087.022.338.022 1.113v1.081c0 .818-.044 1.157-.066 1.31-.032.294-.338.338-.72.447-.11.033-.11.142.022.142.447 0 .687-.033 1.015-.033.425 0 .709.033 1.08.033.142 0 .153-.109.044-.142-.426-.142-.611-.186-.666-.546-.033-.262-.033-.535-.033-1.266V1.883c0-.72.022-1.102.044-1.2.01-.088.022-.12.164-.12.513 0 .764.032.949.076.273.076.35.262.426.458.044.1.142.077.153-.02.022-.405.022-.689.142-.984.022-.076-.055-.109-.12-.065a1.117 1.117 0 0 1-.546.175l-.786.01h-1.506c-.622 0-.84-.01-.95-.043-.12-.033-.207-.066-.272-.13-.066-.067-.142-.056-.142.075 0 .46-.066.895-.066.993 0 .12.12.142.153.033zm16.23 1.452c0-.688.24-1.343.798-1.823a2.765 2.765 0 0 1 1.81-.687c1.366 0 2.206 1.036 2.206 2.324 0 .742-.24 1.3-.611 1.714a2.61 2.61 0 0 1-1.954.851c-1.288 0-2.248-.928-2.248-2.379zm.808-.153c0 1.124.557 2.183 1.78 2.183 1.069 0 1.429-.884 1.429-1.92 0-1.223-.523-2.27-1.78-2.27-1.134 0-1.43 1.09-1.43 2.007zM68.339 4.874c.338 0 .612-.033.873-.033.306 0 .568.033.928.033.13 0 .13-.12.033-.142-.262-.055-.491-.142-.546-.393-.065-.273-.065-.666-.065-1.32v-.972c0-.655 0-1.07.054-1.332.044-.262.295-.349.48-.392.109-.022.109-.142-.021-.142-.306 0-.502.032-.743.032-.327 0-.523-.032-.96-.032-.131 0-.142.12-.055.142.219.054.459.141.524.425.044.23.044.644.044 1.3v.97c0 .655 0 1.048-.055 1.375-.043.197-.294.306-.513.34-.11.021-.098.141.022.141zM24.293.324c.196.053.425.12.5.282.045.1.067.197.067.797v1.801c0 .622.109.96.316 1.222.306.371.808.546 1.408.546 1.267 0 2.052-.873 2.107-2.172l.054-1.288c.022-.447.055-.677.109-.818a.57.57 0 0 1 .437-.37C29.4.3 29.389.18 29.269.18c-.218 0-.458.032-.72.032-.317 0-.622-.032-.94-.032-.097 0-.12.11-.02.142.327.11.513.196.6.403.054.142.109.371.109.874v.807c0 1.004-.164 1.528-.447 1.79-.273.295-.655.306-.906.306-.481 0-.83-.208-1.026-.404-.23-.197-.382-.633-.382-1.233v-.808c0-.753.032-1.32.174-1.506.066-.109.175-.186.404-.229.109-.022.098-.142-.033-.142-.392 0-.578.032-.906.032-.272 0-.436-.032-.873-.032-.11 0-.11.131-.01.142zm71.698 0c.36.064.578.206.622.588.02.185.044.47.044 1.026v1.168c0 .818-.023.993-.066 1.211-.055.218-.316.338-.567.415-.077.033-.088.142.032.142.382 0 .71-.033 1.07-.033.393 0 .633.033.884.033.164 0 .153-.12.065-.142-.414-.109-.633-.218-.676-.458-.044-.175-.066-.35-.066-1.136v-.316c0-.142.01-.153.262-.153h.24c.557 0 .83.055.95.262.076.131.098.24.13.327.012.066.143.055.143-.02a7.871 7.871 0 0 1 .043-1.115c.01-.087-.076-.109-.12-.02-.043.086-.142.13-.251.162-.087.022-.338.044-.895.044h-.273c-.23 0-.23-.01-.23-.153V1.49c0-.316.012-.633.034-.775.022-.109.043-.152.175-.152h.316c.393 0 .589.011.808.076.25.076.382.338.415.535.032.11.163.076.152-.033a5.398 5.398 0 0 1 .076-.938c.012-.077-.043-.088-.087-.066-.141.066-.47.076-.775.076H97.07c-.36 0-.698-.032-1.06-.032-.107 0-.12.131-.02.142zm-56.952 4.55c.339 0 .612-.033.874-.033.305 0 .567.033.927.033.13 0 .13-.12.033-.142-.262-.055-.491-.142-.545-.393-.066-.273-.066-.666-.066-1.32v-.972c0-.655 0-1.07.055-1.332.043-.262.294-.349.48-.392.109-.022.109-.142-.022-.142-.306 0-.502.032-.742.032-.328 0-.524-.032-.961-.032-.131 0-.141.12-.054.142.218.054.458.141.524.425.043.23.043.644.043 1.3v.97c0 .655 0 1.048-.054 1.375-.044.197-.295.306-.513.34-.11.021-.098.141.02.141zM31.442.324c.229.064.534.162.665.391.077.142.12.251.12.721v1.135c0 .807-.043 1.495-.098 1.703-.054.174-.218.305-.393.371l-.218.087c-.098.044-.098.142.044.142.229 0 .545-.033.85-.033.307 0 .59.022.852.033.142.011.142-.109.055-.142l-.317-.12c-.23-.088-.436-.229-.436-1.517v-.928c0-.48 0-.677.01-.775.012-.087.033-.13.066-.098l2.696 3.23c.022.033.13.142.262.252.076.065.207.141.295.141.065 0 .13-.02.109-.207-.011-.087-.033-.557-.033-1.375V2.55c0-.72.055-1.299.109-1.615.077-.393.284-.502.546-.61.109-.045.109-.143-.022-.143-.24 0-.502.032-.786.032-.327 0-.644-.032-.938-.032-.11 0-.131.12-.022.142.534.141.655.23.709.742.044.404.077.753.077 1.43v1.07c0 .097-.022.108-.1.032-1.254-1.343-2.16-2.434-2.465-2.86-.186-.218-.251-.349-.284-.469-.011-.055-.044-.065-.207-.055-.131.011-.22.011-.306.011-.251 0-.513-.043-.82-.043-.12 0-.12.12-.02.142zm31.854 4.452c.207.12.49.196.84.196.36 0 .742-.12 1.08-.37.295-.219.677-.634.677-1.245 0-.786-.556-1.026-1.2-1.255-.46-.164-.906-.393-.906-.994 0-.436.273-.687.644-.687.305 0 .556.11.742.327.142.164.185.295.197.382.01.131.152.131.152.011 0-.196.022-.338.033-.426a.793.793 0 0 0 .033-.196.264.264 0 0 0-.12-.229c-.098-.066-.306-.207-.732-.207-.47 0-.884.218-1.146.48a1.264 1.264 0 0 0-.414.938c0 .568.349.917 1.09 1.18.58.207 1.005.48 1.005 1.058 0 .556-.295.84-.807.84-.426 0-.895-.262-1.038-.557-.076-.163-.076-.26-.076-.327-.011-.098-.11-.109-.142-.033-.043.1-.131.34-.185.426-.055.076-.11.197-.087.273.043.153.163.284.36.415zM43.145.323l.186.087c.273.142.349.251.633.95l.85 2.193.48 1.343c.034.087.067.131.12.131.045 0 .187-.12.35-.437.077-.13.165-.393.36-.829l.918-2.052c.414-.884.578-1.146.895-1.277l.24-.109c.098-.044.109-.142-.022-.142-.251 0-.524.032-.797.032-.262 0-.535-.032-.84-.032-.11 0-.12.11-.033.142l.12.043c.338.12.415.251.273.731-.153.492-.731 1.932-1.07 2.631-.076.163-.11.153-.174 0a29.43 29.43 0 0 1-.993-2.52c-.153-.46-.23-.645.065-.776l.284-.109c.098-.033.098-.142-.033-.142-.327 0-.644.032-.982.032-.262 0-.47-.032-.797-.032-.153 0-.131.098-.033.142zm7.074 4.551c.404 0 .688-.033 1.004-.033l2.259.033c.295 0 .36-.01.394-.153.065-.328.109-.742.109-.85 0-.089-.11-.1-.142-.012a1.39 1.39 0 0 1-.197.404.69.69 0 0 1-.404.207 3.987 3.987 0 0 1-.687.044c-.437 0-.677-.022-.753-.142-.076-.109-.098-.382-.098-1.146v-.513c0-.13.032-.142.196-.142h.327c.568 0 .84.065.95.251a.97.97 0 0 1 .109.284c.01.087.13.076.13-.01 0-.645.034-.918.056-1.093.01-.076-.066-.098-.1-.043a.492.492 0 0 1-.25.196c-.098.033-.35.066-.96.066h-.23c-.228-.022-.228-.01-.228-.142v-.59a9.2 9.2 0 0 1 .022-.73c.02-.176.043-.197.272-.197h.284c.393 0 .59.011.808.076.207.055.37.295.415.535.02.131.163.11.152-.033-.022-.273 0-.677.055-.938.01-.055-.022-.077-.044-.077a.292.292 0 0 0-.11.044c-.097.033-.468.043-1.047.043h-1.124c-.338 0-.59-.032-.95-.032-.12 0-.13.12-.01.153.272.065.513.185.556.47.044.272.044.48.044 1.134v1.168c0 .84-.033 1.07-.055 1.18-.076.304-.414.37-.785.446-.088.011-.088.142.032.142zM56.288.301C56.44.28 57.324.16 58.023.16c1.637-.044 1.713.917 1.713 1.233 0 .458-.262.808-.458.928l-.218.142c-.055.032-.077.065-.033.163.37.775.906 1.463 1.288 1.768.36.295.644.372.687.383.044.01.055.076.022.087a1.371 1.371 0 0 1-.458.065c-.404 0-.82-.13-1.07-.349-.404-.382-.687-.895-1.015-1.528-.098-.207-.174-.229-.294-.218-.153.011-.328.033-.502.033-.055 0-.066.022-.066.23v.457c0 .35.01.47.033.6.065.35.142.448.622.58.12.032.12.141-.011.141-.295 0-.611-.033-.928-.033-.327 0-.665.033-.971.033-.12 0-.142-.109-.022-.142.415-.109.513-.197.556-.513.012-.153.044-.426.044-.85V1.653c0-.393-.032-.655-.044-.84-.021-.142-.054-.197-.087-.24-.076-.077-.316-.11-.523-.13-.142-.012-.132-.12 0-.143zm1.33 2.041c0 .12.012.152.099.163.142.011.273.011.502.011.36 0 .83-.196.83-.818 0-.655-.437-1.234-1.201-1.234-.152 0-.175.033-.196.11-.022.065-.033.207-.033.71v1.058z" fill="#FEFEFE" mask="url(#b)"/></g></svg>