<svg width="146" height="146" viewBox="0 0 146 146" xmlns="http://www.w3.org/2000/svg"><title>Page 1</title><g fill="#00AC98" fill-rule="evenodd"><path d="M38.331 91.058a1.002 1.002 0 0 0-.733-1.21 1.002 1.002 0 0 0-1.21.733l-1.258 5.136a5.11 5.11 0 0 0 .93 4.256 5.13 5.13 0 0 0 3.91 2.002l19.533.025c1.35 0 2.325-.665 2.61-1.78.304-1.19-.278-2.653-1.302-3.212L38.634 85.902c0-.521-.002-1.084-.004-1.687-.034-8.974-.106-27.648 5.541-39.348 3.176-6.58 2.206-23.19 1.641-30.025a1.011 1.011 0 0 0-1.079-.915c-.55.046-.96.529-.915 1.079.431 5.206 1.597 22.683-1.448 28.99-5.848 12.118-5.775 31.103-5.74 40.227.003.845.006 1.613.004 2.293a1 1 0 0 0 .551.897L59.88 98.778c.155.102.392.625.29.966-.05.169-.276.256-.666.256l-19.495-.024a3.116 3.116 0 0 1-2.362-1.221 3.107 3.107 0 0 1-.57-2.578l1.254-5.12z"/><path d="M46.704 87.246a.999.999 0 0 0 1.214-.726l8.527-33.846c1.732-3.63 3.383-6.745 4.841-9.497 2.774-5.236 4.967-9.37 6.102-13.936a1.002 1.002 0 0 0-.73-1.212 1.003 1.003 0 0 0-1.212.73c-1.075 4.326-3.217 8.366-5.928 13.481-1.479 2.792-3.156 5.956-4.92 9.663-.03.06-.05.121-.068.186l-8.552 33.943a1 1 0 0 0 .726 1.214"/><path d="M41 130a1 1 0 0 0 1-1v-23h23a1 1 0 0 0 1-1V82h23a1 1 0 0 0 1-1V58h23a1 1 0 0 0 1-1V35.414l6.293 6.293a.997.997 0 0 0 1.414 0 .999.999 0 0 0 0-1.414l-7.999-7.999a1.001 1.001 0 0 0-1.416 0l-7.999 7.999a.999.999 0 1 0 1.414 1.414L112 35.414V56H89a1 1 0 0 0-1 1v23H65a1 1 0 0 0-1 1v23H41a1 1 0 0 0-1 1v23H28.11C11.516 114.44 2 94.418 2 73 2 45.281 18.199 20.045 43.341 8.473c8.864 12.742 28.71 20.567 34.455 22.625-8.373 8.698-15.595 27.392-15.911 28.22a1 1 0 0 0 .366 1.181l21.452 14.76c.091.16-.014.636-.162.785-8.314-.545-21.937-1.622-23.467-2.222a2.813 2.813 0 0 1-1.583-1.55c-.299-.716-.294-1.504-.027-2.131l3.308-6.002a1 1 0 1 0-1.752-.965l-3.35 6.088a4.798 4.798 0 0 0-.025 3.779 4.792 4.792 0 0 0 2.699 2.643c2.333.914 21.955 2.218 24.25 2.366.96 0 1.786-.763 2.055-1.9.263-1.103-.101-2.13-.908-2.584l-20.7-14.262c1.507-3.757 8.686-20.973 16.287-27.883a1.001 1.001 0 0 0-.364-1.692c-.259-.084-25.935-8.545-35.435-23.071A1 1 0 0 0 43.29 6.3C16.992 18.03 0 44.212 0 73c0 22.14 9.882 42.834 27.112 56.777.046.037.099.055.148.083.041.023.077.05.122.068a.99.99 0 0 0 .358.072H41z"/><path d="M73.558.002a1 1 0 0 0-.744 1.729L94.599 23.74c2.714 2.739 2.87 6.287.47 9.679L72.742 60.867a.998.998 0 0 0 .144 1.406.996.996 0 0 0 1.406-.144L96.66 34.628c3.013-4.252 2.774-8.849-.64-12.295L75.954 2.061C113.699 3.617 144 34.938 144 73c0 39.149-31.85 71-71 71-14.04 0-27.613-4.091-39.254-11.829a1 1 0 0 0-1.107 1.666C44.609 141.794 58.566 146 72.999 146c40.253 0 73-32.748 73-73C146 33.036 113.509.301 73.559.002"/></g></svg>