<svg width="146" height="146" viewBox="0 0 146 146" xmlns="http://www.w3.org/2000/svg"><title>Page 1</title><g fill="#00AC98" fill-rule="evenodd"><path d="M102 6c21.505 0 39 17.495 39 39s-17.495 39-39 39-39-17.495-39-39S80.495 6 102 6M61 45c0 22.607 18.393 41 41 41s41-18.393 41-41-18.393-41-41-41-41 18.393-41 41m-14-1c4.963 0 9 4.038 9 9 0 4.963-4.037 9-9 9s-9-4.037-9-9c0-4.962 4.037-9 9-9m0 20c6.065 0 11-4.935 11-11s-4.935-11-11-11-11 4.935-11 11 4.935 11 11 11m-11 3c0 1.102-.898 2-2 2-1.103 0-2-.898-2-2 0-1.103.897-2 2-2 1.102 0 2 .897 2 2m-6 0c0 2.206 1.794 4 4 4s4-1.794 4-4-1.794-4-4-4-4 1.794-4 4"/><path d="M102 14c17.094 0 31 13.907 31 31 0 17.094-13.906 31-31 31S71 62.094 71 45c0-17.093 13.906-31 31-31m0 64c18.196 0 33-14.804 33-33 0-18.196-14.804-33-33-33-18.196 0-33 14.804-33 33 0 18.196 14.804 33 33 33"/><path d="M102 22c12.683 0 23 10.318 23 23 0 12.683-10.317 23-23 23S79 57.683 79 45c0-12.682 10.317-23 23-23m0 48c13.785 0 25-11.215 25-25s-11.215-25-25-25-25 11.215-25 25 11.215 25 25 25"/><path d="M102 30c8.271 0 15 6.729 15 15s-6.729 15-15 15-15-6.729-15-15 6.729-15 15-15m0 32c9.374 0 17-7.626 17-17 0-9.374-7.626-17-17-17-9.374 0-17 7.626-17 17 0 9.374 7.626 17 17 17"/><path d="M102 38c3.859 0 7 3.14 7 7s-3.141 7-7 7-7-3.14-7-7 3.141-7 7-7m0 16c4.963 0 9-4.038 9-9s-4.037-9-9-9-9 4.038-9 9 4.037 9 9 9m42.65 4.952a1 1 0 0 0-1.964.383A71.634 71.634 0 0 1 144 73c0 39.15-31.85 71-71 71-8.967 0-17.699-1.647-25.96-4.896v-8.964c4.878.417 8.146-.242 10.255-2.037 2.78-2.368 2.968-6.264 3.17-10.389.02-.447.041-.898.067-1.352l2.888-1.915c.506-.337.83-.877.885-1.48a1.99 1.99 0 0 0-.598-1.618c-1.373-1.334-3.697-4.265-3.825-8.902-.278-10.01-4.025-13.874-4.184-14.033a1.002 1.002 0 0 0-1.684.484c-.039.174-4.03 17.15-15.805 17.633-.71-.958-2.486-2.975-4.845-2.975-1.624 0-2.899.462-3.788 1.375-.9.922-1.335 2.224-1.292 3.932.006 6.36 5.913 9.79 8.326 9.79a1 1 0 1 0 0-2c-1.25 0-6.32-2.506-6.326-7.793l-.002-.11c-.027-1.086.217-1.9.726-2.423.5-.512 1.291-.77 2.356-.77 1.58 0 3.044 1.81 3.474 2.506a.999.999 0 0 0 .853.48c5.738 0 10.73-3.358 14.432-9.708 1.63-2.794 2.666-5.564 3.247-7.385 1.002 1.844 2.354 5.356 2.512 11.052.15 5.344 2.84 8.735 4.431 10.28l-3.303 2.19c-.26.172-.425.46-.445.771-.039.632-.069 1.258-.1 1.874-.185 3.84-.345 7.157-2.467 8.964-1.79 1.525-5.018 2.003-9.848 1.462a.999.999 0 0 0-1.111.994v10.745a1 1 0 0 0 .625.927C54.351 144.22 63.548 146 73 146c40.252 0 73-32.748 73-73 0-4.724-.454-9.45-1.35-14.048"/><path d="M26.8 126.915c-3.178-2.854-12.453-12.557-12.453-28.527 0-18.257 18.312-22.255 25.368-22.255 20.83 0 22.449 10.589 22.449 13.834 0 1.732-.365 3.052-1.086 3.92a1 1 0 0 0 1.539 1.277c1.027-1.237 1.547-2.985 1.547-5.197 0-3.715-1.762-15.834-24.45-15.834-7.611 0-27.367 4.357-27.367 24.255 0 6.66 1.49 12.252 3.51 16.772C6.923 103.077 2 88.379 2 73 2 33.851 33.85 2 73 2c5.437 0 10.854.617 16.1 1.833a1 1 0 0 0 .452-1.948A73.376 73.376 0 0 0 73 0C32.748 0 0 32.748 0 73c0 21.119 9.028 40.985 24.887 54.899.989.919 1.659 1.423 1.779 1.512a.994.994 0 0 0 1.38-.191 1.001 1.001 0 0 0-.154-1.388 80.092 80.092 0 0 1-1.091-.917"/></g></svg>