<svg width="106" height="80" viewBox="0 0 106 80" xmlns="http://www.w3.org/2000/svg"><title>Page 1</title><g fill="none" fill-rule="evenodd"><path fill="#E2231A" d="M0 80h105.054V0H0z"/><path d="M52.377 29.726l-.955 3.119c-.057.14-.14.196-.28.196-.17 0-.282-.112-.282-.281 0-.14.027-.337.027-.478 0-1.826-1.095-2.696-2.528-2.696-2.754 0-5.985 4.579-5.985 8.148 0 1.488.618 2.528 1.995 2.528 1.77 0 3.961-1.18 4.861-2.697.14-.224.253-.31.422-.31.168 0 .308.14.196.422l-1.18 3.429c-.057.112-.169.139-.28.139-.113 0-.226-.085-.226-.253-.028-.477-.055-.843-.336-.843-.226 0-.507.113-.787.226-1.209.505-1.995.673-2.866.673-2.08 0-3.512-1.348-3.512-3.707 0-4.103 3.624-8.514 7.782-8.514.9 0 1.911.252 2.698 1.15.084.086.14.114.253.114.168 0 .393-.337.562-.563.112-.168.168-.196.253-.196.168 0 .252.14.168.394zm-.533 8.598c0-3.232 2.247-6.435 4.916-6.435 1.405 0 2.136 1.18 2.136 2.613 0 2.95-2.248 6.434-4.945 6.434-1.377 0-2.107-1.18-2.107-2.612zm1.123.674c0 .73.28 1.18.927 1.18 1.63 0 3.878-4.16 3.878-6.351 0-.73-.28-1.235-.927-1.235-1.63 0-3.878 4.018-3.878 6.406zm9.497-9.75c0 .14.113.225.253.225.225.028.591.055.786.113.085.027.113.084.113.14a.73.73 0 0 1-.085.28c-1.432 3.316-2.809 6.435-4.186 9.75-.083.197-.197.506-.197.73 0 .254.226.506.534.506.197 0 .45-.028.675-.112a4.839 4.839 0 0 0 2.163-1.49.354.354 0 0 0 .113-.252c0-.14-.056-.224-.169-.224-.057 0-.112.028-.197.084-.28.197-.646.562-1.264.899-.056.028-.169.084-.225.084-.056 0-.084-.028-.084-.084 0-.084.028-.14.056-.225l4.44-10.255c.084-.197.112-.31.112-.422 0-.112-.084-.168-.225-.168-.225 0-.646.028-.983.056-.28.028-.928.056-1.349.112-.168.028-.28.14-.28.253zM67.13 39.39a.36.36 0 0 0 .111-.253c0-.14-.056-.224-.168-.224-.056 0-.112.028-.196.084-.28.197-.647.562-1.265.899-.057.028-.169.084-.225.084-.056 0-.084-.028-.084-.084 0-.084.028-.14.056-.225l4.44-10.255c.084-.197.112-.31.112-.422 0-.112-.084-.168-.225-.168-.225 0-.646.028-.983.056-.282.028-.927.056-1.349.112-.169.028-.28.14-.28.253 0 .14.111.225.252.225.224.028.59.055.787.113.084.027.112.084.112.14a.742.742 0 0 1-.084.28c-1.433 3.316-2.81 6.435-4.187 9.75-.084.197-.196.506-.196.73 0 .254.225.506.533.506a2 2 0 0 0 .675-.112 4.842 4.842 0 0 0 2.164-1.49zm3.652-2.472c-.197.45-.422 1.039-.422 1.657 0 .87.422 1.405 1.152 1.405.984 0 1.8-.76 2.361-1.35.055-.055.14-.111.224-.111.141 0 .253.112.253.252 0 .114-.056.197-.112.28-.87 1.097-1.883 1.885-3.456 1.885-1.152 0-1.91-.815-1.91-1.968 0-3.371 3.456-6.855 5.985-6.855.87 0 1.488.394 1.488 1.264 0 1.292-1.068 2.333-3.119 2.978-.618.198-1.825.45-2.444.563zm.337-.703c.478-.056 1.21-.253 1.995-.505 1.151-.366 1.995-1.18 1.995-2.164 0-.478-.225-.731-.646-.731-.59 0-1.209.506-1.574.9-.646.646-1.236 1.432-1.77 2.5zm14.78.703c-.197.45-.422 1.039-.422 1.657 0 .87.421 1.405 1.151 1.405.985 0 1.8-.76 2.361-1.35.056-.055.141-.111.225-.111.141 0 .253.112.253.252 0 .114-.057.197-.112.28-.872 1.097-1.884 1.885-3.457 1.885-1.18 0-1.91-.815-1.91-1.968 0-3.371 3.455-6.855 5.985-6.855.87 0 1.49.394 1.49 1.264 0 1.292-1.07 2.333-3.119 2.978-.62.198-1.827.45-2.446.563zm.337-.703c.477-.056 1.207-.253 1.994-.505 1.152-.366 1.995-1.18 1.995-2.164 0-.478-.224-.731-.647-.731-.589 0-1.207.506-1.573.9-.646.646-1.235 1.432-1.769 2.5zm-7.7-2.613c.787-1.067 1.995-1.545 2.923-1.545.702 0 1.068.14 1.405.336a.524.524 0 0 0 .253.085c.14 0 .252-.085.365-.14.45-.281.87-.394 1.236-.394.393 0 .646.169.646.506 0 .338-.224.562-.505.562-.337 0-.618-.281-.983-.281-.338 0-.563.14-.563.337s.084.394.084.899c0 .479-.112.984-.337 1.49-.842 1.797-2.219 2.107-3.23 2.107-.338 0-.788-.113-1.125-.113-.617 0-.955.197-.955.619 0 .477.871.898 2.135 1.517 1.237.618 1.94 1.292 1.94 2.05 0 1.406-1.49 2.304-3.625 2.304-2.22 0-3.71-.898-3.71-2.078 0-1.21 1.771-1.911 2.838-2.191-.589-.422-.898-.76-.898-1.321 0-.732.76-1.125 1.348-1.265.337-.084.506-.141.506-.252 0-.057-.084-.142-.113-.197a2.488 2.488 0 0 1-.308-1.18c0-.562.112-1.07.673-1.855zm-2.613 8.289c0 .73.872 1.405 2.39 1.405 1.235 0 2.022-.535 2.022-1.293 0-.421-.14-.674-.927-1.152-.478-.281-1.096-.562-1.517-.787-.984.337-1.968.956-1.968 1.827zm3.092-5.957c0 .59.224.984.673.984.591 0 1.237-.281 2.024-1.602.422-.76.59-1.433.59-1.966 0-.507-.28-.788-.73-.788-.703 0-1.434.59-1.996 1.602-.393.703-.56 1.293-.56 1.77zM13.83 63.494h77.358v-1.02H13.83v1.02zm0 4.58h77.358v-1.98H13.83v1.98zm57.567-41.262c3.138 0 5.09-1.555 5.598-1.98V22.26c0-1.16.85-1.273 1.583-1.33.141 0 .226-.14.226-.31 0-.142-.085-.254-.282-.254H72.81c-.197 0-.34.112-.34.282 0 .198.143.339.34.339 1.132.085 2.036.283 2.036 1.386v1.725c0 .48-.17.735-.453.96-1.046.764-2.12.877-2.996.877-3.564 0-5.174-2.97-5.174-5.993 0-4.072 2.572-6.25 5.4-6.25 2.6 0 4.297 1.132 5.258 3.083.114.226.227.31.397.31.141 0 .254-.141.254-.31V13.72c0-.17-.113-.283-.254-.283-.17 0-.255.114-.312.283-.085.34-.255.566-.509.566-.17 0-.424-.142-.593-.255-1.16-.68-2.15-1.188-4.24-1.188-3.45 0-7.749 1.895-7.749 7.013 0 5.315 4.015 6.955 7.522 6.955zm9.076-11.847c.225 0 .51-.112.593-.34a.542.542 0 0 1 .057.228c0 .564-.453 1.102-1.216 1.413-.113.056-.197.14-.197.282 0 .142.14.226.31.199 1.244-.227 1.922-1.358 1.922-2.432 0-.961-.536-1.47-1.299-1.47-.509 0-1.188.254-1.188 1.102 0 .679.51 1.018 1.018 1.018zm2.657 11.564c.113 0 .197-.056.283-.197.084-.198.254-.51.537-.51.566 0 1.668.99 3.676.99 1.894 0 4.778-.707 4.778-4.128 0-1.414-.565-3.251-4.016-4.241-2.43-.707-3.194-1.583-3.194-2.8 0-1.074.735-1.95 2.32-1.95 1.158 0 2.374.537 3.222 2.29.085.169.17.226.283.226.142 0 .254-.113.226-.283l-.424-2.968c-.029-.198-.114-.255-.255-.255-.085 0-.169.057-.225.198-.086.227-.227.453-.509.453-.48 0-1.104-.51-2.46-.51-1.754 0-4.072.905-4.072 3.337 0 2.544 2.036 3.449 3.79 4.07 1.921.68 3.335 1.133 3.335 3.055 0 1.894-1.47 2.602-2.94 2.602-1.556 0-3.309-.736-3.988-3.027-.056-.197-.14-.31-.339-.31-.197 0-.31.113-.31.367v3.28c0 .199.113.31.282.31zm-43.203-.31c-.199.027-.31.112-.31.282 0 .14.111.226.31.226h4.976c.198 0 .311-.085.311-.226 0-.17-.113-.255-.31-.282-1.075-.143-1.386-.68-1.386-1.754V15.19c0-1.074.311-1.611 1.385-1.753.198-.027.311-.112.311-.282 0-.142-.113-.226-.31-.226h-4.977c-.199 0-.31.084-.31.226 0 .17.111.255.31.282 1.074.142 1.385.679 1.385 1.753v9.274c0 1.075-.31 1.61-1.385 1.754zm7.464.508h4.27c.113 0 .198-.113.198-.254a.267.267 0 0 0-.226-.254c-.905-.143-1.556-.34-1.669-2.008-.113-1.951-.17-9.076-.17-9.076L60.2 26.727h.65s0-8.284.113-11.281c.056-1.385.311-1.866 1.385-2.008.198-.027.312-.112.312-.282 0-.142-.114-.226-.312-.226H58.08c-.114 0-.199.112-.199.254 0 .113.085.227.227.254.904.142 1.554.339 1.668 2.008.141 1.95.17 7.464.17 7.464l-8.907-9.98h-3.534c-.199 0-.31.084-.31.226 0 .17.111.255.31.282.594.085 1.384.368 1.384 1.3 0 2.8 0 6.476-.112 9.473-.057 1.385-.312 1.865-1.386 2.008-.197.027-.31.112-.31.282 0 .14.113.226.31.226zm-23.468 14.08c.255 0 .424-.168.424-.395 0-.282-.169-.424-.48-.481-3.082-.424-3.563-1.753-3.703-3.336-.058-.678-.114-2.403-.114-4.213s.03-3.563.056-3.93c.028-.424.255-.566.482-.566.197 0 .395.085.536.199 1.923 1.61 7.833 8.652 11.197 12.723h7.182c.283 0 .395-.142.395-.368 0-.254-.17-.452-.395-.452-1.357-.142-2.206-.397-3.902-1.753-1.753-1.386-11.593-13.148-11.593-13.148.764-.876 5.288-5.485 7.89-7.832 3.053-2.77 4.24-3.138 5.541-3.45.197-.056.34-.17.34-.423 0-.255-.17-.453-.567-.453-.677 0-2.714.085-4.014.085-2.262 0-4.129-.085-4.524-.085-.34 0-.594.17-.594.453 0 .254.226.424.537.48.452.085.848.142 1.301.31.452.17.707.369.707.85 0 .452-.198.848-.453 1.244-.622.96-1.329 1.838-2.459 3.026-2.687 2.769-5.994 6.05-7.098 6.955-.112.084-.197.113-.282.113-.169 0-.227-.198-.227-.396 0-.226.028-5.372.085-8.822.028-1.583.283-2.912 3.365-3.336.311-.057.481-.198.481-.481 0-.226-.17-.396-.425-.396-1.922.085-2.77.085-5.145.085-2.036 0-4.637-.085-5.033-.085-.339 0-.538.142-.538.396 0 .227.17.396.481.424 1.103.17 2.8.424 2.912 3.619.03.99.058 5.882.058 11.197 0 3.42-.029 6.418-.085 7.803-.114 3.197-1.81 3.45-2.913 3.62-.31.028-.48.198-.48.424 0 .254.197.396.537.396.395 0 2.996-.085 5.032-.085 2.375 0 3.563 0 5.485.085zm-.084 17.399l.621-3.336c.058-.227-.056-.368-.225-.368-.14 0-.254.085-.31.226-.878 2.432-2.263 2.715-4.327 2.715-2.093 0-2.545-.34-2.545-1.301v-8.144c0-.96.82-1.215 1.414-1.243.17-.028.254-.113.254-.226 0-.141-.113-.254-.282-.254h-4.58c-.114 0-.199.085-.199.225 0 .114.113.227.254.227.934.056 1.273.679 1.273 1.583v7.86c0 .905-.339 1.5-1.273 1.583-.14 0-.254.113-.254.227 0 .14.085.226.198.226h9.981zm7.436-12.016c3.562 0 5.994 2.658 5.994 5.937 0 3.732-2.488 6.164-5.994 6.164-3.59 0-5.937-2.658-5.937-6.164 0-3.223 2.488-5.937 5.937-5.937zm0 .763c-2.516 0-3.93 2.234-3.93 5.174 0 3.139 1.584 5.4 3.93 5.4 2.403 0 3.986-1.64 3.986-5.4 0-3.053-1.753-5.174-3.986-5.174zm18.661 11.253l.056-9.896c0-.904.34-1.442 1.273-1.583.17-.028.254-.113.254-.227 0-.14-.084-.225-.198-.225h-3.732c-.14 0-.226.085-.226.225 0 .114.085.199.255.227.933.169 1.385.452 1.413 1.583l.142 6.786-7.52-8.821h-3.196c-.14 0-.226.085-.226.225 0 .142.085.227.254.255.791.113 1.16.367 1.16 1.13l-.058 8.286c0 .904-.338 1.44-1.27 1.582-.17.028-.256.113-.256.228 0 .14.056.225.198.225h3.732c.142 0 .227-.085.227-.225 0-.115-.085-.2-.255-.228-.65-.112-1.386-.282-1.414-1.582l-.085-8.342 8.822 10.377h.65zm4.071-2.035V48.31c0-.904-.339-1.5-1.27-1.583-.143 0-.256-.085-.256-.227 0-.14.085-.225.198-.225h5.683c3.393 0 6.673 1.582 6.673 5.852 0 4.807-4.128 6.079-6.616 6.079h-5.74c-.113 0-.198-.085-.198-.225 0-.115.085-.2.255-.228.932-.083 1.271-.678 1.271-1.582zm1.895-.396c0 1.442.763 1.667 1.554 1.667h.624c2.8 0 4.947-1.611 4.947-5.372 0-3.817-2.544-5.032-5.06-5.032-1.5 0-2.065.085-2.065 1.159v7.578zm10.716-3.648c0-3.223 2.488-5.937 5.938-5.937 3.562 0 5.994 2.658 5.994 5.937 0 3.732-2.489 6.164-5.994 6.164-3.59 0-5.938-2.658-5.938-6.164zm2.007 0c0 3.139 1.584 5.4 3.931 5.4 2.403 0 3.986-1.64 3.986-5.4 0-3.053-1.753-5.174-3.986-5.174-2.516 0-3.93 2.234-3.93 5.174zm23.948-5.852H88.84c-.14 0-.225.085-.225.225 0 .114.084.199.254.227.934.169 1.385.452 1.413 1.583l.142 6.786-7.52-8.821h-3.196c-.142 0-.226.085-.226.225 0 .142.084.227.254.255.791.113 1.16.367 1.16 1.13l-.057 8.286c0 .904-.339 1.44-1.273 1.582-.17.028-.254.113-.254.228 0 .14.056.225.198.225h3.732c.142 0 .226-.085.226-.225 0-.115-.084-.2-.254-.228-.65-.112-1.385-.282-1.414-1.582l-.085-8.342 8.822 10.377h.65l.056-9.896c0-.904.34-1.442 1.273-1.583.17-.028.255-.113.255-.227 0-.14-.085-.225-.199-.225z" fill="#FEFEFE"/></g></svg>