<svg width="70" height="48" viewBox="0 0 70 48" xmlns="http://www.w3.org/2000/svg"><title>Page 1</title><path d="M34.25 14.757l-.828 2.704c-.049.121-.122.17-.244.17-.146 0-.243-.097-.243-.244 0-.121.024-.292.024-.414 0-1.583-.95-2.338-2.192-2.338-2.387 0-5.188 3.97-5.188 7.064 0 1.29.536 2.191 1.729 2.191 1.535 0 3.434-1.023 4.214-2.337.121-.195.219-.269.366-.269.145 0 .267.122.169.366l-1.023 2.972c-.048.097-.145.121-.242.121-.098 0-.196-.074-.196-.22-.024-.413-.048-.73-.291-.73-.196 0-.439.097-.682.195-1.049.438-1.73.584-2.485.584-1.803 0-3.044-1.169-3.044-3.214 0-3.557 3.141-7.38 6.746-7.38.779 0 1.656.218 2.338.998.073.073.122.097.22.097.145 0 .34-.292.487-.487.097-.146.146-.17.219-.17.146 0 .219.122.146.341zm-.462 7.453c0-2.801 1.948-5.578 4.261-5.578 1.219 0 1.852 1.023 1.852 2.265 0 2.558-1.949 5.578-4.287 5.578-1.194 0-1.826-1.023-1.826-2.265zm.974.584c0 .633.243 1.023.803 1.023 1.413 0 3.362-3.605 3.362-5.505 0-.633-.244-1.071-.804-1.071-1.413 0-3.361 3.483-3.361 5.553zm8.232-8.451c0 .122.098.195.22.195.194.024.511.048.681.097.073.024.098.073.098.122a.645.645 0 0 1-.074.243c-1.241 2.874-2.435 5.578-3.629 8.452-.072.171-.17.439-.17.633 0 .22.195.438.463.438.17 0 .39-.024.585-.097a4.194 4.194 0 0 0 1.875-1.291.307.307 0 0 0 .098-.219c0-.121-.049-.194-.147-.194-.049 0-.097.024-.171.073-.243.17-.56.487-1.096.779-.048.024-.146.073-.194.073-.049 0-.073-.024-.073-.073 0-.073.024-.122.048-.195l3.849-8.89c.073-.171.097-.268.097-.366 0-.097-.073-.145-.194-.145-.196 0-.56.024-.853.048-.243.025-.804.049-1.169.097-.146.024-.244.122-.244.22zm4.044 8.792a.31.31 0 0 0 .096-.219c0-.121-.048-.194-.146-.194-.048 0-.097.024-.169.073-.244.17-.561.487-1.096.779-.05.024-.147.073-.196.073-.049 0-.073-.024-.073-.073 0-.073.024-.122.049-.195l3.848-8.89c.074-.171.098-.268.098-.366 0-.097-.073-.145-.195-.145-.195 0-.56.024-.852.048-.245.025-.804.049-1.17.097-.146.024-.244.122-.244.22 0 .122.098.195.22.195.195.024.512.048.682.097.073.024.097.073.097.122a.639.639 0 0 1-.073.243c-1.242 2.874-2.436 5.578-3.629 8.452-.072.171-.17.439-.17.633 0 .22.195.438.462.438.171 0 .39-.024.585-.097a4.192 4.192 0 0 0 1.876-1.291zm3.166-2.143c-.171.39-.366.901-.366 1.437 0 .755.366 1.218.999 1.218.853 0 1.559-.658 2.046-1.17.048-.048.122-.097.195-.097.122 0 .219.097.219.219 0 .099-.048.171-.097.244-.755.95-1.632 1.632-2.996 1.632-.999 0-1.656-.706-1.656-1.705 0-2.923 2.996-5.943 5.188-5.943.755 0 1.29.341 1.29 1.096 0 1.12-.925 2.022-2.703 2.581-.536.172-1.583.391-2.119.488zm.292-.609c.414-.049 1.048-.219 1.73-.438.998-.317 1.729-1.023 1.729-1.876 0-.414-.195-.633-.56-.633-.512 0-1.048.438-1.364.779-.56.561-1.072 1.242-1.535 2.168zm12.812.609c-.171.39-.365.901-.365 1.437 0 .755.365 1.218.998 1.218.853 0 1.56-.658 2.046-1.17.049-.048.122-.097.195-.097.122 0 .22.097.22.219 0 .099-.05.171-.098.244-.755.95-1.632 1.632-2.996 1.632-1.023 0-1.656-.706-1.656-1.705 0-2.923 2.995-5.943 5.188-5.943.755 0 1.291.341 1.291 1.096 0 1.12-.926 2.022-2.703 2.581-.537.172-1.584.391-2.12.488zm.292-.609c.415-.049 1.047-.219 1.729-.438.999-.317 1.73-1.023 1.73-1.876 0-.414-.195-.633-.561-.633-.511 0-1.046.438-1.363.779-.56.561-1.072 1.242-1.535 2.168zm-6.674-2.265c.682-.925 1.729-1.34 2.534-1.34.608 0 .926.122 1.217.292a.463.463 0 0 0 .22.074c.122 0 .218-.074.316-.122.39-.244.755-.341 1.072-.341.341 0 .56.146.56.438 0 .293-.195.488-.438.488-.293 0-.535-.245-.853-.245-.292 0-.487.123-.487.293 0 .17.073.342.073.779 0 .415-.097.853-.292 1.292-.731 1.558-1.924 1.826-2.801 1.826-.292 0-.682-.098-.975-.098-.535 0-.827.171-.827.537 0 .414.754.779 1.85 1.316 1.072.535 1.681 1.12 1.681 1.777 0 1.218-1.291 1.997-3.142 1.997-1.924 0-3.215-.779-3.215-1.802 0-1.048 1.534-1.656 2.46-1.9-.511-.365-.779-.657-.779-1.144 0-.635.658-.975 1.169-1.097.291-.073.438-.122.438-.219 0-.049-.073-.122-.098-.17a2.16 2.16 0 0 1-.267-1.023c0-.487.097-.926.584-1.608zm-2.265 7.186c0 .633.755 1.217 2.071 1.217 1.071 0 1.753-.463 1.753-1.12 0-.366-.121-.585-.803-.999-.415-.244-.95-.487-1.316-.682-.853.292-1.705.828-1.705 1.584zm2.68-5.164c0 .511.194.852.584.852.512 0 1.072-.243 1.754-1.388.365-.658.511-1.243.511-1.705 0-.439-.243-.682-.633-.682-.609 0-1.242.511-1.729 1.388-.342.609-.487 1.121-.487 1.535zM.833 44.03h67.06v-.883H.833v.883zm0 3.97h67.06v-1.716H.833V48zm49.904-35.769c2.72 0 4.412-1.348 4.853-1.716v-2.23c0-1.006.736-1.103 1.372-1.152.123 0 .196-.123.196-.27 0-.122-.073-.22-.245-.22h-4.951c-.171 0-.294.098-.294.245 0 .171.123.294.294.294.981.073 1.765.245 1.765 1.201v1.495c0 .416-.147.637-.392.833-.908.662-1.839.76-2.598.76-3.089 0-4.486-2.574-4.486-5.196 0-3.53 2.23-5.417 4.682-5.417 2.254 0 3.725.98 4.558 2.672.099.196.197.269.344.269.122 0 .22-.122.22-.269V.882c0-.146-.098-.245-.22-.245-.147 0-.221.099-.27.245-.074.295-.221.491-.441.491-.147 0-.368-.123-.515-.221C53.604.564 52.746.123 50.933.123c-2.991 0-6.717 1.642-6.717 6.079 0 4.607 3.481 6.029 6.521 6.029zm7.868-10.27c.195 0 .441-.097.514-.294a.472.472 0 0 1 .049.197c0 .489-.392.955-1.054 1.225-.098.048-.171.122-.171.245 0 .122.122.196.269.172 1.079-.197 1.666-1.177 1.666-2.108 0-.834-.464-1.275-1.126-1.275-.441 0-1.03.22-1.03.956 0 .588.441.882.883.882zm2.303 10.025c.098 0 .171-.049.246-.172.073-.171.22-.441.465-.441.491 0 1.446.858 3.186.858 1.642 0 4.143-.613 4.143-3.578 0-1.227-.49-2.819-3.481-3.677-2.108-.613-2.77-1.373-2.77-2.426 0-.932.638-1.692 2.011-1.692 1.004 0 2.059.466 2.794 1.986.073.146.147.196.245.196.123 0 .22-.099.196-.246L67.575.221C67.551.05 67.477 0 67.354 0c-.073 0-.146.05-.195.172-.074.196-.197.392-.441.392-.417 0-.957-.441-2.133-.441-1.52 0-3.53.784-3.53 2.892 0 2.206 1.765 2.99 3.285 3.529 1.666.589 2.892.982 2.892 2.648 0 1.642-1.275 2.255-2.549 2.255-1.348 0-2.868-.638-3.456-2.624-.049-.17-.123-.269-.294-.269-.172 0-.269.099-.269.319v2.843c0 .172.097.27.244.27zm-37.452-.27c-.172.025-.269.098-.269.245 0 .123.097.197.269.197h4.314c.172 0 .27-.074.27-.197 0-.147-.098-.22-.27-.245-.931-.123-1.201-.588-1.201-1.52V2.157c0-.931.27-1.397 1.201-1.519.172-.024.27-.098.27-.245 0-.123-.098-.196-.27-.196h-4.314c-.172 0-.269.073-.269.196 0 .147.097.221.269.245.931.122 1.201.588 1.201 1.519v8.039c0 .932-.27 1.397-1.201 1.52zm6.471.442h3.701c.098 0 .172-.099.172-.221 0-.098-.074-.196-.196-.221-.784-.123-1.349-.293-1.447-1.74-.098-1.691-.147-7.868-.147-7.868l9.021 10.05h.563s0-7.182.098-9.78c.048-1.201.27-1.618 1.201-1.74.171-.024.27-.098.27-.245 0-.123-.099-.196-.27-.196h-3.7c-.099 0-.173.097-.173.22 0 .098.074.197.197.221.784.122 1.347.294 1.446 1.74.123 1.691.148 6.471.148 6.471L33.09.197h-3.064c-.172 0-.27.073-.27.196 0 .147.098.221.27.245.514.073 1.2.318 1.2 1.127 0 2.427 0 5.613-.098 8.211-.049 1.201-.27 1.617-1.201 1.74-.171.025-.27.098-.27.245 0 .123.099.197.27.197zM9.583 24.364c.221 0 .368-.147.368-.343 0-.245-.147-.368-.416-.417-2.672-.368-3.089-1.52-3.211-2.892-.05-.589-.098-2.083-.098-3.652s.024-3.089.048-3.407c.025-.368.221-.491.418-.491.171 0 .342.074.465.172 1.667 1.397 6.79 7.5 9.706 11.03h6.226c.245 0 .343-.123.343-.319 0-.22-.148-.392-.343-.392-1.176-.123-1.912-.344-3.383-1.52-1.519-1.201-10.049-11.397-10.049-11.397.662-.759 4.584-4.755 6.838-6.79 2.648-2.401 3.677-2.72 4.804-2.99.172-.049.294-.147.294-.367 0-.221-.147-.393-.49-.393-.587 0-2.353.074-3.48.074-1.961 0-3.579-.074-3.921-.074-.295 0-.515.148-.515.393 0 .22.195.367.465.416.392.074.735.123 1.128.27.392.147.613.318.613.735 0 .392-.172.735-.393 1.079-.539.833-1.152 1.593-2.132 2.623-2.329 2.401-5.196 5.244-6.152 6.029-.098.073-.172.098-.245.098-.147 0-.197-.172-.197-.343 0-.196.025-4.657.074-7.647.024-1.373.245-2.525 2.917-2.893.27-.049.417-.171.417-.416 0-.196-.147-.344-.368-.344C7.647.27 6.912.27 4.853.27 3.089.27.833.196.49.196.196.196.024.319.024.54c0 .196.147.342.417.367.956.148 2.427.368 2.525 3.137.024.858.049 5.099.049 9.707 0 2.965-.025 5.563-.073 6.764-.099 2.771-1.57 2.991-2.526 3.138-.269.024-.416.172-.416.368 0 .22.171.343.466.343.343 0 2.597-.074 4.363-.074 2.058 0 3.088 0 4.754.074zM9.51 39.446l.539-2.893c.049-.196-.049-.318-.196-.318-.122 0-.22.073-.269.196-.76 2.108-1.961 2.353-3.75 2.353-1.815 0-2.206-.295-2.206-1.127v-7.06c0-.833.711-1.054 1.226-1.078.147-.024.22-.098.22-.196 0-.122-.099-.22-.245-.22H.858c-.098 0-.172.073-.172.195 0 .099.098.197.221.197.809.048 1.103.589 1.103 1.372v6.814c0 .784-.294 1.3-1.103 1.372-.123 0-.221.098-.221.197 0 .122.074.196.172.196H9.51zm6.446-10.417c3.088 0 5.196 2.304 5.196 5.147 0 3.235-2.156 5.343-5.196 5.343-3.112 0-5.147-2.304-5.147-5.343 0-2.794 2.157-5.147 5.147-5.147zm0 .661c-2.181 0-3.407 1.937-3.407 4.486 0 2.721 1.373 4.681 3.407 4.681 2.084 0 3.456-1.421 3.456-4.681 0-2.647-1.52-4.486-3.456-4.486zm16.177 9.756l.049-8.579c0-.784.294-1.25 1.103-1.372.147-.025.22-.099.22-.197 0-.122-.073-.195-.171-.195h-3.235c-.123 0-.196.073-.196.195 0 .098.073.172.22.197.809.146 1.201.391 1.225 1.372l.124 5.883-6.52-7.647h-2.77c-.122 0-.196.073-.196.195 0 .123.074.197.22.221.686.098 1.005.319 1.005.981l-.049 7.181c0 .784-.294 1.25-1.102 1.372-.148.024-.221.098-.221.197 0 .122.049.196.171.196h3.235c.124 0 .197-.074.197-.196 0-.099-.073-.173-.221-.197-.563-.097-1.201-.245-1.225-1.372l-.074-7.231 7.647 8.996h.564zm3.529-1.765v-6.814c0-.784-.294-1.299-1.102-1.372-.123 0-.221-.074-.221-.197 0-.122.074-.195.172-.195h4.927c2.94 0 5.784 1.371 5.784 5.073 0 4.167-3.579 5.27-5.736 5.27h-4.975c-.098 0-.172-.074-.172-.196 0-.099.074-.172.221-.197.808-.072 1.102-.588 1.102-1.372zm1.643-.343c0 1.25.661 1.446 1.347 1.446h.541c2.426 0 4.288-1.397 4.288-4.657 0-3.309-2.205-4.363-4.387-4.363-1.299 0-1.789.074-1.789 1.005v6.569zm9.289-3.162c0-2.794 2.157-5.147 5.148-5.147 3.088 0 5.195 2.304 5.195 5.147 0 3.235-2.156 5.343-5.195 5.343-3.113 0-5.148-2.304-5.148-5.343zm1.74 0c0 2.721 1.373 4.681 3.408 4.681 2.083 0 3.455-1.421 3.455-4.681 0-2.647-1.52-4.486-3.455-4.486-2.181 0-3.408 1.937-3.408 4.486zm20.761-5.073h-3.236c-.122 0-.195.073-.195.195 0 .098.073.172.22.197.809.146 1.201.391 1.225 1.372l.123 5.883-6.52-7.647h-2.769c-.123 0-.196.073-.196.195 0 .123.073.197.22.221.686.098 1.005.319 1.005.981l-.049 7.181c0 .784-.294 1.25-1.103 1.372-.148.024-.221.098-.221.197 0 .122.049.196.172.196h3.235c.123 0 .196-.074.196-.196 0-.099-.073-.173-.22-.197-.564-.097-1.201-.245-1.226-1.372l-.073-7.231 7.647 8.996h.564l.048-8.579c0-.784.295-1.25 1.104-1.372.147-.025.221-.099.221-.197 0-.122-.074-.195-.172-.195z" fill="#FEFEFE" fill-rule="evenodd"/></svg>