<svg width="146" height="146" viewBox="0 0 146 146" xmlns="http://www.w3.org/2000/svg"><title>Page 1</title><g fill="#00AC98" fill-rule="evenodd"><path d="M22 31a1 1 0 0 0-1-1h-1.444a1 1 0 1 0 0 2H20v6a1 1 0 0 0-1 1v7h-4v-7a1 1 0 1 0-2 0v8a1 1 0 0 0 1 1h6a1 1 0 0 0 1-1v-7a1 1 0 0 0 1-1v-8zm6-6a1.001 1.001 0 0 1 2 0 1.001 1.001 0 0 1-2 0m4 0c0-1.654-1.346-3-3-3s-3 1.346-3 3 1.346 3 3 3 3-1.346 3-3m0 13a1 1 0 0 0-1 1v7h-4v-7a1 1 0 0 0-1-1v-6h6v6zm2-7a1 1 0 0 0-1-1h-8a1 1 0 0 0-1 1v8a1 1 0 0 0 1 1v7a1 1 0 0 0 1 1h6a1 1 0 0 0 1-1v-7a1 1 0 0 0 1-1v-8zM16 55a1 1 0 1 1 2 0 1 1 0 0 1-2 0m4 0c0-1.654-1.346-3-3-3s-3 1.346-3 3 1.346 3 3 3 3-1.346 3-3m0 13a1 1 0 0 0-1 1v7h-4v-7a1 1 0 0 0-1-1v-6h6v6zm2-7a1 1 0 0 0-1-1h-8a1 1 0 0 0-1 1v8a1 1 0 0 0 1 1v7a1 1 0 0 0 1 1h6a1 1 0 0 0 1-1v-7a1 1 0 0 0 1-1v-8zm6-6a1 1 0 1 1 2 0 1 1 0 0 1-2 0m4 0c0-1.654-1.346-3-3-3s-3 1.346-3 3 1.346 3 3 3 3-1.346 3-3m0 13a1 1 0 0 0-1 1v7h-4v-7a1 1 0 0 0-1-1v-6h6v6zm2-7a1 1 0 0 0-1-1h-8a1 1 0 0 0-1 1v8a1 1 0 0 0 1 1v7a1 1 0 0 0 1 1h6a1 1 0 0 0 1-1v-7a1 1 0 0 0 1-1v-8zM16 85a1 1 0 1 1 2 0 1 1 0 0 1-2 0m4 0c0-1.654-1.346-3-3-3s-3 1.346-3 3 1.346 3 3 3 3-1.346 3-3m-1 14v5a1 1 0 1 0 2 0v-4a1 1 0 0 0 1-1v-8a1 1 0 0 0-1-1h-8a1 1 0 0 0-1 1v8a1 1 0 0 0 1 1v7a1 1 0 0 0 1 1h3.345a1 1 0 1 0 0-2H15v-7a1 1 0 0 0-1-1v-6h6v6a1 1 0 0 0-1 1m-9-38a1 1 0 0 0-1-1H6.061a1 1 0 1 0 0 2H8v6a1 1 0 0 0-1 1v7H5.117a1 1 0 1 0 0 2H8a1 1 0 0 0 1-1v-7a1 1 0 0 0 1-1v-8zM5.706 87.12a.998.998 0 0 0 1.414.002C7.687 86.557 8 85.803 8 85a2.991 2.991 0 0 0-1.865-2.778 1.003 1.003 0 0 0-1.305.546 1.002 1.002 0 0 0 .547 1.305A.997.997 0 0 1 6 85a.992.992 0 0 1-.292.706.999.999 0 0 0-.002 1.414M9 96.99a1 1 0 0 0 1-1V91a1 1 0 0 0-1-1H7.418a1 1 0 1 0 0 2H8v3.99a1 1 0 0 0 1 1M28 85a1 1 0 1 1 2 0 1 1 0 0 1-2 0m4 0c0-1.654-1.346-3-3-3s-3 1.346-3 3 1.346 3 3 3 3-1.346 3-3m-8 6v8a1 1 0 1 0 2 0v-7h7a1 1 0 1 0 0-2h-8a1 1 0 0 0-1 1m32 24a1 1 0 1 1 2 0 1 1 0 0 1-2 0m4 0c0-1.654-1.346-3-3-3s-3 1.346-3 3 1.346 3 3 3 3-1.346 3-3m-6 7h6v6a1 1 0 0 0-1 1v7h-4v-7a1 1 0 0 0-1-1v-6zm0 16h6a1 1 0 0 0 1-1v-7a1 1 0 0 0 1-1v-8a1 1 0 0 0-1-1h-8a1 1 0 0 0-1 1v8a1 1 0 0 0 1 1v7a1 1 0 0 0 1 1zm-7-9v7.239a1 1 0 1 0 2 0V130a1 1 0 0 0 1-1v-8a1 1 0 0 0-1-1h-2.344a1 1 0 1 0 0 2H48v6a1 1 0 0 0-1 1m-5 5.515a1 1 0 0 0 1-1V129a1 1 0 0 0-1-1v-1.343a1 1 0 1 0-2 0V129a1 1 0 0 0 1 1v3.515a1 1 0 0 0 1 1M121 107v-3.383a1 1 0 1 0-2 0V106h-5a1 1 0 1 0 0 2h6a1 1 0 0 0 1-1m5-9a1 1 0 0 0-1 1v8a1 1 0 0 0 1 1h6a1 1 0 0 0 1-1v-7a1 1 0 0 0 1-1v-7.396a1 1 0 1 0-2 0V98a1 1 0 0 0-1 1v7h-4v-7a1 1 0 0 0-1-1m-58 17a1 1 0 1 1 2 0 1 1 0 0 1-2 0m4 0c0-1.654-1.346-3-3-3s-3 1.346-3 3 1.346 3 3 3 3-1.346 3-3m-6 7h6v6a1 1 0 0 0-1 1v7h-4v-7a1 1 0 0 0-1-1v-6zm0 16h6a1 1 0 0 0 1-1v-7a1 1 0 0 0 1-1v-8a1 1 0 0 0-1-1h-8a1 1 0 0 0-1 1v8a1 1 0 0 0 1 1v7a1 1 0 0 0 1 1zm14-23a1 1 0 1 1 2 0 1 1 0 0 1-2 0m4 0c0-1.654-1.346-3-3-3s-3 1.346-3 3 1.346 3 3 3 3-1.346 3-3m-6 7h6v6a1 1 0 0 0-1 1v7h-4v-7a1 1 0 0 0-1-1v-6zm0 16h6a1 1 0 0 0 1-1v-7a1 1 0 0 0 1-1v-8a1 1 0 0 0-1-1h-8a1 1 0 0 0-1 1v8a1 1 0 0 0 1 1v7a1 1 0 0 0 1 1zm14-23a1 1 0 1 1 2 0 1 1 0 0 1-2 0m4 0c0-1.654-1.346-3-3-3s-3 1.346-3 3 1.346 3 3 3 3-1.346 3-3m-6 7h6v6a1 1 0 0 0-1 1v7h-4v-7a1 1 0 0 0-1-1v-6zm0 16h6a1 1 0 0 0 1-1v-7a1 1 0 0 0 1-1v-8a1 1 0 0 0-1-1h-8a1 1 0 0 0-1 1v8a1 1 0 0 0 1 1v7a1 1 0 0 0 1 1zm14-23a1 1 0 1 1 2 0 1 1 0 0 1-2 0m4 0c0-1.654-1.346-3-3-3s-3 1.346-3 3 1.346 3 3 3 3-1.346 3-3m-1 14v2.283a1 1 0 1 0 2 0V130a1 1 0 0 0 1-1v-8a1 1 0 0 0-1-1h-8a1 1 0 0 0-1 1v8a1 1 0 0 0 1 1v4.501a1 1 0 1 0 2 0V129a1 1 0 0 0-1-1v-6h6v6a1 1 0 0 0-1 1m11-14a1 1 0 1 1-2 0 1 1 0 0 1 2 0m-4 0c0 1.654 1.346 3 3 3s3-1.346 3-3-1.346-3-3-3-3 1.346-3 3m-2 6v6.96a1 1 0 1 0 2 0V122h7a1 1 0 1 0 0-2h-8a1 1 0 0 0-1 1m17-63c0 7.007-4.034 7.983-4.196 8.02A1 1 0 0 0 124 67c0 8.516-8.664 15-13 15a1 1 0 1 0 0 2c5.635 0 14.518-7.376 14.981-16.275C127.571 67.063 131 64.843 131 58a1 1 0 1 0-2 0"/><path d="M117 84a1 1 0 0 0-1 1v1.27c-.948.277-2.833.73-5 .73-2.157 0-4.05-.455-5.001-.731V81c0-.339-.173-.656-.458-.841-.075-.048-7.542-4.973-7.542-13.159a1 1 0 1 0-2 0c0 8.138 6.22 13.232 8 14.523V87c0 .009.005.016.005.025.002.067.024.129.039.194.015.063.02.128.045.186.022.048.059.086.088.131.041.062.076.129.13.181.034.033.081.052.12.081.066.048.13.098.207.128.007.003.011.009.018.012.117.042 2.895 1.062 6.349 1.062s6.232-1.02 6.349-1.062c.007-.003.011-.009.018-.012.075-.03.137-.079.201-.125.042-.03.091-.05.127-.085.048-.047.079-.108.117-.165.034-.05.076-.093.101-.148.021-.049.024-.104.037-.156.02-.075.044-.148.046-.226 0-.008.004-.014.004-.021v-2a1 1 0 0 0-1-1"/><path d="M92.999 82H99a1 1 0 1 0 0-2h-5.001V59.97c23.734-.63 27.455-23.305 27.49-23.537a1 1 0 0 0-1.977-.3C119.375 37.026 115.899 58 92.999 58a1 1 0 0 0-1 1v22a1 1 0 0 0 1 1"/><path d="M92.999 56a1 1 0 0 0 1-1v-8c0-9.374 7.654-17 17.062-17 9.409 0 17.063 7.626 17.063 17v5.96c-6.046-.405-6.414-4.913-6.427-5.115a1 1 0 0 0-1.997.104c.004.071.449 7.051 9.299 7.051.022 0 .041-.011.063-.013.021.002.04.013.062.013a1 1 0 0 0 1-1v-7c0-10.477-8.552-19-19.063-19-10.51 0-19.062 8.523-19.062 19v8a1 1 0 0 0 1 1M75 82a1 1 0 0 0-1 1v3.331c-1.193.361-3.895 1.058-7 1.058-3.162 0-5.904-.722-7.063-1.078V79c0-.553-.447-1-.999-1-3.86 0-7-3.141-7-7v-8a1 1 0 0 0-1-1c-1.081 0-1.917-.347-2.555-1.059-1.936-2.158-1.456-6.785-1.451-6.832a.995.995 0 0 0 .006-.109c0-1.103.897-2 2-2a1 1 0 0 0 1-1v-6c0-8.271 6.728-15 14.999-15h4.001c8.271 0 15 6.729 15 15v6a1 1 0 0 0 1 1c1.102 0 2 .897 2 2 0 .036.001.073.005.109.161 1.475.14 5.646-1.863 7.219-.575.452-1.275.672-2.143.672a1 1 0 0 0-1 1v8c0 3.859-3.14 7-6.999 7H63a1 1 0 1 0 0 2h11.938c4.962 0 9-4.037 9-9v-7.076a5.075 5.075 0 0 0 2.377-1.024c3.164-2.484 2.689-8.286 2.623-8.956a4.007 4.007 0 0 0-3-3.817V45c0-9.374-7.626-17-17-17h-4.001c-9.374 0-16.999 7.626-16.999 17v5.127a4.005 4.005 0 0 0-3 3.817c-.061.616-.472 5.619 1.953 8.328.811.908 1.833 1.46 3.047 1.652V71c0 4.625 3.505 8.445 8 8.944V87c0 .301.138.562.348.745.101.105.22.194.365.248.154.057 3.803 1.396 8.349 1.396s8.195-1.339 8.349-1.396a.992.992 0 0 0 .642-.946c0-.017.009-.03.009-.047v-4a1 1 0 0 0-1-1m42.597-9.198a.999.999 0 0 0-1.192-1.605C116.38 71.215 113.925 73 111 73c-2.905 0-5.345-1.76-5.403-1.802a1 1 0 0 0-1.193 1.604c.12.09 2.993 2.198 6.596 2.198 3.604 0 6.477-2.108 6.597-2.198"/><path d="M73.41 70.444a1 1 0 0 0-.942-1.765c-.026.014-2.525 1.321-5.53 1.321-3.007 0-5.506-1.307-5.53-1.32a1 1 0 0 0-.941 1.765c.117.062 2.947 1.555 6.47 1.555 3.524 0 6.354-1.493 6.472-1.556m30.439 19.026a.998.998 0 0 0-1.378-.317l-16 10a1 1 0 1 0 1.06 1.695l16-10a1 1 0 0 0 .318-1.378m-17.016 7.085a1 1 0 0 0-.277-1.387l-9-6a1 1 0 0 0-1.11 1.664l9 6a.998.998 0 0 0 1.387-.277m-43.897-8.077a.999.999 0 1 0-1.413-1.413l-26.668 26.668C6.447 101.76 2 87.707 2 72.999 2 33.851 33.85 2 73 2c2.805 0 5.63.167 8.4.492a1 1 0 1 0 .234-1.986A73.922 73.922 0 0 0 72.998 0C32.748 0 0 32.748 0 73c0 15.526 4.81 30.352 13.91 42.873.016.022.043.03.061.052.018.02.024.044.042.063.044.044.1.066.15.1.052.035.097.078.154.102a.976.976 0 0 0 .318.075c.03.002.054.02.083.02a.984.984 0 0 0 .35-.072c.03-.01.057-.03.088-.044.05-.025.103-.043.15-.077.023-.015.034-.041.055-.06.02-.018.046-.024.067-.044L42.934 88.48z"/><path d="M43 57c0-25.364 20.636-46 46-46s46 20.636 46 46-20.636 46-46 46-46-20.636-46-46m94 0c0-26.467-21.532-48-48-48S41 30.533 41 57c0 26.468 21.532 48 48 48s48-21.532 48-48M45.252 90.403a.999.999 0 0 0-1.414 0l-13.545 13.545a.999.999 0 1 0 1.414 1.414l13.545-13.545a.999.999 0 0 0 0-1.414"/><path d="M145.535 64.71a1.005 1.005 0 0 0-1.106-.882 1.002 1.002 0 0 0-.882 1.107c.301 2.662.453 5.376.453 8.065 0 39.149-31.85 71-71 71-21.426 0-41.489-9.533-55.048-26.154a1 1 0 0 0-1.55 1.263C30.342 136.199 50.972 146 73 146c40.252 0 73-32.748 73-73 0-2.764-.156-5.553-.465-8.29"/><path d="M36 57c0 16.812 7.714 32.257 21.164 42.377a1 1 0 1 0 1.203-1.598C45.424 88.04 38 73.177 38 57 38 28.878 60.879 6 89 6s51 22.878 51 51c0 28.121-22.879 51-51 51-9.729 0-19.188-2.749-27.355-7.95-.022-.014-.048-.015-.07-.027a.95.95 0 0 0-.222-.085 1.03 1.03 0 0 0-.145-.028.959.959 0 0 0-.227.006.897.897 0 0 0-.153.029.933.933 0 0 0-.192.084.896.896 0 0 0-.156.103c-.025.02-.055.029-.078.052l-27.503 27.503a1 1 0 0 0 1.414 1.414l26.944-26.944A52.822 52.822 0 0 0 89 110c29.225 0 53-23.775 53-53 0-29.224-23.775-53-53-53S36 27.776 36 57"/></g></svg>