<svg width="96" height="97" viewBox="0 0 96 97" xmlns="http://www.w3.org/2000/svg"><title>Page 1</title><path d="M55.092 73.887s10.555 0 10.555-10.556c0-8.576-3.299-9.895-3.299-9.895s3.299-1.98 3.299-10.556c0-7.917-5.278-10.556-5.278-10.556 0-4.348-.346-9.301 0-12.204.678-5.686 1.96-7.257-.659-7.257-3.958 0-9.236 5.277-9.236 18.142H35.969c-11.214 0-10.554 7.917-10.554 7.917s0 5.937 5.277 5.937c0 0-5.277-.659-5.277 3.959 0 5.277 5.277 5.277 5.277 5.277.981-.245-3.965-.414-3.965 4.618 0 5.278 5.277 5.278 5.277 5.278s-2.639.66-2.639 4.618c0 4.618 5.278 4.618 5.278 4.618h12.533s5.277 0 5.277-4.618-5.277-4.618-5.277-4.618H36.622m11.873 0s5.937.66 5.937-4.618c0-5.278-5.316-4.618-5.277-4.618H36.622m12.533 0s5.937.66 5.937-4.618c0-5.278-5.277-4.618-5.277-4.618H36.622m11.214 0s5.277 0 5.277-4.618-5.277-4.618-5.277-4.618H32.004m36.281 1.319h26.386M68.285 71.248h21.769m-34.962 2.639h-1.979M94.72 37.602C89.793 16.624 70.975 1 48.495 1 22.264 1 1 22.267 1 48.5 1 74.734 22.264 96 48.495 96c17.99 0 33.642-10.004 41.702-24.752" stroke="#0064D2" stroke-width="2" fill="none" fill-rule="evenodd" stroke-linecap="round" stroke-linejoin="round"/></svg>