<svg width="32" height="32" viewBox="0 0 32 32" xmlns="http://www.w3.org/2000/svg" xmlns:xlink="http://www.w3.org/1999/xlink"><title>Page 1</title><defs><path d="M0 16c0 8.837 7.163 16 16 16 8.836 0 16-7.163 16-16 0-8.836-7.164-16-16-16C7.163 0 0 7.164 0 16z" id="a"/></defs><g fill="none" fill-rule="evenodd"><path stroke="#CCC2BA" stroke-width="2" stroke-linecap="round" stroke-linejoin="round" d="M15 12l5 12v-5h-5z"/><mask id="b" fill="#fff"><use xlink:href="#a"/></mask><path fill="#CCC2BA" mask="url(#b)" d="M12 22h6v-1h-6z"/><path fill="#CCC2BA" mask="url(#b)" d="M12 22h1v-9h-1zm4.5-13.5a1.5 1.5 0 1 0-3.001.001A1.5 1.5 0 0 0 16.5 8.5"/><path d="M28 16c0 6.627-5.373 12-12 12S4 22.627 4 16 9.373 4 16 4s12 5.373 12 12" fill="#CCC2BA" mask="url(#b)"/><path stroke="#FFF" stroke-width="2" stroke-linecap="round" stroke-linejoin="round" mask="url(#b)" d="M15 12v7h5v5"/><path fill="#FFF" mask="url(#b)" d="M12 22h6v-1h-6z"/><path fill="#FFF" mask="url(#b)" d="M12 22h1v-9h-1zm4.5-13.5a1.5 1.5 0 1 0-3.001.001A1.5 1.5 0 0 0 16.5 8.5"/><path d="M16 31c8.271 0 15-6.729 15-15S24.271 1 16 1 1 7.729 1 16s6.729 15 15 15z" stroke="#CCC2BA" stroke-width="2"/></g></svg>