<svg width="441" height="32" viewBox="0 0 441 32" xmlns="http://www.w3.org/2000/svg"><title>Page 1</title><g fill="none" fill-rule="evenodd"><path d="M436 8H4a4 4 0 0 0-4 4v4a4 4 0 0 1 4-4h432a4 4 0 0 1 4 4v-4a4 4 0 0 0-4-4" fill="#E6E1DD"/><path d="M4.001 8.5c-.143.001-3.5.059-3.5 3.5v8c0 .142.057 3.5 3.5 3.5h432c.14-.001 3.5-.059 3.5-3.5v-8c-.002-.142-.06-3.5-3.5-3.5H4z" stroke="#CCC2BA"/><path d="M220 31.5c8.547 0 15.5-6.953 15.5-15.5S228.547.5 220 .5 204.5 7.453 204.5 16s6.953 15.5 15.5 15.5" fill="#FEFEFE"/><path d="M220 31.5c8.547 0 15.5-6.953 15.5-15.5S228.547.5 220 .5 204.5 7.453 204.5 16s6.953 15.5 15.5 15.5z" stroke="#CCC2BA"/></g></svg>