<svg width="340" height="24" viewBox="0 0 340 24" xmlns="http://www.w3.org/2000/svg" xmlns:xlink="http://www.w3.org/1999/xlink"><title>Page 1</title><defs><path id="a" d="M21.644 24H.844V0h20.8z"/><path id="c" d="M19.716.334v23.332H.216V.334h19.5z"/></defs><g fill="none" fill-rule="evenodd"><path d="M68.947 23.416a.802.802 0 0 1-.25-.582V1.166c0-.243.084-.443.25-.598a.827.827 0 0 1 .583-.234h4.768a.81.81 0 0 1 .6.233.808.808 0 0 1 .233.6v21.667a.827.827 0 0 1-.234.582.782.782 0 0 1-.599.25H69.53a.798.798 0 0 1-.583-.25m242.536 0a.802.802 0 0 1-.25-.582V1.166c0-.243.084-.443.25-.598a.827.827 0 0 1 .583-.234h4.768a.81.81 0 0 1 .6.233.808.808 0 0 1 .233.6v21.667a.827.827 0 0 1-.234.582.782.782 0 0 1-.599.25h-4.768a.798.798 0 0 1-.583-.25m-304.499.017a.781.781 0 0 1-.25-.6V5.767H.867a.87.87 0 0 1-.617-.233.785.785 0 0 1-.25-.601V1.2C0 .956.085.75.25.584a.835.835 0 0 1 .617-.25h18.1c.244 0 .45.083.616.25a.837.837 0 0 1 .25.616v3.733a.786.786 0 0 1-.25.6.87.87 0 0 1-.616.234H13.1v17.066a.784.784 0 0 1-.25.6.87.87 0 0 1-.617.234H7.6a.866.866 0 0 1-.615-.234m15.281-.017a.798.798 0 0 1-.25-.582V1.2a.87.87 0 0 1 .233-.616.781.781 0 0 1 .6-.25h9.167c2.933 0 5.227.666 6.883 2 1.655 1.333 2.483 3.211 2.483 5.633 0 1.556-.361 2.878-1.083 3.967-.723 1.088-1.717 1.933-2.983 2.533l4.499 8.132a.83.83 0 0 1 .1.367.691.691 0 0 1-.2.483.65.65 0 0 1-.5.217h-4.699c-.645 0-1.101-.3-1.367-.9l-3.667-7.232h-3.199v7.3a.78.78 0 0 1-.251.599.862.862 0 0 1-.616.233h-4.567a.798.798 0 0 1-.583-.25zm9.716-12.783c.955 0 1.684-.237 2.183-.716.5-.479.751-1.139.751-1.983 0-.846-.251-1.522-.751-2.035-.499-.51-1.228-.766-2.183-.766h-3.699v5.5h3.699zM43.399 23.45a.667.667 0 0 1-.217-.483c0-.134.01-.234.033-.301L50.982 1.3c.222-.645.667-.967 1.333-.967h5.2c.667 0 1.11.322 1.334.967l7.766 21.365c.022.067.033.167.033.3a.67.67 0 0 1-.216.484.67.67 0 0 1-.484.217h-4.333c-.533 0-.911-.245-1.133-.734l-1.2-3.233h-8.733l-1.2 3.233c-.223.489-.6.734-1.134.734h-4.333a.666.666 0 0 1-.483-.217zm8.55-8.75h5.933l-2.967-8.5-2.966 8.5zm25.981 8.716a.798.798 0 0 1-.25-.582V1.2a.87.87 0 0 1 .233-.616.781.781 0 0 1 .6-.25h3.767c.511 0 .888.211 1.133.633l7.867 12.432V1.201a.87.87 0 0 1 .233-.618.781.781 0 0 1 .6-.25h4.233c.244 0 .445.083.6.25a.875.875 0 0 1 .234.617v21.6a.87.87 0 0 1-.234.616.783.783 0 0 1-.6.25H92.58c-.512 0-.889-.21-1.134-.633L83.613 11.1v11.735a.779.779 0 0 1-.25.599.864.864 0 0 1-.617.233h-4.233a.798.798 0 0 1-.583-.25m26.783-.001a.798.798 0 0 1-.25-.582V1.2c0-.243.078-.45.233-.616a.783.783 0 0 1 .6-.25h15.5c.243 0 .45.082.616.25a.842.842 0 0 1 .25.616v3.534a.784.784 0 0 1-.25.6.875.875 0 0 1-.617.234h-10.2V10.2h9.534c.243 0 .45.084.617.25.166.167.25.373.25.617V14.6a.78.78 0 0 1-.25.598.87.87 0 0 1-.617.235h-9.534v7.4a.83.83 0 0 1-.233.582.784.784 0 0 1-.6.25h-4.466a.798.798 0 0 1-.584-.25" fill="#FEFEFE"/><g transform="translate(123)"><mask id="b" fill="#fff"><use xlink:href="#a"/></mask><path d="M3.778 21.7c-1.822-1.534-2.79-3.789-2.9-6.768a89.423 89.423 0 0 1-.033-2.866c0-1.288.01-2.255.033-2.9.089-2.933 1.06-5.194 2.917-6.783C5.65.795 8.133 0 11.244 0c3.089 0 5.56.795 7.417 2.383 1.855 1.59 2.828 3.85 2.917 6.783.044 1.29.066 2.256.066 2.9 0 .667-.022 1.623-.066 2.866-.112 2.98-1.073 5.234-2.884 6.767C16.883 23.233 14.4 24 11.244 24c-3.155 0-5.644-.767-7.466-2.3m10.233-3.75c.689-.7 1.055-1.772 1.1-3.217.045-1.289.067-2.21.067-2.767 0-.555-.022-1.455-.067-2.7-.045-1.444-.411-2.516-1.1-3.216C13.32 5.35 12.4 5 11.244 5c-1.178 0-2.111.35-2.8 1.05-.688.7-1.055 1.772-1.1 3.216a79.172 79.172 0 0 0-.033 2.7c0 1.201.01 2.123.034 2.767.044 1.445.41 2.516 1.1 3.216.688.701 1.62 1.051 2.799 1.051 1.156 0 2.078-.35 2.767-1.05" fill="#FEFEFE" mask="url(#b)"/></g><path d="M147.577 23.416a.798.798 0 0 1-.25-.582V1.2a.87.87 0 0 1 .233-.616.783.783 0 0 1 .6-.25h9.166c2.934 0 5.228.666 6.884 2 1.655 1.333 2.483 3.211 2.483 5.633 0 1.556-.36 2.878-1.083 3.967-.723 1.088-1.717 1.933-2.983 2.533l4.5 8.132a.837.837 0 0 1 .1.367.699.699 0 0 1-.2.483.654.654 0 0 1-.5.217h-4.7c-.645 0-1.1-.3-1.367-.9l-3.666-7.232h-3.2v7.3a.782.782 0 0 1-.25.599.866.866 0 0 1-.617.233h-4.567a.798.798 0 0 1-.583-.25zm9.716-12.783c.956 0 1.684-.237 2.184-.716.5-.479.75-1.139.75-1.983 0-.846-.25-1.522-.75-2.035-.5-.51-1.228-.766-2.184-.766h-3.699v5.5h3.7zM286.101 23.45a.667.667 0 0 1-.217-.483c0-.134.011-.234.033-.301L293.684 1.3c.222-.645.667-.967 1.333-.967h5.2c.667 0 1.111.322 1.334.967l7.766 21.365c.022.067.033.167.033.3a.67.67 0 0 1-.216.484.67.67 0 0 1-.484.217h-4.333c-.533 0-.91-.245-1.133-.734l-1.2-3.233h-8.733l-1.2 3.233c-.223.489-.6.734-1.134.734h-4.333a.666.666 0 0 1-.483-.217zm8.55-8.75h5.933l-2.967-8.5-2.966 8.5z" fill="#FEFEFE"/><g transform="translate(320)"><mask id="d" fill="#fff"><use xlink:href="#c"/></mask><path d="M.466 23.416a.798.798 0 0 1-.25-.582V1.2C.216.957.294.75.45.584a.783.783 0 0 1 .6-.25h3.767c.511 0 .888.211 1.133.633l7.867 12.432V1.201a.87.87 0 0 1 .233-.618.781.781 0 0 1 .6-.25h4.233c.244 0 .445.083.6.25a.87.87 0 0 1 .234.617v21.6c0 .244-.078.45-.234.616a.783.783 0 0 1-.6.25h-3.766c-.512 0-.889-.21-1.134-.633L6.15 11.1v11.735a.779.779 0 0 1-.25.599.864.864 0 0 1-.617.233H1.05a.798.798 0 0 1-.583-.25" fill="#FEFEFE" mask="url(#d)"/></g><path d="M179.54 23.433a.781.781 0 0 1-.25-.6V5.767h-5.868a.87.87 0 0 1-.616-.233.785.785 0 0 1-.25-.601V1.2c0-.244.083-.45.25-.616a.835.835 0 0 1 .616-.25h18.1c.244 0 .45.083.616.25a.837.837 0 0 1 .251.616v3.733a.786.786 0 0 1-.25.6.87.87 0 0 1-.617.234h-5.867v17.066a.784.784 0 0 1-.249.6.87.87 0 0 1-.617.234h-4.634a.866.866 0 0 1-.616-.234m15.266 0a.808.808 0 0 1-.233-.6V1.2c0-.244.077-.45.233-.616a.781.781 0 0 1 .6-.25h4.567c.244 0 .45.083.616.25.167.167.25.372.25.616v7.9h7.867V1.2c0-.244.083-.45.25-.616a.835.835 0 0 1 .616-.25h4.534c.244 0 .45.083.616.25.167.167.25.372.25.616v21.633a.781.781 0 0 1-.25.6.866.866 0 0 1-.616.234h-4.534a.866.866 0 0 1-.616-.234.781.781 0 0 1-.25-.6v-8.166h-7.867v8.166a.781.781 0 0 1-.25.6.866.866 0 0 1-.616.234h-4.567a.81.81 0 0 1-.6-.234m22.949-.017a.798.798 0 0 1-.25-.582V1.2c0-.243.078-.45.233-.616a.783.783 0 0 1 .6-.25h15.733c.244 0 .45.082.617.25.167.166.25.373.25.616v3.3a.778.778 0 0 1-.25.6.866.866 0 0 1-.617.234h-10.533v4.232h9.8c.244 0 .45.083.616.25.167.167.25.373.25.617v3.034c0 .244-.083.45-.25.617a.835.835 0 0 1-.616.25h-9.8v4.332h10.8c.244 0 .45.084.617.25a.842.842 0 0 1 .25.617v3.3a.782.782 0 0 1-.25.6.866.866 0 0 1-.617.233h-16a.798.798 0 0 1-.583-.25m24.816 0a.798.798 0 0 1-.25-.582V1.2c0-.243.078-.45.233-.616a.783.783 0 0 1 .6-.25h10.3c2.822 0 4.922.577 6.3 1.733 1.377 1.155 2.067 2.8 2.067 4.933 0 1.066-.284 1.99-.85 2.767-.567.777-1.195 1.345-1.884 1.7.91.4 1.678 1.061 2.3 1.983.622.923.934 1.962.934 3.117 0 2.244-.74 3.988-2.217 5.232-1.478 1.245-3.595 1.867-6.35 1.867h-10.6a.798.798 0 0 1-.583-.25zm10.183-13.85c.822 0 1.455-.222 1.9-.666.444-.444.666-1.022.666-1.734 0-.688-.216-1.25-.65-1.683-.433-.432-1.072-.65-1.916-.65h-4.166v4.733h4.166zm.3 9.6c.867 0 1.539-.25 2.017-.75.477-.5.716-1.116.716-1.85 0-.754-.244-1.382-.733-1.882-.49-.5-1.156-.75-2-.75h-4.466v5.232h4.466zm11.749 4.25a.798.798 0 0 1-.25-.582V1.2a.87.87 0 0 1 .233-.616.781.781 0 0 1 .6-.25h9.167c2.933 0 5.227.666 6.883 2 1.655 1.333 2.483 3.211 2.483 5.633 0 1.556-.36 2.878-1.083 3.967-.723 1.088-1.717 1.933-2.983 2.533l4.5 8.132a.828.828 0 0 1 .1.367.692.692 0 0 1-.2.483.65.65 0 0 1-.5.217h-4.7c-.645 0-1.1-.3-1.367-.9l-3.667-7.232h-3.199v7.3a.78.78 0 0 1-.25.599.862.862 0 0 1-.617.233h-4.567a.798.798 0 0 1-.583-.25zm9.716-12.783c.955 0 1.684-.237 2.184-.716.5-.479.75-1.139.75-1.983 0-.846-.25-1.522-.75-2.035-.5-.51-1.229-.766-2.184-.766h-3.699v5.5h3.7z" fill="#FEFEFE"/></g></svg>