<svg width="463" height="144" viewBox="0 0 463 144" xmlns="http://www.w3.org/2000/svg" xmlns:xlink="http://www.w3.org/1999/xlink"><title>Page 1</title><defs><path id="a" d="M18.211 65H.423V.489h17.788z"/><path id="c" d="M.336 65h64.881V.488H.337z"/><path id="e" d="M53.943 65H.03V.489h53.913V65z"/><path id="g" d="M.182 0h57.507v66.357H.182z"/><path id="i" d="M55.126 65.434V.922H.108v64.512h55.018z"/><path id="k" d="M54.835 65H0V.489h54.835V65z"/><path id="m" d="M57.273 65H.87V.489h56.402V65z"/><path id="o" d="M49.212 65H.275V.488h48.937z"/><path id="q" d="M.888 65h55.295V.488H.888z"/><path id="s" d="M.357 65h55.019V.488H.357z"/></defs><g fill="none" fill-rule="evenodd"><path d="M207.08 64.743c.43-.46.647-.998.647-1.612V3.226c0-.675-.216-1.228-.646-1.658-.432-.43-.983-.646-1.658-.646h-13.181c-.614 0-1.152.216-1.613.645-.46.43-.691.983-.691 1.659V63.13c0 .614.232 1.152.69 1.613.462.462 1 .692 1.614.692h13.18c.676 0 1.227-.23 1.659-.692" fill="#FEFEFE"/><g transform="translate(383 79)"><mask id="b" fill="#fff"><use xlink:href="#a"/></mask><path d="M15.907.488H2.727c-.614 0-1.152.217-1.613.647-.459.428-.691.983-.691 1.657v59.905c0 .613.232 1.151.691 1.612.461.462.999.692 1.613.692h13.18c.675 0 1.226-.23 1.658-.692.43-.46.646-.998.646-1.612V2.791c0-.674-.216-1.228-.646-1.657-.432-.43-.983-.647-1.658-.647" fill="#FEFEFE" mask="url(#b)"/></g><g transform="translate(313 79)"><mask id="d" fill="#fff"><use xlink:href="#c"/></mask><path d="M43.652 3.161C43.037 1.38 41.808.488 39.965.488H25.588c-1.843 0-3.072.891-3.685 2.673L.43 62.234c-.062.185-.093.462-.093.831 0 .492.2.936.6 1.336.398.401.844.6 1.337.6h11.98c1.475 0 2.518-.676 3.134-2.029l3.318-8.939H44.85l3.318 8.94C48.781 64.324 49.826 65 51.301 65h11.981c.49 0 .936-.198 1.336-.599.4-.4.6-.844.6-1.336 0-.369-.032-.646-.094-.83L43.652 3.16zM24.574 40.21l8.203-23.5 8.202 23.5H24.574z" fill="#FEFEFE" mask="url(#d)"/></g><g transform="translate(408 79)"><mask id="f" fill="#fff"><use xlink:href="#e"/></mask><path d="M51.639.488H39.935c-.678 0-1.23.23-1.66.692-.43.46-.644 1.03-.644 1.705v33.73L15.88 2.239C15.204 1.074 14.16.49 12.748.49H2.334c-.677 0-1.231.229-1.66.69C.244 1.641.03 2.21.03 2.885v59.811c0 .614.229 1.153.69 1.614.462.46.999.69 1.614.69h11.703c.677 0 1.245-.213 1.706-.645.46-.429.69-.982.69-1.659v-32.44l21.659 32.993c.675 1.169 1.719 1.752 3.133 1.752h10.414c.675 0 1.228-.23 1.658-.692.43-.46.646-1.027.646-1.706V2.885c0-.675-.216-1.244-.646-1.705-.43-.462-.983-.692-1.658-.692" fill="#FEFEFE" mask="url(#f)"/></g><path d="M52.44.922H2.395c-.676 0-1.244.23-1.704.691C.23 2.075 0 2.643 0 3.319V13.64c0 .676.23 1.23.692 1.66.46.43 1.028.643 1.704.643h16.22v47.188c0 .676.231 1.23.692 1.657.46.433 1.028.647 1.704.647h12.811c.675 0 1.244-.215 1.705-.647.46-.427.691-.98.691-1.657V15.942h16.22c.675 0 1.244-.213 1.704-.643.462-.43.692-.984.692-1.66V3.318c0-.675-.23-1.244-.692-1.705-.46-.462-1.029-.69-1.704-.69m10.736 64.511h12.626c.675 0 1.244-.214 1.704-.646.461-.427.692-.98.692-1.658V42.948h8.847l10.137 19.998c.737 1.658 1.996 2.488 3.78 2.488h12.993c.553 0 1.015-.198 1.382-.598.37-.4.554-.844.554-1.337 0-.306-.092-.646-.277-1.015l-12.44-22.486c3.501-1.658 6.25-3.994 8.247-7.004 1.996-3.01 2.995-6.665 2.995-10.967 0-6.696-2.289-11.889-6.866-15.574-4.578-3.688-10.92-5.53-19.03-5.53H63.175c-.677 0-1.23.23-1.659.69-.43.461-.645 1.031-.645 1.706V63.13c0 .614.23 1.152.691 1.613.461.462.998.691 1.613.691zm15.022-51.24h10.23c2.64 0 4.654.705 6.035 2.118 1.383 1.416 2.075 3.288 2.075 5.623 0 2.336-.692 4.163-2.075 5.483-1.38 1.323-3.395 1.983-6.035 1.983h-10.23V14.193zm84.51-10.599c-.615-1.782-1.844-2.673-3.687-2.673h-14.377c-1.843 0-3.072.891-3.685 2.673L119.484 62.67c-.062.184-.093.462-.093.83 0 .492.199.937.6 1.336.398.402.844.6 1.336.6h11.98c1.475 0 2.519-.675 3.135-2.029l3.317-8.938h24.146l3.318 8.938c.613 1.354 1.658 2.029 3.133 2.029h11.98c.49 0 .937-.198 1.337-.6.399-.4.599-.843.599-1.335 0-.37-.032-.647-.092-.831L162.707 3.596zm-19.078 37.049l8.203-23.502 8.202 23.502h-16.405zm122.525 24.79c.675 0 1.228-.229 1.658-.69.43-.462.646-1.029.646-1.706V3.32c0-.675-.216-1.245-.646-1.706-.43-.46-.983-.69-1.658-.69H254.45c-.678 0-1.23.23-1.66.69-.43.461-.644 1.031-.644 1.706v33.73l-21.75-34.376c-.677-1.166-1.721-1.75-3.133-1.75h-10.414c-.677 0-1.231.23-1.66.69-.43.461-.644 1.031-.644 1.706v59.81c0 .614.229 1.152.69 1.613.462.462.999.691 1.614.691h11.703c.677 0 1.244-.214 1.706-.646.46-.427.69-.98.69-1.658V30.69l21.659 32.994c.675 1.167 1.719 1.75 3.133 1.75h10.414zm24.744 0h12.349c.675 0 1.228-.229 1.658-.69.43-.462.646-1 .646-1.614V42.671h26.357c.675 0 1.245-.214 1.705-.646.46-.43.692-.98.692-1.658v-9.769c0-.676-.231-1.245-.692-1.706-.46-.459-1.03-.69-1.705-.69H305.55v-12.81h28.2c.676 0 1.244-.216 1.706-.646.46-.429.69-.98.69-1.658V3.32c0-.675-.23-1.245-.69-1.706-.462-.46-1.03-.69-1.706-.69h-42.853c-.678 0-1.231.23-1.66.69-.43.461-.644 1.031-.644 1.706v59.81c0 .614.229 1.152.69 1.613.462.462.999.691 1.614.691" fill="#FEFEFE"/><g transform="translate(342)"><mask id="h" fill="#fff"><use xlink:href="#g"/></mask><path d="M8.292 59.996c5.038 4.24 11.919 6.36 20.643 6.36 8.725 0 15.59-2.12 20.598-6.36 5.007-4.24 7.665-10.474 7.973-18.71.12-3.437.183-6.08.183-7.923 0-1.782-.062-4.455-.183-8.02-.247-8.108-2.935-14.358-8.064-18.752C44.31 2.198 37.475 0 28.935 0 20.334 0 13.468 2.198 8.338 6.59 3.208 10.986.518 17.236.274 25.345.212 27.128.182 29.8.182 33.363c0 3.564.03 6.205.092 7.924.307 8.235 2.98 14.47 8.018 18.709m9.862-34.375c.122-3.992 1.136-6.957 3.04-8.892 1.904-1.937 4.485-2.905 7.74-2.905 3.196 0 5.746.968 7.65 2.905 1.905 1.935 2.919 4.9 3.042 8.892.123 3.442.185 5.93.185 7.465 0 1.537-.062 4.086-.185 7.65-.123 3.994-1.137 6.957-3.041 8.892-1.905 1.937-4.455 2.905-7.65 2.905-3.256 0-5.837-.968-7.74-2.905-1.905-1.935-2.92-4.898-3.041-8.892-.062-1.782-.093-4.331-.093-7.65 0-3.255.03-5.744.093-7.465" fill="#FEFEFE" mask="url(#h)"/></g><g transform="translate(407)"><mask id="j" fill="#fff"><use xlink:href="#i"/></mask><path d="M15.038 65.434c.675 0 1.244-.214 1.705-.646.46-.427.691-.98.691-1.658V42.948h8.847l10.14 19.998c.734 1.658 1.994 2.488 3.776 2.488h12.994c.553 0 1.015-.198 1.384-.598.366-.4.551-.844.551-1.337 0-.306-.092-.646-.274-1.015L42.41 39.998c3.501-1.658 6.251-3.994 8.25-7.004 1.994-3.01 2.993-6.665 2.993-10.967 0-6.696-2.29-11.889-6.864-15.574C42.21 2.765 35.866.923 27.755.923H2.412c-.677 0-1.23.23-1.659.69-.43.461-.645 1.031-.645 1.706V63.13c0 .614.23 1.152.691 1.613.461.462.998.691 1.613.691h12.626zm2.396-51.24h10.23c2.64 0 4.654.705 6.035 2.118 1.384 1.416 2.075 3.288 2.075 5.623 0 2.336-.69 4.163-2.075 5.483-1.38 1.323-3.395 1.983-6.036 1.983H17.434V14.193z" fill="#FEFEFE" mask="url(#j)"/></g><g transform="translate(0 79)"><mask id="l" fill="#fff"><use xlink:href="#k"/></mask><path d="M52.44.488H2.395c-.676 0-1.244.23-1.704.692C.23 1.64 0 2.21 0 2.885v10.32c0 .678.23 1.232.692 1.66.46.43 1.028.644 1.704.644h16.22v47.188c0 .676.231 1.23.692 1.657.46.433 1.028.647 1.704.647h12.811c.675 0 1.244-.215 1.705-.647.46-.428.691-.98.691-1.657V15.508h16.22c.675 0 1.244-.213 1.704-.643.462-.43.692-.983.692-1.66V2.884c0-.675-.23-1.243-.692-1.704-.46-.462-1.029-.692-1.704-.692" fill="#FEFEFE" mask="url(#l)"/></g><g transform="translate(60 79)"><mask id="n" fill="#fff"><use xlink:href="#m"/></mask><path d="M54.877.488H42.341c-.676 0-1.243.23-1.704.692-.462.46-.691 1.03-.691 1.705v21.84h-21.75V2.886c0-.675-.23-1.244-.691-1.705-.46-.462-1.03-.692-1.704-.692H3.175c-.677 0-1.23.23-1.66.692-.43.46-.643 1.03-.643 1.705v59.811c0 .678.213 1.23.644 1.659.428.431.982.645 1.66.645h12.626c.674 0 1.244-.213 1.704-.645.46-.429.692-.982.692-1.659V40.118h21.748v22.578c0 .678.23 1.23.692 1.659.46.431 1.028.645 1.705.645h12.533c.675 0 1.245-.213 1.705-.645.461-.429.691-.982.691-1.659V2.886c0-.675-.23-1.244-.691-1.705-.46-.462-1.03-.692-1.705-.692" fill="#FEFEFE" mask="url(#n)"/></g><g transform="translate(124 79)"><mask id="p" fill="#fff"><use xlink:href="#o"/></mask><path d="M46.816 51.176h-29.86v-11.98h27.095c.675 0 1.243-.23 1.704-.692.462-.46.691-1.028.691-1.705v-8.386c0-.675-.228-1.244-.69-1.705-.462-.462-1.03-.69-1.705-.69H16.956V14.311h29.122c.675 0 1.244-.214 1.705-.646.462-.427.691-.98.691-1.658V2.884c0-.674-.23-1.244-.69-1.705-.462-.46-1.03-.69-1.706-.69H2.58c-.677 0-1.232.23-1.66.69C.49 1.64.277 2.21.277 2.884v59.812c0 .614.23 1.152.69 1.613.462.461.998.691 1.613.691h44.236c.675 0 1.245-.214 1.707-.646.46-.427.69-.98.69-1.658v-9.124c0-.675-.23-1.244-.69-1.705-.462-.46-1.032-.69-1.706-.69" fill="#FEFEFE" mask="url(#p)"/></g><g transform="translate(192 79)"><mask id="r" fill="#fff"><use xlink:href="#q"/></mask><path d="M47.243 31.27c1.904-.983 3.64-2.549 5.207-4.7 1.567-2.15 2.35-4.7 2.35-7.65 0-5.897-1.905-10.444-5.713-13.639C45.277 2.086 39.47.488 31.669.488H3.192c-.677 0-1.231.23-1.66.691-.43.461-.644 1.03-.644 1.705v59.812c0 .614.229 1.152.69 1.613.462.461.998.691 1.614.691h29.306c7.617 0 13.469-1.719 17.557-5.162 4.084-3.44 6.128-8.262 6.128-14.467 0-3.195-.861-6.068-2.581-8.618-1.721-2.549-3.84-4.378-6.36-5.483zm-29.03-18.339h11.52c2.334 0 4.1.598 5.299 1.795 1.199 1.2 1.797 2.752 1.797 4.655 0 1.967-.614 3.564-1.843 4.793-1.23 1.228-2.981 1.843-5.252 1.843h-11.52V12.931zm17.925 37.554c-1.322 1.381-3.18 2.072-5.575 2.072h-12.35V38.09h12.35c2.334 0 4.177.691 5.529 2.072 1.35 1.384 2.027 3.121 2.027 5.21 0 2.026-.66 3.73-1.981 5.113z" fill="#FEFEFE" mask="url(#r)"/></g><g transform="translate(254 79)"><mask id="t" fill="#fff"><use xlink:href="#s"/></mask><path d="M42.658 39.564c3.502-1.659 6.25-3.994 8.248-7.004 1.996-3.01 2.995-6.665 2.995-10.967 0-6.696-2.289-11.889-6.866-15.574C42.458 2.331 36.115.49 28.005.49H2.661c-.677 0-1.231.23-1.659.69-.431.46-.645 1.03-.645 1.704v59.812c0 .614.23 1.152.691 1.613.461.461.998.691 1.613.691h12.626c.675 0 1.244-.214 1.704-.646.461-.427.692-.98.692-1.658V42.513h8.847l10.137 19.998c.737 1.66 1.996 2.49 3.779 2.49H53.44c.553 0 1.015-.199 1.383-.6.368-.4.553-.843.553-1.336 0-.306-.092-.646-.277-1.015L42.658 39.564zm-8.71-12.58c-1.381 1.323-3.395 1.982-6.035 1.982h-10.23V13.76h10.23c2.64 0 4.654.706 6.035 2.12 1.383 1.414 2.075 3.286 2.075 5.622s-.692 4.163-2.075 5.483z" fill="#FEFEFE" mask="url(#t)"/></g></g></svg>