<svg width="96" height="96" viewBox="0 0 96 96" xmlns="http://www.w3.org/2000/svg"><title>Page 1</title><g fill="none" fill-rule="evenodd"><path d="M0 48C0 21.49 21.49 0 48 0s48 21.49 48 48-21.49 48-48 48S0 74.51 0 48" fill="#00AC98"/><path d="M58.606 58.606A14.948 14.948 0 0 0 63 48c0-4.142-1.678-7.892-4.393-10.607A14.957 14.957 0 0 0 48 33a14.953 14.953 0 0 0-10.605 4.393A14.958 14.958 0 0 0 32.999 48a14.95 14.95 0 0 0 4.395 10.606A14.95 14.95 0 0 0 47.999 63m10.607-9.787v5.393H64" stroke="#FEFEFE" stroke-width="2"/></g></svg>